<?xml version="1.0" encoding="utf-8"?>
<!-- Generator: Adobe Illustrator 19.1.0, SVG Export Plug-In . SVG Version: 6.00 Build 0)  -->
<svg version="1.1" id="Layer_1" xmlns="http://www.w3.org/2000/svg" xmlns:xlink="http://www.w3.org/1999/xlink" x="0px" y="0px"
	 viewBox="0 0 256 256" style="enable-background:new 0 0 256 256;" xml:space="preserve">
<style type="text/css">
	.st0{fill:#FFFFFF;}
	.st1{fill:none;stroke:#FFFFFF;stroke-width:20;stroke-linecap:round;stroke-linejoin:round;stroke-miterlimit:10;}
	.st2{fill:none;stroke:#FFFFFF;stroke-width:34;stroke-linecap:round;stroke-linejoin:round;stroke-miterlimit:10;}
</style>
<g>
	<path class="st0" d="M230.6,43.9L214.5,60c-8.8-11.2-19.8-20.6-32.1-27.7C165.8,23,147.1,18,128,18c-14.8,0-29.3,2.9-42.8,8.6
		c-13.1,5.5-24.9,13.5-35,23.6c-10.1,10.1-18,21.9-23.6,35c-5.7,13.6-8.6,28-8.6,42.8s2.9,29.3,8.6,42.8c5.5,13.1,13.5,24.9,23.6,35
		c10.1,10.1,21.9,18,35,23.6c13.6,5.7,28,8.6,42.8,8.6c19.7,0,39-5.3,55.8-15.2c16.3-9.7,30-23.4,39.5-39.9
		c4.3-7.5,1.8-17.1-5.7-21.5c-7.5-4.3-17.1-1.8-21.5,5.7c-6.8,11.8-16.5,21.6-28.2,28.5c-12,7.1-25.8,10.8-39.9,10.8
		c-21,0-40.7-8.2-55.6-23c-14.8-14.8-23-34.6-23-55.6s8.2-40.7,23-55.6s34.6-23,55.6-23c13.6,0,27.1,3.5,38.8,10.2
		c9.9,5.7,18.6,13.5,25.3,22.8l-22.4,22.4c-4.1,4.1-2.7,7.4,3.1,7.4h57.4c4.4,0,7.9-3.5,7.9-7.9V47C238,41.2,234.7,39.8,230.6,43.9z
		"/>
</g>
</svg>
