<?xml version="1.0" encoding="utf-8"?>
<!-- Generator: Adobe Illustrator 19.1.0, SVG Export Plug-In . SVG Version: 6.00 Build 0)  -->
<svg version="1.1" id="Layer_1" xmlns="http://www.w3.org/2000/svg" xmlns:xlink="http://www.w3.org/1999/xlink" x="0px" y="0px"
	 viewBox="-334 207 355 355" style="enable-background:new -334 207 355 355;" xml:space="preserve">
<style type="text/css">
	.st0{fill:#FFFFFF;}
	.st1{fill:#231F20;}
</style>
<circle class="st0" cx="-156.5" cy="384.5" r="151.8"/>
<g>
	<path class="st1" d="M-157.2,229.2c-85.1,0-154.4,69.2-154.4,155.2s69.8,155.3,154.5,155.3c86,0,155.7-69.2,155.7-155.2
		C-1.4,298.5-71.1,229.2-157.2,229.2z M-247.7,493.4c-2.8-2.3-4-4.3-5.7-7c-13.2-21.1-20.6-95.7-3.6-121c5.4-8.9,11.1-4.8,9.2,2.1
		c-3.3,15.4-1.3,24,6.2,40.7c11.8,24.8,48.1,59.3,57.7,71.8c16.5,21.4,22,37,21.9,41.2c-0.1,3.2-0.7,5.3-6.4,4.8
		C-198.2,523.8-227,511.2-247.7,493.4z M-20.1,422.6c-1.2,3.6-2.6,8.2-5.5,6.1c-5.5-4.1-17.8-12-29.6-16.4c-0.6-0.1-0.6-1-0.3-1.5
		c0.8-1.9,1.2-3.6,1.6-5.8c0.3-2.1,1.8-3.4,2.9-5.1c3-4.9,4.7-13.3,5.4-18.6c0.5-4.9,0.2-10.3-0.8-14.8c-0.4-1.9-1.8-4.4-1.8-6.5
		s1-4.3,1.2-6.7c0.6-7.1-8.4-13.1-13.3-15.3c-11.1-5.2-22.9-9.8-35-16.2c-6.8-3.6-12.2-11.4-17.7-15.6s-23.2-11.2-30.2-13.1
		c-1.6-0.5-2.2-1.2-2.4-2.4c-2.9-13.9-11.1-29.2-26.4-41c-5-3.9,0.6-6,7.4-6.4C-57.2,239.4,4.8,338.5-20.1,422.6z M-63.8,375
		c-0.1-0.5-0.3-2.4-0.3-2.8c0-1,2-2.3,3-3.1c1.4-1.1,3.1-2.4,4.1-2.9c0.4-0.2,0.6,0.3,0.7,0.4c4,6,2.5,20.9-0.4,28
		c-0.3,0.7-0.9,1-1.2,0.5c-1.5-3.2-3.6-6.1-6.1-7.6c-0.5-0.4-0.5-1.1-0.5-1.2C-63.7,382.8-63.3,379.1-63.8,375z M-193.8,308.6
		c5.1-4.1,19.9-9.7,37.6-5.4c5,1.2,18,5.5,26.7,9.7c8.5,3.9,14.5,11.1,22.4,15.5c10,5.5,23.7,8.1,34.2,13.3c2.1,1,7.7,4.8,6.2,5.6
		c-5.3,2.3-14.6,1-20.1-0.3c-2.8-0.6-6.3-1.4-7.6,1.1c-1.5,2.7-0.4,6.8,0.7,9.3c1.4,3,3.3,5.2,5.8,6.3c3.4,1.6,8.1,1.7,11.3,3.5
		c5.9,3.4,6.1,14.4,2.2,19.9c-3.2,4.6-12.8,5.4-21.7,5c-8.6-0.4-18.6-1.3-24.9,1.3c-6.2,2.6-9.2,7-12.9,12.4
		c-0.5,0.7-1.3,0.8-2.1,0.3c-22-13.2-49.9-20.1-64.7-41.1c-3.7-5.2-6-11.5-7.2-19C-210.9,328.6-203.4,316.2-193.8,308.6z
		 M-228.2,269.1c-4.3-0.5-4.4-3.7-2.6-4.9c4.7-3.3,12.4-7.3,20.1-10.4c2.3-0.9,3.5-1.2,5.6-0.9c5.7,0.6,15.1,4.4,25.9,12.1
		c12.9,9.2,24.5,26.8,16.8,25.4c-4.9-0.8-2.8-0.6-8.5-1.2c-5.8-0.5-9.7,0.1-12.4-0.2c-1.2-0.1-2.1-0.9-2.9-1.6
		C-197,277.6-209.7,271.4-228.2,269.1z M-112.9,411.6c0.9-2.5,1.9-3.9,3.8-5.1c3.6-2.3,9.6-2.4,15.4-2.8c5.6-0.4,11.6-0.7,15.6-2.6
		c2.4-1.1,4.8-4.3,8.6-2.7c1.8,0.8,2.7,2.4,3.3,4c0.6,1.8,1,3.6,0.8,6c-0.5,6.9-6.2,10.3-7.2,16.8c-0.1,1-0.3,2.5-0.8,3
		c-4.3,4.4-12.8,3.5-20.5,2.7c-2.8-0.3-5.5-0.3-7.3-1.2c-1.3-0.6-2.6-1.9-3.7-2.9c-2.5-2.3-3.9-4-6.3-6.7c-0.8-0.9-2.7-2.6-2.9-3.7
		C-114.3,415.5-113.3,412.6-112.9,411.6z M-260.9,289c1.1-1.1,1.8-1.6,3.3-2.1c19.9-4.9,39.8-1.8,54.1,4.6c3.2,1.4,4.7,3.4,2.6,4.8
		c-2.7,1.6-10.8,6.9-15.3,11.1c-1.3,1.1-3.6,1.2-5,1c-16.8-2.2-25.6-3.5-50.8,6.1c-3.9,1.6-7.4-0.6-5.6-3.6
		C-274.3,304.8-266.4,294.6-260.9,289z M-295.8,356.6c0.3-1.8,0.5-2.3,1.5-3.7c1.7-2.6,22.5-25.9,54.8-31.6c4.2-0.6,7.3-0.3,8,1.4
		c1.2,3-1.3,4.7-4.2,6.4c-51.7,30.9-48,76.9-48.5,95.7c0.2,7.7-5.4,9.1-6.8,5.5C-297.1,413.8-302.2,387.8-295.8,356.6z
		 M-230.7,392.8c-9.1-22.2-3.2-42.1,0.9-49.7c2-3.8,4-6.3,6.6-5.6c2.8,0.8,3.5,3.7,3.9,9c2.9,44.3,29.7,59.2,63.3,74.9
		c26.6,13.6,56.8,29.1,82.1,66.7c3.8,5.4,4.4,8.7,0.1,11.8c-15.4,10.5-29.4,17.9-49.9,22.7c-3.1,0.7-6.3,0.2-9-6.9
		C-161.2,442.5-208.9,445.8-230.7,392.8z M-54.6,482.9c-4.3,4.3-6.8,0.9-8.2-1.8c-6.1-12.9-12-23.7-21.5-34.1
		c-1.7-1.7-0.4-4,2.1-3.8c3.1,0.2,5.1,0.1,8.6-1.4c2.9-1.2,6.2-5.3,7.9-11.1c1.2-4.2,1.3-5.5,3.9-5.8c0.6-0.1,1.8,0.1,2.5,0.3
		c3.2,0.9,6.6,3.5,9.1,5.4c6.4,4.9,15.9,15.6,17.6,19.1c1.1,2.2,0,3.7-0.6,5C-36.7,461.5-47.3,475.6-54.6,482.9z"/>
	<path class="st1" d="M-149.7,339.1c3.8,1.3,8,2.3,10.9,4c1.7,1,3.5,3.6,5.9,3.3c2.4-0.3,3.9-5.1,4.4-7.5c0.7-3.6,0.3-8.1-0.9-10.4
		c-2-3.8-7.8-4.7-13.9-4.4c-4.1,0.2-6.4,0.6-9.6,1.5c-3.4,1-8,3.3-6,8C-157.6,336.6-153,338.1-149.7,339.1z"/>
</g>
</svg>
