<?xml version="1.0" encoding="utf-8"?>
<!-- Generator: Adobe Illustrator 19.1.0, SVG Export Plug-In . SVG Version: 6.00 Build 0)  -->
<svg version="1.1" id="Layer_1" xmlns="http://www.w3.org/2000/svg" xmlns:xlink="http://www.w3.org/1999/xlink" x="0px" y="0px"
	 viewBox="-207 184.9 60.7 49.1" style="enable-background:new -207 184.9 60.7 49.1;" xml:space="preserve">
<style type="text/css">
	.st0{fill:#799A05;}
	.st1{fill:#FFFFFF;}
</style>
<path class="st0" d="M-154.4,187.7h-44.4c-2.5,0-4.6,2.1-4.6,4.6v27c0,2.5,2.1,4.4,4.6,4.4h14.6l7.5,7.5l7.5-7.5h14.6
	c2.5,0,4.6-1.8,4.6-4.4v-27C-149.9,189.8-151.9,187.7-154.4,187.7z"/>
<g>
	<path class="st1" d="M-189.3,211.2h-3.2l1-4.8h-2.8l-1,4.8h-3.2l2.5-11.8h3.2l-0.9,4.4h2.8l0.9-4.4h3.2L-189.3,211.2z"/>
	<path class="st1" d="M-182.6,211.4c-1.1,0-2-0.3-2.7-1c-0.6-0.6-1-1.5-1-2.7s0.2-2.2,0.7-3.1c0.4-0.9,1.1-1.6,1.8-2.1
		c0.8-0.5,1.7-0.7,2.7-0.7c1,0,1.8,0.2,2.4,0.7c0.6,0.5,0.9,1.1,0.9,1.8c0,1.1-0.4,1.9-1.3,2.5s-2.1,0.9-3.6,0.9h-0.5v0.1
		c0,0.8,0.4,1.2,1.3,1.2c0.4,0,0.8-0.1,1.3-0.2c0.4-0.1,0.9-0.3,1.4-0.6v2.2c-0.6,0.3-1.2,0.5-1.7,0.6S-182,211.4-182.6,211.4z
		 M-181.4,204.1c-0.3,0-0.6,0.2-0.9,0.6c-0.3,0.4-0.5,0.8-0.5,1.3h0.2c0.6,0,1-0.1,1.4-0.3c0.3-0.2,0.5-0.5,0.5-0.9
		c0-0.2-0.1-0.3-0.2-0.4C-181,204.1-181.1,204.1-181.4,204.1z"/>
	<path class="st1" d="M-170.1,201.9c0.3,0,0.5,0,0.6,0.1l-0.7,3.1c-0.3-0.1-0.6-0.2-1-0.2c-0.6,0-1,0.2-1.3,0.6
		c-0.3,0.4-0.6,1-0.8,1.7l-0.9,4h-3.1l1.9-9.1h2.5l-0.1,1.5h0.1c0.3-0.6,0.7-1,1.1-1.3C-171.3,202.1-170.8,201.9-170.1,201.9z"/>
	<path class="st1" d="M-165.9,211.4c-1.1,0-2-0.3-2.7-1c-0.6-0.6-1-1.5-1-2.7s0.2-2.2,0.7-3.1c0.4-0.9,1.1-1.6,1.8-2.1
		c0.8-0.5,1.7-0.7,2.7-0.7c1,0,1.8,0.2,2.4,0.7c0.6,0.5,0.9,1.1,0.9,1.8c0,1.1-0.4,1.9-1.3,2.5s-2.1,0.9-3.6,0.9h-0.5v0.1
		c0,0.8,0.4,1.2,1.3,1.2c0.4,0,0.8-0.1,1.3-0.2c0.4-0.1,0.9-0.3,1.4-0.6v2.2c-0.6,0.3-1.2,0.5-1.7,0.6
		C-164.6,211.3-165.2,211.4-165.9,211.4z M-164.6,204.1c-0.3,0-0.6,0.2-0.9,0.6c-0.3,0.4-0.5,0.8-0.5,1.3h0.2c0.6,0,1-0.1,1.4-0.3
		c0.3-0.2,0.5-0.5,0.5-0.9c0-0.2-0.1-0.3-0.2-0.4C-164.2,204.1-164.3,204.1-164.6,204.1z"/>
	<path class="st1" d="M-160.5,210.2c0-0.6,0.2-1,0.5-1.4c0.3-0.3,0.8-0.5,1.4-0.5c0.5,0,0.8,0.1,1.1,0.3c0.3,0.2,0.4,0.5,0.4,0.9
		c0,0.6-0.2,1-0.5,1.4c-0.3,0.3-0.8,0.5-1.4,0.5c-0.5,0-0.8-0.1-1.1-0.3C-160.4,210.9-160.5,210.6-160.5,210.2z M-156.9,207.1h-2.6
		l1.3-7.6h3.4L-156.9,207.1z"/>
</g>
</svg>
