<?xml version="1.0" encoding="utf-8"?>
<!-- Generator: Adobe Illustrator 19.1.0, SVG Export Plug-In . SVG Version: 6.00 Build 0)  -->
<svg version="1.1" id="Layer_1" xmlns="http://www.w3.org/2000/svg" xmlns:xlink="http://www.w3.org/1999/xlink" x="0px" y="0px"
	 viewBox="-210.8 330.6 164.5 135.2" style="enable-background:new -210.8 330.6 164.5 135.2;" xml:space="preserve">
<style type="text/css">
	
		.st0{fill:#648003;stroke:#648003;stroke-width:3;stroke-linecap:round;stroke-linejoin:round;stroke-miterlimit:10;stroke-opacity:0.5;}
	.st1{fill:#FFFFFF;}
</style>
<path class="st0" d="M-54.6,333.9h-147.8c-3.2,0-5.8,2.6-5.8,5.8V435c0,3.2,2.6,5.8,5.8,5.8h51.5l22.5,22.5l22.5-22.5h51.3
	c3.2,0,5.8-2.6,5.8-5.8v-95.4C-48.8,336.4-51.4,333.9-54.6,333.9z"/>
<g>
	<path class="st1" d="M-167.3,388.1h-9.6l3.1-14.7h-8.5l-3.1,14.7h-9.6l7.6-36h9.6l-2.8,13.4h8.6l2.8-13.4h9.7L-167.3,388.1z"/>
	<path class="st1" d="M-146.8,388.6c-3.5,0-6.2-1-8.1-2.9c-1.9-1.9-2.9-4.7-2.9-8.1c0-3.5,0.7-6.6,2.1-9.4c1.4-2.8,3.3-4.9,5.6-6.3
		c2.4-1.4,5.2-2.2,8.3-2.2c3.1,0,5.6,0.7,7.4,2.1s2.7,3.3,2.7,5.6c0,3.3-1.3,5.8-3.9,7.6c-2.6,1.8-6.3,2.6-11.2,2.6h-1.5v0.4
		c0,2.4,1.3,3.6,4,3.6c1.3,0,2.6-0.2,3.8-0.6c1.2-0.4,2.7-1,4.3-1.8v6.8c-1.8,0.9-3.6,1.6-5.2,2
		C-142.9,388.4-144.7,388.6-146.8,388.6z M-142.9,366.2c-1,0-1.9,0.6-2.8,1.7c-0.9,1.1-1.4,2.4-1.6,3.9h0.7c1.8,0,3.2-0.3,4.2-1
		c1-0.7,1.5-1.6,1.5-2.7c0-0.5-0.2-1-0.5-1.3C-141.7,366.4-142.2,366.2-142.9,366.2z"/>
	<path class="st1" d="M-108.5,359.7c0.9,0,1.6,0.1,2,0.2l-2.1,9.4c-0.9-0.4-1.9-0.5-3-0.5c-1.7,0-3,0.6-4.1,1.7
		c-1,1.2-1.8,2.9-2.3,5.3l-2.6,12.3h-9.5l5.9-27.9h7.6l-0.4,4.7h0.2c1.1-1.8,2.2-3.2,3.5-4C-112.1,360.1-110.5,359.7-108.5,359.7z"
		/>
	<path class="st1" d="M-95.5,388.6c-3.5,0-6.2-1-8.1-2.9s-2.9-4.7-2.9-8.1c0-3.5,0.7-6.6,2.1-9.4s3.3-4.9,5.6-6.3
		c2.4-1.4,5.2-2.2,8.3-2.2c3.1,0,5.6,0.7,7.4,2.1s2.7,3.3,2.7,5.6c0,3.3-1.3,5.8-3.9,7.6c-2.6,1.8-6.3,2.6-11.2,2.6H-97v0.4
		c0,2.4,1.3,3.6,4,3.6c1.3,0,2.6-0.2,3.8-0.6c1.2-0.4,2.7-1,4.3-1.8v6.8c-1.8,0.9-3.6,1.6-5.2,2C-91.6,388.4-93.4,388.6-95.5,388.6z
		 M-91.6,366.2c-1,0-1.9,0.6-2.8,1.7c-0.9,1.1-1.4,2.4-1.6,3.9h0.7c1.8,0,3.2-0.3,4.2-1c1-0.7,1.5-1.6,1.5-2.7c0-0.5-0.2-1-0.5-1.3
		C-90.4,366.4-90.9,366.2-91.6,366.2z"/>
	<path class="st1" d="M-79.1,385c0-1.8,0.5-3.2,1.6-4.2s2.5-1.6,4.4-1.6c1.4,0,2.5,0.3,3.3,1c0.8,0.7,1.1,1.6,1.1,2.8
		c0,1.8-0.5,3.2-1.6,4.2c-1,1-2.5,1.5-4.3,1.5c-1.4,0-2.6-0.3-3.4-0.9C-78.7,387.2-79.1,386.2-79.1,385z M-68.2,375.4h-8.1l3.8-23.3
		H-62L-68.2,375.4z"/>
</g>
<g>
	<path class="st1" d="M-170.1,420.5l4.3-20.4h3.3l-4.3,20.4H-170.1z"/>
	<path class="st1" d="M-148.9,418.2c0.6,0,1.3-0.1,2.1-0.4v2.5c-0.3,0.2-0.8,0.3-1.3,0.4c-0.6,0.1-1.1,0.2-1.7,0.2
		c-2.5,0-3.8-1.1-3.8-3.4c0-0.5,0.1-1.1,0.2-1.8l1.7-7.9h-2.3l0.3-1.5l2.6-1.1l1.8-3.2h2l-0.7,3.4h3.9l-0.5,2.5h-3.9l-1.7,8
		c-0.1,0.5-0.2,0.9-0.2,1.3c0,0.4,0.1,0.7,0.3,1C-149.6,418-149.2,418.2-148.9,418.2z"/>
	<path class="st1" d="M-134.8,420.5l2-9.4c0.2-0.8,0.3-1.4,0.3-1.8c0-1.3-0.6-1.9-1.8-1.9c-1,0-2,0.6-2.9,1.7
		c-0.9,1.2-1.6,2.8-2,4.8l-1.4,6.5h-3.3l4.6-21.7h3.3l-0.8,3.7c-0.3,1.2-0.6,2.5-1,4.1l-0.3,1h0.1c0.8-1,1.6-1.7,2.3-2.1
		c0.8-0.4,1.6-0.7,2.5-0.7c1.3,0,2.2,0.4,2.9,1.1c0.7,0.7,1,1.8,1,3.1c0,0.7-0.1,1.5-0.3,2.4l-1.9,9.1L-134.8,420.5L-134.8,420.5z"
		/>
	<path class="st1" d="M-123.8,420.5h-3.3l3.3-15.4h3.3L-123.8,420.5z M-123.2,401.3c0-0.6,0.2-1.1,0.5-1.5c0.4-0.4,0.9-0.6,1.5-0.6
		c0.5,0,0.9,0.1,1.2,0.4c0.3,0.2,0.5,0.6,0.5,1.1c0,0.7-0.2,1.2-0.6,1.6c-0.4,0.4-0.9,0.6-1.5,0.6c-0.5,0-0.9-0.1-1.2-0.4
		C-123.1,402.2-123.2,401.8-123.2,401.3z"/>
	<path class="st1" d="M-110.1,420.5l2-9.4c0.2-0.8,0.3-1.4,0.3-1.8c0-1.2-0.6-1.8-1.8-1.8c-0.7,0-1.3,0.3-2,0.8s-1.2,1.3-1.8,2.3
		s-0.9,2.1-1.2,3.4l-1.4,6.5h-3.3l3.3-15.4h2.6l-0.3,2.9h0.1c0.8-1.1,1.6-1.9,2.4-2.4s1.7-0.7,2.7-0.7c1.2,0,2.2,0.4,2.9,1.1
		s1,1.7,1,3c0,0.6-0.1,1.5-0.3,2.5l-1.9,9.1h-3.3V420.5z"/>
	<path class="st1" d="M-90.8,405.1h3.8l-6.7,6.8l4.1,8.7h-3.7l-2.9-6.6l-1.9,1.3l-1.1,5.2h-3.3l4.6-21.7h3.3
		c-1.3,5.8-2,9.2-2.2,10.2s-0.5,2-0.8,3.2h0.1L-90.8,405.1z"/>
</g>
</svg>
