<?xml version="1.0" encoding="utf-8"?>
<!-- Generator: Adobe Illustrator 19.1.0, SVG Export Plug-In . SVG Version: 6.00 Build 0)  -->
<svg version="1.1" id="Layer_1" xmlns="http://www.w3.org/2000/svg" xmlns:xlink="http://www.w3.org/1999/xlink" x="0px" y="0px"
	 viewBox="-396 232 231 272.5" style="enable-background:new -396 232 231 272.5;" xml:space="preserve">
<style type="text/css">
	.st0{opacity:0.8;}
	.st1{fill:none;stroke:#4C4A4C;stroke-width:3;stroke-linecap:round;stroke-linejoin:round;stroke-miterlimit:10;}
	.st2{font-family:'NYPLKievit-Regular';}
	.st3{font-size:19.2722px;}
	.st4{fill:none;stroke:#4B4B4B;stroke-width:3;stroke-linecap:round;stroke-linejoin:round;}
	.st5{fill:#4B4B4B;}
	.st6{fill:none;stroke:#4B4B4B;stroke-width:2;stroke-linecap:round;stroke-linejoin:round;}
	.st7{fill:none;stroke:#4B4B4B;stroke-width:2;stroke-linecap:round;stroke-linejoin:round;stroke-dasharray:5.8878,7.8503;}
	.st8{fill:url(#SVGID_1_);}
</style>
<g>
	<g class="st0">
		<line class="st1" x1="-338.8" y1="438.4" x2="-338.8" y2="470.5"/>
		<line class="st1" x1="-338.8" y1="438.4" x2="-345.3" y2="450.5"/>
		<line class="st1" x1="-338.8" y1="438.4" x2="-332.3" y2="450.5"/>
	</g>
	<g class="st0">
		<line class="st1" x1="-230.8" y1="314.4" x2="-230.8" y2="470.5"/>
		<line class="st1" x1="-230.8" y1="314.4" x2="-237.3" y2="326.5"/>
		<line class="st1" x1="-230.8" y1="314.4" x2="-224.3" y2="326.5"/>
	</g>
	<text transform="matrix(1 0 0 1 -368.5388 492.3932)" class="st2 st3">Camera</text>
	<text transform="matrix(1 0 0 1 -257.3923 492.3932)" class="st2 st3">Subject</text>
	<g>
		<g>
			<g>
				<g>
					<line class="st4" x1="-265.3" y1="255.2" x2="-194.9" y2="325.6"/>
					<g>
						<polygon class="st5" points="-264.7,263 -264.7,255.8 -257.5,255.8 -260.5,252.8 -267.8,252.8 -267.8,260 						"/>
					</g>
					<g>
						<polygon class="st5" points="-202.8,325 -195.6,325 -195.6,317.8 -192.5,320.8 -192.5,328 -199.7,328 						"/>
					</g>
				</g>
			</g>
			<circle class="st5" cx="-230.1" cy="290.4" r="8.3"/>
		</g>
		<g>
			<g>
				<line class="st6" x1="-195" y1="334.9" x2="-197.7" y2="336.2"/>
				<line class="st7" x1="-204.9" y1="339.5" x2="-338.2" y2="401.8"/>
				<polyline class="st6" points="-341.8,403.5 -344.5,404.8 -343.2,402 				"/>
				<line class="st7" x1="-339.9" y1="394.9" x2="-277.5" y2="261.6"/>
				<line class="st6" x1="-275.9" y1="258" x2="-274.6" y2="255.3"/>
			</g>
		</g>
		
			<linearGradient id="SVGID_1_" gradientUnits="userSpaceOnUse" x1="-298.2514" y1="130.431" x2="-298.2514" y2="280.4519" gradientTransform="matrix(0.7071 0.7071 -0.7071 0.7071 48.8652 433.2496)">
			<stop  offset="0" style="stop-color:#FFF200;stop-opacity:0"/>
			<stop  offset="1" style="stop-color:#FFF200;stop-opacity:0.6"/>
		</linearGradient>
		<polygon class="st8" points="-344.5,404.8 -274.6,255.3 -195,334.9 		"/>
		<path id="Rectangle-2" class="st5" d="M-346.3,391.8l-7.4-7.4l-14.8,14.8l29.6,29.6l14.8-14.8l-7.4-7.4l3.7-3.7l-14.8-14.8
			L-346.3,391.8z"/>
	</g>
</g>
</svg>
