<?xml version="1.0" encoding="utf-8"?>
<!-- Generator: Adobe Illustrator 19.1.0, SVG Export Plug-In . SVG Version: 6.00 Build 0)  -->
<svg version="1.1" id="Layer_1" xmlns="http://www.w3.org/2000/svg" xmlns:xlink="http://www.w3.org/1999/xlink" x="0px" y="0px"
	 viewBox="-524 224.5 253.3 232.3" style="enable-background:new -524 224.5 253.3 232.3;" xml:space="preserve">
<style type="text/css">
	.st0{font-family:'NYPLKievit-Regular';}
	.st1{font-size:19.2722px;}
	.st2{fill:none;stroke:#4B4B4B;stroke-width:3;stroke-linecap:round;stroke-linejoin:round;}
	.st3{fill:#4B4B4B;}
	.st4{fill:none;stroke:#4B4B4B;stroke-width:2;stroke-linecap:round;stroke-linejoin:round;}
	.st5{fill:none;stroke:#4B4B4B;stroke-width:2;stroke-linecap:round;stroke-linejoin:round;stroke-dasharray:5.8878,7.8503;}
	.st6{fill:url(#SVGID_1_);}
</style>
<text transform="matrix(1 0 0 1 -501.8528 442.4663)" class="st0 st1">Camera</text>
<text transform="matrix(1 0 0 1 -343.7807 263.7996)" class="st0 st1">Subject</text>
<g>
	<g>
		<g>
			<g>
				<line class="st2" x1="-393.3" y1="242.6" x2="-322.9" y2="313"/>
				<g>
					<polygon class="st3" points="-392.7,250.4 -392.7,243.2 -385.5,243.2 -388.5,240.2 -395.8,240.2 -395.8,247.4 					"/>
				</g>
				<g>
					<polygon class="st3" points="-330.8,312.4 -323.6,312.4 -323.6,305.2 -320.5,308.2 -320.5,315.4 -327.7,315.4 					"/>
				</g>
			</g>
		</g>
		<circle class="st3" cx="-358.1" cy="277.8" r="8.3"/>
	</g>
	<g>
		<g>
			<line class="st4" x1="-323" y1="322.3" x2="-325.7" y2="323.6"/>
			<line class="st5" x1="-332.9" y1="326.9" x2="-466.2" y2="389.2"/>
			<polyline class="st4" points="-469.8,390.9 -472.5,392.2 -471.2,389.4 			"/>
			<line class="st5" x1="-467.9" y1="382.3" x2="-405.5" y2="249"/>
			<line class="st4" x1="-403.9" y1="245.4" x2="-402.6" y2="242.7"/>
		</g>
	</g>
	
		<linearGradient id="SVGID_1_" gradientUnits="userSpaceOnUse" x1="-705.6786" y1="1251.5929" x2="-705.6786" y2="1101.572" gradientTransform="matrix(0.7071 0.7071 0.7071 -0.7071 -768.2667 1685.963)">
		<stop  offset="0" style="stop-color:#FFF200;stop-opacity:0"/>
		<stop  offset="1" style="stop-color:#FFF200;stop-opacity:0.6"/>
	</linearGradient>
	<polygon class="st6" points="-472.5,392.2 -402.6,242.7 -323,322.3 	"/>
	<path id="Rectangle-2" class="st3" d="M-474.3,379.2l-7.4-7.4l-14.8,14.8l29.6,29.6l14.8-14.8l-7.4-7.4l3.7-3.7l-14.8-14.8
		L-474.3,379.2z"/>
</g>
</svg>
