<?xml version="1.0" encoding="utf-8"?>
<!-- Generator: Adobe Illustrator 19.1.0, SVG Export Plug-In . SVG Version: 6.00 Build 0)  -->
<svg version="1.1" id="Layer_1" xmlns="http://www.w3.org/2000/svg" xmlns:xlink="http://www.w3.org/1999/xlink" x="0px" y="0px"
	 viewBox="-128 219 355 355" style="enable-background:new -128 219 355 355;" xml:space="preserve">
<style type="text/css">
	.st0{fill:#FFFFFF;}
</style>
<g>
	<path class="st0" d="M26.8,284.3C16,276.6,6.6,272.8,0.9,272.2c-2.1-0.3-3.3,0-5.6,0.9c-7.7,3.1-15.4,7.1-20.1,10.4
		c-1.8,1.2-1.7,4.4,2.6,4.9c18.5,2.3,31.2,8.5,42,18.3c0.8,0.7,1.7,1.5,2.9,1.6c2.7,0.3,6.6-0.3,12.4,0.2c5.7,0.6,3.6,0.4,8.5,1.2
		C51.3,311.1,39.7,293.5,26.8,284.3z"/>
	<path class="st0" d="M-51.6,306.2c-1.5,0.5-2.2,1-3.3,2.1c-5.5,5.6-13.4,15.8-16.7,21.9c-1.8,3,1.7,5.2,5.6,3.6
		c25.2-9.6,34-8.3,50.8-6.1c1.4,0.2,3.7,0.1,5-1c4.5-4.2,12.6-9.5,15.3-11.1c2.1-1.4,0.6-3.4-2.6-4.8
		C-11.8,304.4-31.7,301.3-51.6,306.2z"/>
	<path class="st0" d="M136.5,417.7c-3.8-1.6-6.2,1.6-8.6,2.7c-4,1.9-10,2.2-15.6,2.6c-5.8,0.4-11.8,0.5-15.4,2.8
		c-1.9,1.2-2.9,2.6-3.8,5.1c-0.4,1-1.4,3.9-1.2,4.8c0.2,1.1,2.1,2.8,2.9,3.7c2.4,2.7,3.8,4.4,6.3,6.7c1.1,1,2.4,2.3,3.7,2.9
		c1.8,0.9,4.5,0.9,7.3,1.2c7.7,0.8,16.2,1.7,20.5-2.7c0.5-0.5,0.7-2,0.8-3c1-6.5,6.7-9.9,7.2-16.8c0.2-2.4-0.2-4.2-0.8-6
		C139.2,420.1,138.3,418.5,136.5,417.7z"/>
	<path class="st0" d="M133.1,361c-10.5-5.2-24.2-7.8-34.2-13.3c-7.9-4.4-13.9-11.6-22.4-15.5c-8.7-4.2-21.7-8.5-26.7-9.7
		c-17.7-4.3-32.5,1.3-37.6,5.4c-9.6,7.6-17.1,20-14.1,37.4c1.2,7.5,3.5,13.8,7.2,19c14.8,21,42.7,27.9,64.7,41.1
		c0.8,0.5,1.6,0.4,2.1-0.3c3.7-5.4,6.7-9.8,12.9-12.4c6.3-2.6,16.3-1.7,24.9-1.3c8.9,0.4,18.5-0.4,21.7-5c3.9-5.5,3.7-16.5-2.2-19.9
		c-3.2-1.8-7.9-1.9-11.3-3.5c-2.5-1.1-4.4-3.3-5.8-6.3c-1.1-2.5-2.2-6.6-0.7-9.3c1.3-2.5,4.8-1.7,7.6-1.1c5.5,1.3,14.8,2.6,20.1,0.3
		C140.8,365.8,135.2,362,133.1,361z M77.5,358.2c-0.5,2.4-2,7.2-4.4,7.5c-2.4,0.3-4.2-2.3-5.9-3.3c-2.9-1.7-7.1-2.7-10.9-4
		c-3.3-1-7.9-2.5-9.2-5.5c-2-4.7,2.6-7,6-8c3.2-0.9,5.5-1.3,9.6-1.5c6.1-0.3,11.9,0.6,13.9,4.4C77.8,350.1,78.2,354.6,77.5,358.2z"
		/>
	<path class="st0" d="M-88.3,372.2c-1,1.4-1.2,1.9-1.5,3.7c-6.4,31.2-1.3,57.2,4.8,73.7c1.4,3.6,7,2.2,6.8-5.5
		c0.5-18.8-3.2-64.8,48.5-95.7c2.9-1.7,5.4-3.4,4.2-6.4c-0.7-1.7-3.8-2-8-1.4C-65.8,346.3-86.6,369.6-88.3,372.2z"/>
	<path class="st0" d="M185.9,441.9c24.9-84.1-37.1-183.2-144.5-179.3C34.6,263,29,265.1,34,269c15.3,11.8,23.5,27.1,26.4,41
		c0.2,1.2,0.8,1.9,2.4,2.4c7,1.9,24.7,8.9,30.2,13.1s10.9,12,17.7,15.6c12.1,6.4,23.9,11,35,16.2c4.9,2.2,13.9,8.2,13.3,15.3
		c-0.2,2.4-1.2,4.6-1.2,6.7c0,2.1,1.4,4.6,1.8,6.5c1,4.5,1.3,9.9,0.8,14.8c-0.7,5.3-2.4,13.7-5.4,18.6c-1.1,1.7-2.6,3-2.9,5.1
		c-0.4,2.2-0.8,3.9-1.6,5.8c-0.3,0.5-0.3,1.4,0.3,1.5c11.8,4.4,24.1,12.3,29.6,16.4C183.3,450.1,184.7,445.5,185.9,441.9z"/>
	<path class="st0" d="M142,406.8c2.5,1.5,4.6,4.4,6.1,7.6c0.3,0.5,0.9,0.2,1.2-0.5c2.9-7.1,4.4-22,0.4-28c-0.1-0.1-0.3-0.6-0.7-0.4
		c-1,0.5-2.7,1.8-4.1,2.9c-1,0.8-3,2.1-3,3.1c0,0.4,0.2,2.3,0.3,2.8c0.5,4.1,0.1,7.8-0.7,11.3C141.5,405.7,141.5,406.4,142,406.8z"
		/>
	<path class="st0" d="M173.4,469c-1.7-3.5-11.2-14.2-17.6-19.1c-2.5-1.9-5.9-4.5-9.1-5.4c-0.7-0.2-1.9-0.4-2.5-0.3
		c-2.6,0.3-2.7,1.6-3.9,5.8c-1.7,5.8-5,9.9-7.9,11.1c-3.5,1.5-5.5,1.6-8.6,1.4c-2.5-0.2-3.8,2.1-2.1,3.8
		c9.5,10.4,15.4,21.2,21.5,34.1c1.4,2.7,3.9,6.1,8.2,1.8c7.3-7.3,17.9-21.4,21.4-28.2C173.4,472.7,174.5,471.2,173.4,469z"/>
	<path class="st0" d="M82.3,541.9c20.5-4.8,34.5-12.2,49.9-22.7c4.3-3.1,3.7-6.4-0.1-11.8c-25.3-37.6-55.5-53.1-82.1-66.7
		c-33.6-15.7-60.4-30.6-63.3-74.9c-0.4-5.3-1.1-8.2-3.9-9c-2.6-0.7-4.6,1.8-6.6,5.6c-4.1,7.6-10,27.5-0.9,49.7
		c21.8,53,69.5,49.7,98,122.9C76,542.1,79.2,542.6,82.3,541.9z"/>
	<path class="st0" d="M-41.7,512.7C-21,530.5,7.8,543,37.6,545.3c5.7,0.5,6.3-1.6,6.4-4.8c0.1-4.2-5.4-19.8-21.9-41.2
		c-9.6-12.5-45.9-47-57.7-71.8c-7.5-16.7-9.5-25.3-6.2-40.7c1.9-6.9-3.8-11-9.2-2.1c-17,25.3-9.6,99.9,3.6,121
		C-45.7,508.4-44.5,510.4-41.7,512.7z"/>
</g>
</svg>
