<?xml version="1.0" encoding="utf-8"?>
<!-- Generator: Adobe Illustrator 19.1.0, SVG Export Plug-In . SVG Version: 6.00 Build 0)  -->
<svg version="1.1" id="Layer_1" xmlns="http://www.w3.org/2000/svg" xmlns:xlink="http://www.w3.org/1999/xlink" x="0px" y="0px"
	 viewBox="-94 145.3 231 306" style="enable-background:new -94 145.3 231 306;" xml:space="preserve">
<style type="text/css">
	.st0{opacity:0.8;}
	.st1{fill:none;stroke:#4C4A4C;stroke-width:3;stroke-linecap:round;stroke-linejoin:round;stroke-miterlimit:10;}
	.st2{font-family:'NYPLKievit-Regular';}
	.st3{font-size:19.2722px;}
	.st4{fill:none;stroke:#4B4B4B;stroke-width:3;stroke-linecap:round;stroke-linejoin:round;}
	.st5{fill:#4B4B4B;}
	.st6{fill:none;stroke:#4B4B4B;stroke-width:2;stroke-linecap:round;stroke-linejoin:round;}
	.st7{fill:none;stroke:#4B4B4B;stroke-width:2;stroke-linecap:round;stroke-linejoin:round;stroke-dasharray:5.8878,7.8503;}
	.st8{fill:url(#SVGID_1_);}
</style>
<g class="st0">
	<line class="st1" x1="-36.8" y1="349.9" x2="-36.8" y2="400"/>
	<line class="st1" x1="-36.8" y1="349.9" x2="-43.3" y2="362"/>
	<line class="st1" x1="-36.8" y1="349.9" x2="-30.3" y2="362"/>
</g>
<g class="st0">
	<line class="st1" x1="71.2" y1="225.9" x2="71.2" y2="400"/>
	<line class="st1" x1="71.2" y1="225.9" x2="64.7" y2="238"/>
	<line class="st1" x1="71.2" y1="225.9" x2="77.7" y2="238"/>
</g>
<text transform="matrix(1 0 0 1 -66.5779 423.9045)" class="st2 st3">Camera</text>
<text transform="matrix(1 0 0 1 44.5686 423.9045)" class="st2 st3">Subject</text>
<g>
	<g>
		<g>
			<g>
				<line class="st4" x1="36.7" y1="166.7" x2="107.1" y2="237.1"/>
				<g>
					<polygon class="st5" points="37.3,174.5 37.3,167.3 44.5,167.3 41.5,164.3 34.2,164.3 34.2,171.5 					"/>
				</g>
				<g>
					<polygon class="st5" points="99.2,236.5 106.4,236.5 106.4,229.3 109.5,232.3 109.5,239.5 102.3,239.5 					"/>
				</g>
			</g>
		</g>
		<circle class="st5" cx="71.9" cy="201.9" r="8.3"/>
	</g>
	<g>
		<g>
			<line class="st6" x1="107" y1="246.4" x2="104.3" y2="247.7"/>
			<line class="st7" x1="97.1" y1="251" x2="-36.2" y2="313.3"/>
			<polyline class="st6" points="-39.8,315 -42.5,316.3 -41.2,313.5 			"/>
			<line class="st7" x1="-37.9" y1="306.4" x2="24.5" y2="173.1"/>
			<line class="st6" x1="26.1" y1="169.5" x2="27.4" y2="166.8"/>
		</g>
	</g>
	
		<linearGradient id="SVGID_1_" gradientUnits="userSpaceOnUse" x1="86.0638" y1="354.213" x2="86.0638" y2="204.1921" gradientTransform="matrix(0.7071 0.7071 0.7071 -0.7071 -263.6249 415.6934)">
		<stop  offset="0" style="stop-color:#FFF200;stop-opacity:0"/>
		<stop  offset="1" style="stop-color:#FFF200;stop-opacity:0.6"/>
	</linearGradient>
	<polygon class="st8" points="-42.5,316.3 27.4,166.8 107,246.4 	"/>
	<path id="Rectangle-2" class="st5" d="M-44.3,303.3l-7.4-7.4l-14.8,14.8l29.6,29.6l14.8-14.8l-7.4-7.4l3.7-3.7l-14.8-14.8
		L-44.3,303.3z"/>
</g>
</svg>
