<?xml version="1.0" encoding="utf-8"?>
<!-- Generator: Adobe Illustrator 19.1.0, SVG Export Plug-In . SVG Version: 6.00 Build 0)  -->
<svg version="1.1" id="Layer_1" xmlns="http://www.w3.org/2000/svg" xmlns:xlink="http://www.w3.org/1999/xlink" x="0px" y="0px"
	 viewBox="-203.2 87 176 142.9" style="enable-background:new -203.2 87 176 142.9;" xml:space="preserve">
<style type="text/css">
	.st0{fill:#799A05;}
	.st1{fill:#FFFFFF;}
</style>
<path class="st0" d="M-42.2,87h-145.8c-8.3,0-15.2,6.8-15.2,15.1v88.7c0,8.3,6.9,14.3,15.2,14.3h48.1l24.8,24.8l24.8-24.8h48.1
	c8.3,0,15-6,15-14.3v-88.7C-27.2,93.8-33.9,87-42.2,87z"/>
<g>
	<path class="st1" d="M-154,150h-9.6l3.1-14.7h-8.5l-3.1,14.7h-9.6l7.6-36h9.6l-2.8,13.4h8.6l2.8-13.4h9.7L-154,150z"/>
	<path class="st1" d="M-133.5,150.5c-3.5,0-6.2-1-8.1-2.9c-1.9-1.9-2.9-4.7-2.9-8.1c0-3.5,0.7-6.6,2.1-9.4c1.4-2.8,3.3-4.9,5.6-6.3
		c2.4-1.4,5.2-2.2,8.3-2.2c3.1,0,5.6,0.7,7.4,2.1c1.8,1.4,2.7,3.3,2.7,5.6c0,3.3-1.3,5.8-3.9,7.6c-2.6,1.8-6.3,2.6-11.2,2.6h-1.5
		v0.4c0,2.4,1.3,3.6,4,3.6c1.3,0,2.6-0.2,3.8-0.6c1.2-0.4,2.7-1,4.3-1.8v6.8c-1.8,0.9-3.6,1.6-5.2,2
		C-129.6,150.3-131.4,150.5-133.5,150.5z M-129.6,128.1c-1,0-1.9,0.6-2.8,1.7c-0.9,1.1-1.4,2.4-1.6,3.9h0.7c1.8,0,3.2-0.3,4.2-1
		c1-0.7,1.5-1.6,1.5-2.7c0-0.5-0.2-1-0.5-1.3C-128.4,128.3-128.9,128.1-129.6,128.1z"/>
	<path class="st1" d="M-95.2,121.6c0.9,0,1.6,0.1,2,0.2l-2.1,9.4c-0.9-0.4-1.9-0.5-3-0.5c-1.7,0-3,0.6-4.1,1.7
		c-1,1.2-1.8,2.9-2.3,5.3l-2.6,12.3h-9.5l5.9-27.9h7.6l-0.4,4.7h0.2c1.1-1.8,2.2-3.2,3.5-4C-98.8,122-97.2,121.6-95.2,121.6z"/>
	<path class="st1" d="M-82.2,150.5c-3.5,0-6.2-1-8.1-2.9c-1.9-1.9-2.9-4.7-2.9-8.1c0-3.5,0.7-6.6,2.1-9.4c1.4-2.8,3.3-4.9,5.6-6.3
		c2.4-1.4,5.2-2.2,8.3-2.2c3.1,0,5.6,0.7,7.4,2.1c1.8,1.4,2.7,3.3,2.7,5.6c0,3.3-1.3,5.8-3.9,7.6c-2.6,1.8-6.3,2.6-11.2,2.6h-1.5
		v0.4c0,2.4,1.3,3.6,4,3.6c1.3,0,2.6-0.2,3.8-0.6c1.2-0.4,2.7-1,4.3-1.8v6.8c-1.8,0.9-3.6,1.6-5.2,2
		C-78.3,150.3-80.1,150.5-82.2,150.5z M-78.3,128.1c-1,0-1.9,0.6-2.8,1.7c-0.9,1.1-1.4,2.4-1.6,3.9h0.7c1.8,0,3.2-0.3,4.2-1
		c1-0.7,1.5-1.6,1.5-2.7c0-0.5-0.2-1-0.5-1.3C-77.1,128.3-77.6,128.1-78.3,128.1z"/>
	<path class="st1" d="M-65.8,146.9c0-1.8,0.5-3.2,1.6-4.2c1.1-1,2.5-1.6,4.4-1.6c1.4,0,2.5,0.3,3.3,1c0.8,0.7,1.1,1.6,1.1,2.8
		c0,1.8-0.5,3.2-1.6,4.2c-1,1-2.5,1.5-4.3,1.5c-1.4,0-2.6-0.3-3.4-0.9C-65.4,149.1-65.8,148.1-65.8,146.9z M-54.9,137.3H-63
		l3.8-23.3h10.5L-54.9,137.3z"/>
</g>
<g>
	<path class="st1" d="M-156.3,182.4l4.3-20.4h3.3l-4.3,20.4H-156.3z"/>
	<path class="st1" d="M-135.1,180.1c0.6,0,1.3-0.1,2.1-0.4v2.5c-0.3,0.2-0.8,0.3-1.3,0.4c-0.6,0.1-1.1,0.2-1.7,0.2
		c-2.5,0-3.8-1.1-3.8-3.4c0-0.5,0.1-1.1,0.2-1.8l1.7-7.9h-2.3l0.3-1.5l2.6-1.1l1.8-3.2h2l-0.7,3.4h3.9l-0.5,2.5h-3.9l-1.7,8
		c-0.1,0.5-0.2,0.9-0.2,1.3c0,0.4,0.1,0.7,0.3,1C-135.9,179.9-135.5,180.1-135.1,180.1z"/>
	<path class="st1" d="M-121.1,182.4l2-9.4c0.2-0.8,0.3-1.4,0.3-1.8c0-1.3-0.6-1.9-1.8-1.9c-1,0-2,0.6-2.9,1.7
		c-0.9,1.2-1.6,2.8-2,4.8l-1.4,6.5h-3.3l4.6-21.7h3.3l-0.8,3.7c-0.3,1.2-0.6,2.5-1,4.1l-0.3,1h0.1c0.8-1,1.6-1.7,2.3-2.1
		c0.8-0.4,1.6-0.7,2.5-0.7c1.3,0,2.2,0.4,2.9,1.1c0.7,0.7,1,1.8,1,3.1c0,0.7-0.1,1.5-0.3,2.4l-1.9,9.1H-121.1z"/>
	<path class="st1" d="M-110.1,182.4h-3.3l3.3-15.4h3.3L-110.1,182.4z M-109.5,163.2c0-0.6,0.2-1.1,0.5-1.5c0.4-0.4,0.9-0.6,1.5-0.6
		c0.5,0,0.9,0.1,1.2,0.4c0.3,0.2,0.5,0.6,0.5,1.1c0,0.7-0.2,1.2-0.6,1.6c-0.4,0.4-0.9,0.6-1.5,0.6c-0.5,0-0.9-0.1-1.2-0.4
		C-109.3,164.1-109.5,163.7-109.5,163.2z"/>
	<path class="st1" d="M-96.4,182.4l2-9.4c0.2-0.8,0.3-1.4,0.3-1.8c0-1.2-0.6-1.8-1.8-1.8c-0.7,0-1.3,0.3-2,0.8
		c-0.7,0.5-1.2,1.3-1.8,2.3s-0.9,2.1-1.2,3.4l-1.4,6.5h-3.3l3.3-15.4h2.6l-0.3,2.9h0.1c0.8-1.1,1.6-1.9,2.4-2.4s1.7-0.7,2.7-0.7
		c1.2,0,2.2,0.4,2.9,1.1c0.7,0.7,1,1.7,1,3c0,0.6-0.1,1.5-0.3,2.5l-1.9,9.1H-96.4z"/>
	<path class="st1" d="M-77,167h3.8l-6.7,6.8l4.1,8.7h-3.7l-2.9-6.6l-1.9,1.3l-1.1,5.2h-3.3l4.6-21.7h3.3c-1.3,5.8-2,9.2-2.2,10.2
		c-0.2,1-0.5,2-0.8,3.2h0.1L-77,167z"/>
</g>
</svg>
