<?xml version="1.0" encoding="utf-8"?>
<!-- Generator: Adobe Illustrator 19.1.0, SVG Export Plug-In . SVG Version: 6.00 Build 0)  -->
<svg version="1.1" id="Layer_1" xmlns="http://www.w3.org/2000/svg" xmlns:xlink="http://www.w3.org/1999/xlink" x="0px" y="0px"
	 viewBox="0 0 250.6 250.7" style="enable-background:new 0 0 250.6 250.7;" xml:space="preserve">
<style type="text/css">
	.st0{opacity:0.5;}
	.st1{fill:#FFFFFF;stroke:#231F20;stroke-miterlimit:10;}
	.st2{fill:#FF5500;stroke:#FFFFFF;stroke-width:3;stroke-miterlimit:10;}
</style>
<circle id="svg_1" class="st0" cx="125.7" cy="125.8" r="117.7"/>
<g id="Continents" transform="matrix(1.419847,0,0,1.419847,15.32198,-182.2152) ">
	<polyline id="svg_3" class="st1" points="80.5,264 80.2,264.9 80,268.7 79.3,270.4 76.4,271.4 75.2,273.7 75.3,277.2 77.5,278.9 
		80.9,281 84.5,284.6 86.9,287.4 88.8,287.5 89,289.6 88,291.6 88.4,293.1 88.6,293.2 96.9,291.6 104.8,289.2 112.4,286 121.5,281 
		129.4,275.2 129.6,272.8 130.9,269.3 133.4,265.7 134.8,263.7 132.8,262.2 131.6,262 129,263.2 123.7,264.3 119.5,264.9 116,260.8 
		110.4,260.9 106.3,260.3 101.6,258.2 97.8,259.1 92.5,259.1 90.6,260.2 86.7,258.9 84.2,260 82,261.8 80.8,263 78.9,262.6 
		75.9,262.4 73.3,260.5 72.8,259.2 73.6,257 73.7,255.1 72,253.9 69.3,253.1 66.3,253.1 66,251.7 66.8,249.9 67.3,246.9 65.5,245.9 
		63.1,246.7 62.3,248.3 60.5,248.8 58.3,248 55.2,245.6 54.9,242.4 55.3,239.6 57.9,236.2 61.2,235.5 63.2,235.8 64.7,236.5 
		66.1,236.4 67.7,235.5 70.3,235.8 72.8,236.8 74.6,239.6 76.1,241.5 77.7,241.1 77.2,238.5 76.1,236.4 76.6,233.9 77.8,231.8 
		80.9,229.6 82.8,228 83,225 84.2,221.6 85.8,219.3 86.9,219 87.4,217.4 89,215 90.5,214.3 91.9,215.1 93,213.8 95.4,212.5 
		97.1,211.5 96.4,210 94,210.4 92.9,210 92.7,208.3 91.1,207.8 89.6,209.1 87.8,210 87.7,209.1 89.4,207.3 92.3,205.9 93.9,205.7 
		96.3,204.7 97.1,203 96.3,200.7 93.9,197.9 89.6,194.7 87.1,194.4 85.6,194.2 84.2,192.3 79.9,190.4 78.3,190.9 78.3,193.6 
		78.5,197.1 79.6,198.4 78.8,199.8 78.3,202.8 77.8,205.5 76.1,203.9 74.8,201.9 74.6,199.5 72.6,198.7 69.4,197.9 68.2,196.1 
		68.5,192.5 70.4,189.6 73.4,186.7 76.1,184.7 77.3,183.1 75.9,181.6 74,182.3 71.9,181.6 71.5,179.6 71.3,177.7 69.9,177.8 
		69.6,180.5 68.2,181.5 67.2,180.8 67.1,177.5 66.3,175.3 64.6,174.4 63.1,172.1 60.7,172.4 59.3,173.6 61.1,175.2 61.4,177.1 
		63.5,178.6 63.2,180.7 56.8,175.8 53.4,172.8 51.7,170.3 51.7,168.1 51,165 49.6,164.5 46.8,164.5 45.8,165.1 44.3,164.9 42.8,165 
		42.1,166.6 41.6,167.8 38.6,167.2 36.7,168.4 35.5,170.7 35,172.7 33.2,172.4 31.5,171 32.2,173 34.8,174.3 37.8,175.3 40.3,176.7 
		41.4,179.4 41.6,182.4 40.5,186.8 39.1,191.4 38.8,195.1 38.9,197.2 39.4,199.3 37.5,201.6 35.8,204.5 34.1,208.4 33.4,213 
		32.8,219.5 33.5,221.8 34.8,226.3 35.8,229.8 37.3,233.8 39.2,235.9 40.8,236.4 39.2,234.6 38.4,232.2 37.9,229.6 37.3,227.2 
		38.7,226.8 39.3,228.7 40.4,233.3 42.9,238.1 43.6,240.9 42.9,242.7 44.4,244.8 47.2,246.1 51.6,250.1 54.2,251.1 58.3,252.5 
		63.1,254.4 65.5,256 67.8,258 69.6,262 73,263.3 75.3,264 77.7,263.8 80.5,264 	"/>
	<polyline id="svg_4" class="st1" points="71.5,246.1 73.4,245.2 76.4,246 79.9,247.1 82.6,247.3 85,248.4 84.4,249.6 81.5,250 
		79.2,248.3 76.3,246.9 71.5,246.1 	"/>
	<polyline id="svg_5" class="st1" points="85.8,249.2 85.7,250.4 87.7,251.2 89.6,251.5 92.9,251 90.7,249.7 90.8,248.9 89.6,248.4 
		85.8,249.2 	"/>
	<polyline id="svg_6" class="st1" points="97.5,202.8 98.7,203.9 100.7,205.5 103,207.4 103.7,208.8 100.2,208.9 97.9,206.4 
		97.2,204.7 97.5,202.8 	"/>
	<polyline id="svg_7" class="st1" points="82.7,189.9 80.7,189.3 78.1,188.9 80.7,186.9 80.8,184.2 79.6,182.5 76.6,181.6 
		74.5,180.7 72.5,178 74.2,176.3 76.6,177 79.6,178.5 82.5,180 83.6,182.6 84.5,183.3 86.9,184.4 88.4,186.9 87.2,188.4 86.7,190.5 
		84.8,190.8 82.7,189.9 	"/>
	<polyline id="svg_8" class="st1" points="94.2,187.5 97.1,189.3 98.4,189.9 101.2,189.1 104.7,187.9 101.3,186.7 100.2,184.9 
		100.4,181.9 100.7,176.7 102.6,174.9 102.6,172.1 99.5,169.1 96.4,166.8 92.5,165.6 89.3,163.6 85.8,163.5 82.9,164.5 81.5,166.3 
		79.9,166.5 79.7,165.2 77.6,165.2 74.8,166.4 75.4,168.2 74.2,171.2 75.4,173 77.9,174.6 79.1,170.8 80.3,169.3 81.1,172 
		83.3,174.2 85.4,175.1 88.6,177.6 91.3,180 92,184.8 93.9,185.9 94.2,187.5 	"/>
	<polyline id="svg_9" class="st1" points="105,174.5 105.3,177.1 106.3,178.5 108,179.3 110.2,176.7 111.1,173.5 109.2,172.1 
		107.1,172.8 106.2,174.1 105,174.5 	"/>
	<polyline id="svg_10" class="st1" points="138.5,161.3 139.6,164 139.4,166.6 140.1,168.9 142.4,170.3 142.2,172 140.3,172.7 
		139.1,172.6 137.4,173.3 140.9,174.9 140.4,176.3 137.2,176.3 137.6,178.1 138.4,180.3 138.4,182.8 139.8,185.2 141,187.5 
		142.7,189 142,190.1 141.7,191.2 141,193.7 139.2,195.1 136.1,193.2 136,191.5 134.2,189.9 134.2,187.7 135.8,186 135.6,183.7 
		132.7,182.9 131.3,183 130.3,181.4 130.6,177.8 128.5,173.8 126.4,172.5 125.8,169.9 125.2,166.5 122.7,162.7 122,159.9 
		119.9,159.1 117.8,157.9 116.5,157 115.7,157.9 116.8,159.1 115,160.6 116.7,161.1 118.6,162.4 120.7,164.5 123.2,165.9 120.7,167 
		119.9,168.6 117.7,168.2 115,166.8 112.9,163.3 111.3,162.1 107.6,160.2 105,158.9 103,156.2 105.3,154.9 109.1,154.2 108.6,152.4 
		107,152 106.7,153 103.9,153 104.4,151.3 102.6,150.5 101.5,148.9 98.3,147 93.6,143.7 92.6,144.2 91.7,145.3 89.6,146 88.3,145.4 
		85.9,145 82.8,145.2 81.2,146.1 77.9,146.7 74.9,146.2 72.8,145.4 72.6,143.9 69.4,143.8 68.1,145 64.8,145.2 61.8,145.8 
		61.8,147.6 60.3,148.6 56.9,148.9 55.7,149.9 56.2,151.5 54.8,152.3 50.8,152.9 50.5,154.3 50.4,156 49.1,156.8 46.9,159.1 
		45.4,160.7 43.4,162.3 40.8,162.9 41.5,161.9 42.7,160 42.4,158.8 40.3,158.9 39.2,157.3 38.3,155.7 39.8,154 41.5,152.5 
		42.9,152.3 44.2,150 43.8,147.2 45.7,146.4 48.4,145.2 48.5,142.2 47,140.8 45.6,140.4 53,137.7 59.2,136 65.2,134.9 72.8,134.1 
		79.3,133.9 87.3,134.3 97,136 106.5,138.9 112.9,141.7 119.6,145.2 125.2,148.9 130.6,152.9 135.2,157.2 138.3,160.5 138.5,161.3 	
		"/>
	<polyline id="svg_11" class="st1" points="120.1,171 118.7,171.6 119.3,173 120.8,175.2 121.3,176.8 121.9,179.2 124.2,181.1 
		125.7,181.2 125.1,179.8 123.2,178 123,177.1 124.9,177.9 127,179 128.9,179.5 128.9,177.9 129,177.9 129,177.7 129.1,177.5 
		129.1,177.3 129.1,177 129,176.6 129,176.3 128.9,176.1 128.9,176 128.8,175.9 127.6,175.1 123.6,173.4 121.8,172.7 120.1,171 	"/>
	<polyline id="svg_12" class="st1" points="143.9,167.5 143.8,169.7 144.4,172 143.8,173.2 142.7,173.3 143.7,174.8 145.6,177.4 
		145.8,180.7 144.1,180.2 142.9,180.4 142.6,184.3 142.9,187.6 142.5,189.2 142.6,192 141.7,193.6 141,195.7 142.1,198.5 
		143.7,202.3 143.6,205 143.5,210.5 144.2,215.6 145.5,219.7 147.5,224.3 150.3,227.2 153.5,228 155.4,225 156.6,223.2 158.3,222.4 
		158.8,217.3 158.8,212.5 158.6,207.7 158,202 156.7,195.2 155.1,189.5 153.3,184.4 151,179.4 148.7,174.8 145.9,170.3 143.9,167.5 
			"/>
</g>
<circle class="st2" cx="133.2" cy="137.2" r="10.7"/>
</svg>
