<?xml version="1.0" encoding="utf-8"?>
<!-- Generator: Adobe Illustrator 19.1.0, SVG Export Plug-In . SVG Version: 6.00 Build 0)  -->
<svg version="1.1" id="Layer_1" xmlns="http://www.w3.org/2000/svg" xmlns:xlink="http://www.w3.org/1999/xlink" x="0px" y="0px"
	 viewBox="-180 271.3 250.6 250.7" style="enable-background:new -180 271.3 250.6 250.7;" xml:space="preserve">
<style type="text/css">
	.st0{opacity:0.5;enable-background:new    ;}
	.st1{fill:#FFFFFF;stroke:#231F20;stroke-width:2;stroke-linecap:round;stroke-linejoin:round;stroke-miterlimit:10;}
</style>
<circle id="water" class="st0" cx="-54.3" cy="397.1" r="120.2"/>
<g id="Land">
	<path class="st1" d="M-36,437c-3.8-2-10.6-1.4-11.6,1.7c-1.4,4.3,7.5,6,10,6.5C-31.6,446.6-28.7,441.9-36,437z"/>
	<path class="st1" d="M25.7,462.8c-1-2.4-9.1,0-11.5,0.9c-4.9,1.8-7.9,2.7-11.4-1c-5.7-6.2-8.5-1.4-16.6-4c-15.8-5-19,0.5-26.6-1.6
		c-4.7-1.3-5.1,5.9-12.5,4.3c-12.2-2.6-4.4-7.9-8.2-10.8c-1.1-0.9-8.9-0.9-8.9-3.6c-0.1-4.7,2.5-6.3-0.4-8c-2-1.1-8.6,6.7-15.1-0.5
		c-2.2-2.5-0.8-11.6,2.2-13.1c3-1.4,16-1.5,19.4-1.1c4.6,0.5,5.2,9.4,8.8,6.5c3.6-2.9-3.8-7.6,0.8-13.5c1.5-1.9,5.4-0.7,7.3-6.1
		c4.8-13.7,10.9-18.5,15.8-19.3c4.6-0.8-5.3-6-0.6-9.3c2-1.4,12.2,6.6,13.7,1.6c0.8-2.7-5.8-5.4-7.5-7.2c-3.3-3.5-16.9-15.5-25.7-17
		c-5.5-1,2.5,14.1-2.5,18.8c-2.8,2.6-11.1-8-13.3-13.5c-1.1-2.8,6.7-11.4,9.2-13.1c6.2-4,10.1,4.8,12.5,5.8
		c3.3,1.4,8.6-6.6,11.9-5.2c2.1,0.9,6.7,5.9,8.9,5.9c2.3,0,6.8,0.9,3.3-7.5c-3.7-9.1,3.3-8.3,1.4-15.3
		c-3.6-13.2-12.3-13.7-25.9-13.3c-1.1,0-10.4,4-11.4,4.4c-3.1,1.4,2.8,12-5.4,15.6c-5,2.2-9.8-9.3-15.2-9.6s0.8,11.1-7.1,4.9
		c-4.8-3.7-7.3-14.9-13.3-15.3c-4.8-0.3-3.3,3.8-8,4.6c-3.2,0.5-13.9,0.7-14.9,3.5c-1.1,3.4,1,5.6,4.5,6.1s10.3,3,10.5,6.6
		c0.5,8.3-0.4,18.8-4.8,31.3c-1.6,4.4-7.1,11.2-7.1,25.2c0,3.8,0.9,7.6,2.4,11.1c2.4,5.7,3.8,8.6,7.7,13.4
		c4.4,5.5,1.4,10.8,15.1,18.6c11.1,6.3,16.3,4.5,28.3,17.7c2.6,2.8,11.3,4.3,13.9,7.1c3.5,3.8-10.2,6.2-7.6,13.5
		c2.3,6.2,9.6,5.1,12.6,11.1c1.8,3.6,7.2,2.4,7.6,6.5c0.4,4.5-2.4,6.9,2.1,14.6c22.3-3.5,42.6-13.3,58.9-27.5
		c-6.1-6.7-6.5-4.4-1.8-14.4C21.8,470.1,27.3,466.6,25.7,462.8z"/>
	<path class="st1" d="M-15.7,340.6c0.6,1.6,1.8,5.3,4.9,2.5c0.6-0.6,2.6-3,3-4.4c0.3-1.2,1.8-5.2-1.2-5.6c-1.4-0.2-2.9-0.4-4,0.5
		C-13.8,334.1-16.3,339-15.7,340.6z"/>
	<path class="st1" d="M40.5,327.3c0.2,5.8,1.3,13.9-0.8,16.4c-4.5,5.2,2.1,12.3-1.7,12.9c-4.4,0.7-4.9-4.8-5.5-6.9
		c-1.7-6-3.2-7.2-3.1-9c0.1-1.8,7.5,0.2,5-3.2c-4.7-6.3,3.1-2.2,3.1-5.5c-0.1-2.6-6.4-4.3-5.7-15l0-0.2c-21.5-23-52.1-37.4-86-37.4
		c-15.4,0-30.1,3-43.6,8.3c4.1,5-2.3,12.1-4.4,15c-2.3,3.1-4.7,0.6-7,3.7s-1.6,4.2,1,7.1c2.9,3.1,2.7,5.2,9.9,2.7
		c4-1.4,3.1-7.7,6.6-10.2c4.8-3.6,9.2-2.8,13.8-6.7c1.4-1.2,2.7-5.1,9.7-5.8c9.3-1,9.6,3.3,12.6,3.5c7.8,0.7,10.3-2.6,18.1-2.5
		c8.7,0,15.6-1,22.1,10.2c2.4,4.2-3.1,7,5.6,10.6c4.5,1.9,9.8,12.7,14.6,12.9c2.8,0.1,5.6-5.1,8.4-4.5c2.8,0.6,4.3,9.5-5.8,9.5
		c-5.2,0-1.6,5.6-1.1,7.3c3,10.2,7.7,0.8,10.5,2.9s1,3.6,4.4,4.2c3.4,0.7,6.5,0,7,3.5c0.2,1.3-1.3,5.7-1.2,7
		c0.1,5.2,3.5,4.5,6.8,8.5c8,9.9,4.8,19.4,7.6,31.8c0.9,4.1,4.3,15.5,11.5,14.1c2.7-0.5,8.2-8.1,10.8-17.6
		C62.9,369.7,54.5,346.3,40.5,327.3z"/>
</g>
</svg>
