<?xml version="1.0" encoding="utf-8"?>
<!-- Generator: Adobe Illustrator 19.1.0, SVG Export Plug-In . SVG Version: 6.00 Build 0)  -->
<svg version="1.1" id="Layer_1" xmlns="http://www.w3.org/2000/svg" xmlns:xlink="http://www.w3.org/1999/xlink" x="0px" y="0px"
	 viewBox="-97 263 415.6 268" style="enable-background:new -97 263 415.6 268;" xml:space="preserve">
<style type="text/css">
	.st0{fill:#F15822;}
</style>
<g>
	<g>
		<path class="st0" d="M87.8,460.5c15.5,15.1,19.2,36.9,21.9,57.5c0.4,3.1,5.4,3.2,5,0c-2.9-21.9-6.8-44.9-23.4-61
			C89,454.7,85.5,458.2,87.8,460.5L87.8,460.5z"/>
	</g>
</g>
<g>
	<g>
		<path class="st0" d="M116.3,521.8c0.7-5.6,3.2-10.7,7.3-14.7c2.3-2.3-1.2-5.8-3.5-3.5c-5.1,5-7.9,11.3-8.8,18.3
			C110.9,524.9,115.9,524.9,116.3,521.8L116.3,521.8z"/>
	</g>
</g>
<g>
	<g>
		<path class="st0" d="M115.4,522.3c-3-8.2-9.4-14.8-18-17c-3.1-0.8-4.4,4-1.3,4.8c6.8,1.8,12.1,6.9,14.5,13.5
			C111.7,526.6,116.5,525.4,115.4,522.3L115.4,522.3z"/>
	</g>
</g>
<g>
	<path class="st0" d="M-85.5,369.2c-1-1.5-3-2.8-3.7-4.5c-0.9-2.2-0.4-6-0.5-8.3c-0.1-3.1-1.2-13.1,2.2-15.2
		c1.4-0.9,2.5,0.2,3.9,1.2c2,1.5,2,1.8,1.9,4.6c-0.2,5.2-0.6,10.2-0.1,15.5c3.1-1.5,4.9-7.1,5.9-10.2c0.8-2.6,1.9-11.6,4.3-13
		c2.9-1.6,6.1,3.5,6.3,6.1c0.3,3.2-0.5,8.5,2,11.1c6-6.8,3.2-16.6,6.4-24.5c4.6,1.5,7.1,4.3,6.3,9.2c-0.9,5.7-1.3,11.6-3.2,17.1
		c-1.2,3.5-3.4,8.4-7.5,7.7c-2.8-0.5-5.6-4.8-7.5-7C-72.4,365.2-77.6,373.7-85.5,369.2C-85.7,368.9-84.8,369.6-85.5,369.2z"/>
	<path class="st0" d="M-26.3,352.3c1,3.6-2.5,6.3-5.2,3.9c-1.7-1.5-1.8-3-2-5.2c-1.9,0.6-5.6,2.8-6.5,4.7c-1,2.1,0.1,3.6-1.9,4.9
		c-1.4,0.9-3.1,0.9-4.2,0.1c-0.2-0.2-1.2-3.5-1-3.3c-1.2-2.4-0.1-6.7-0.2-9.4c-0.1-2.5-3-10.3,0.5-12.3c1.9,3.2,4.8,3.2,5.2,7.4
		c0.1,1.2-0.3,5.2,0.9,5.6c0.7,0.3,5.2-2.5,5.8-3.1c2.6-2.5,1.1-4.6,0.6-7.9c-0.1-1-0.9-6.4,1.3-6.7c1.6-0.2,5,5.7,5.5,7
		c1,2.5,1.2,5.5,1.1,8.2C-26.5,347.9-27.9,351.1-26.3,352.3C-26.1,353-26.7,352-26.3,352.3z"/>
	<path class="st0" d="M-5.1,326.3c1.9,3.7-4.8,5.9-7.2,7.2c-0.6,0.3-4.4,2-4.5,2.8c-0.6,2.7,6.5-0.5,7.2-0.7
		c0.4,0.4,2.1,1.2,2.5,1.6c1.6,1.8-0.6,3.8-2.7,5c-1.3,0.7-2.8,0.9-4.1,1.5c-1.9,0.8-1.4-0.4-2.7,1.4c-0.6,0.8-0.6,2.5-0.7,3.4
		c4-0.4,7.1-3.2,10.7-4c1.1-0.2,4.3,1.6,4.6,1.5c-1,5.1-7.5,6.6-11.8,7.9c-5.7,1.7-10.2-1.5-9.4-7.8c0.2-1.9,2.1-4.9,1.5-6.9
		c-0.3-1-2.1-2-2.5-3.4c-0.5-1.8-0.7-2.1,1.1-3.6c1.2-1,14.6-7.2,14.7-7C-7.4,326.1-6.3,326.1-5.1,326.3
		C-5,326.5-5.7,326.2-5.1,326.3z"/>
	<path class="st0" d="M5.1,343.7c0,4.9-3.4,7.7-5.5,2.7c-0.9-2.1-0.7-5-0.9-7.1c-0.2-1.9-1.1-7.8-0.1-9.5c0.3-0.5,1.7,0.2,1.8,0.1
		c0.6-0.7,1-1.7,1.4-2.5c0.8-1.7,1.2-3.8,2.5-5.2c2.2-2.5,5.7-0.9,8,0.8c1.5,1.1,3.7,3.7,4.2,5.6c1.4,5.3-4.7,7.3-7.8,10.1
		c0,1.4,6.9,1.3,7.8,1.2c1.6-0.1,3.8-0.8,5,0.4c0.9,0.8,0.5,2.7,1.3,2.7C20.1,348.4,9.5,345.9,5.1,343.7
		C5.1,344.9,5.7,344,5.1,343.7z M7.2,328.1c-0.8,2.1-2.3,3.7-2.3,6.1c0.9-0.4,5.3-2.6,5.4-3.6C10.4,329.4,8.2,328.1,7.2,328.1
		C7,328.6,7.8,328.1,7.2,328.1z"/>
	<path class="st0" d="M39.1,314.5c1.8,3.7-5,5.9-7.3,7.1c-0.6,0.3-4.4,2-4.5,2.8c-0.6,2.7,6.5-0.5,7.2-0.7c0.4,0.4,2.1,1.2,2.5,1.6
		c1.6,1.8-0.6,3.8-2.7,5c-1.3,0.7-2.8,0.9-4.1,1.5c-1.9,0.8-1.4-0.4-2.7,1.4c-0.6,0.8-0.6,2.5-0.7,3.4c4-0.4,7.1-3.2,10.7-4
		c1.1-0.2,4.3,1.6,4.6,1.5c-1,5.1-7.5,6.6-11.8,7.9c-5.7,1.7-10.2-1.5-9.4-7.8c0.2-1.9,2.1-4.8,1.5-7c-0.9-3-5-3.8-1.3-7
		c1.2-1,14.6-7.2,14.7-7C36.7,314.2,37.8,314.6,39.1,314.5C39.2,314.7,38.5,314.4,39.1,314.5z"/>
	<path class="st0" d="M67.7,328.5c1.6,3.3-2.1,5.1-4.4,3.2c-2.3-2-3.1-5.8-3.5-8.6c-0.5-3.8-0.8-8.6-0.2-12.2c0.2-1.1,0.5-5,2.7-4.8
		c1.2,0.1,2.8,3.9,3.2,4.8C68,315.8,65,323,67.7,328.5z"/>
	<path class="st0" d="M68.9,311.5c0-3.9,8.1-8,11-9.5c3.6-1.9,6.7-3.4,9.8-0.7c3.5,3,1.1,3.9-2.4,4.8c-3.3,0.9-5.8,1.9-8.8,3.4
		c0,0.8,3.3,1.1,3.9,1.3c1.4,0.6,3.2,2,4.2,3.3c2.4,2.9,2.1,5.9,0,9.1c-0.5,0.7-6.7,6.2-6.7,5.6c-2,2-4.3,1.2-5.2-0.9
		c-1.9-4.6,6-5.3,8.2-9.2c2.6-4.5-3.7-3.2-6.6-2.9c-1.9,0.2-4.3,0.8-6-0.4C68.8,314.3,69.6,312.9,68.9,311.5
		C68.9,310.9,69.1,311.9,68.9,311.5z"/>
	<path class="st0" d="M126.2,295c-1.5,0.4-3,1-4.5,1.6c-2.8,1.1-2.9,1.4-3.2,4.4c-0.3,3.1-0.9,6.1-1.3,9.1c-0.2,1.1-0.6,2.6-0.3,3.8
		c0.4,1.5,1.7,1.4,2,2.3c1.8,5-4.3,3-5.9,1c-2.1-2.7-1.6-5.8-1.3-9c0.1-1.2,0.2-6.5,1.2-7.5c-2.3,0-4.6,2.8-7,2.2
		c-1.5-0.3-3.5-2.8-3-4.4c0.4-1.5,3.4-1.6,4.9-2.2c1.8-0.6,3.9-1.8,5.4-2.4c0.3-0.1,1.9-0.4,2.2-0.5c2.7-1.2,8.2-4.4,11.4-3.8
		c1.9,0.4,4.2,2.5,3,4.5C128.8,295.4,126.9,294.7,126.2,295C125.5,295.2,126.4,294.9,126.2,295z"/>
	<path class="st0" d="M148.2,306c1,3.5-2.4,6.3-5.1,3.9c-1.7-1.5-1.8-3-2.1-5.2c-1.9,0.6-5.6,2.8-6.5,4.7c-1,2.1,0.1,3.6-1.9,5
		c-1.5,1-3.1,1-4.5-0.1c-0.2-0.2-1.2-3.5-1-3.3c-1.2-2.4-0.1-6.7-0.2-9.4c-0.1-2.5-3-10.3,0.5-12.3c1.9,3.2,4.8,3.2,5.2,7.4
		c0.1,1.2-0.3,5.2,0.9,5.6c0.7,0.3,5.2-2.5,5.8-3.1c2.6-2.5,1.1-4.6,0.6-7.9c-0.1-1-0.9-6.4,1.3-6.7c1.6-0.2,5,5.7,5.5,7
		c1,2.5,1.2,5.5,1.1,8.2C147.8,302.1,146.6,303.9,148.2,306C148.4,306.7,147.9,305.6,148.2,306z"/>
	<path class="st0" d="M160.6,303.9c1.6,3.3-2.1,5.1-4.4,3.2c-2.3-2-3.1-5.8-3.5-8.6c-0.5-3.8-0.8-8.6-0.2-12.2
		c0.2-1.1,0.5-5,2.8-4.8c1.2,0.1,2.8,3.9,3.2,4.8C160.8,291.2,158,298.3,160.6,303.9C161,304.7,160,302.6,160.6,303.9z"/>
	<path class="st0" d="M161.9,286.8c0-3.9,8.1-8,11-9.5c3.6-1.9,6.7-3.4,9.9-0.7c3.5,3,1.1,3.9-2.4,4.8c-3.3,0.9-5.8,1.9-8.8,3.4
		c0,0.8,3.3,1.1,3.9,1.3c1.4,0.6,3.2,2,4.2,3.3c2.4,2.9,2.1,5.9,0,9.1c-0.5,0.7-6.7,6.2-6.7,5.6c-2.1,2.1-4.2,1.2-5.1-0.9
		c-1.9-4.7,5.7-5.1,8.1-8.8c2.9-4.4-2.7-3.7-5.8-3.4c-1.9,0.2-4.3,1-6,0C162,289.8,162.9,288.8,161.9,286.8
		C161.9,286.2,162.1,287.2,161.9,286.8z"/>
	<path class="st0" d="M202.9,265.5c8.1,8.1-4,14.7-8.3,20.6c-1.8,2.6-5.9,5.2-6.1,0.5c-0.3-5.1,6.1-9.2,8.7-13.1
		c-1.1-1.7-7.8,1.1-9.3,1.6c-1.8,0.6-1.6,1.7-4,0.5c-0.2-0.1-1.6-1.5-1.6-1.7c-0.8-3.9,3.9-6.7,6.8-7.4
		C193.6,265.4,198.3,265.2,202.9,265.5C203.1,265.7,201.3,265.4,202.9,265.5z M193.4,293.2c0.7,2.8,1.9,4.6-1.5,6.3
		c-1.7,0.9-4.1-0.5-4.9-2.4C184.7,292.2,191,292.8,193.4,293.2z"/>
	<path class="st0" d="M-74.7,420.3c-0.5,0-0.3-0.5,0.1-0.5c-0.8-0.5-2.2-3.9-1.4-3.5c-1.1-3.4,0.1-7.6-0.1-11.2
		c-0.1-3-3.4-12.7,0.7-15c1.4,2,4,3,5.2,5c0.9,1.4,0.9,3.5,1.1,5.2c0.1,1-0.2,4.4,0.7,4.9c0.8,0.5,3.2-1.1,4.3-1.7
		c1.3-0.7,4.2-1.7,4.9-3.1c0.9-1.8-0.9-5.4-1.1-7.4c-0.1-1.1-0.2-2.4-0.3-3.6c0-0.9-0.5-5,1.6-5.1c0.6,0,4.1,4.5,4.4,4.8
		c1.4,1.6,2.1,2.8,2.7,5.2c0.6,2.7,0.8,5.5,0.7,8.3c0,1.6-1,3.7-0.9,5.2c0.2,2.6,2.3,3.3,0.6,6.1c-1.2,2-2.8,2.7-4.7,1.9
		c-2.5-1.1-3.2-4.5-3.2-7.1c-2.2,0.9-4.7,2.6-6.3,4.4c-1.5,1.8-1.3,2.9-2.2,5.1c-0.5,1-1.3,3.1-3.3,3.3
		C-71.6,421.5-74.7,421.1-74.7,420.3C-74.8,420.3-74.7,420.4-74.7,420.3z"/>
	<path class="st0" d="M-29.1,385c1.8,3.7-5,5.9-7.3,7.1c-0.6,0.3-4.4,2-4.5,2.8c-0.6,2.7,6.5-0.5,7.2-0.7c0.4,0.4,2.1,1.2,2.5,1.6
		c1.6,1.8-0.6,3.8-2.7,5c-1.3,0.7-2.8,0.9-4.1,1.5c-1.9,0.8-1.4-0.4-2.7,1.4c-0.6,0.8-0.6,2.5-0.7,3.4c4-0.4,7.1-3.2,10.7-4
		c1.1-0.2,4.3,1.6,4.6,1.5c-1,5.1-7.5,6.6-11.8,7.9c-5.7,1.7-10.2-1.5-9.4-7.8c0.2-1.9,2.1-4.8,1.5-6.9c-0.9-3-5-3.8-1.3-7
		c1.2-1,14.6-7.2,14.7-7C-31.4,384.8-30.4,384.7-29.1,385C-29,385.2-29.6,384.9-29.1,385z"/>
	<path class="st0" d="M-13.2,405c-2.6,1.5-5.6,3.8-8.7,2c-2.2-1.3-3.2-4.5-3.4-6.9c-0.3-5,0.8-10.1,1-15.1c0-1-0.3-3,0.3-3.7
		c0.5-0.6,3.6-0.5,4.2-0.2c2.4,1.1,2.2,2.3,2,4.6c-0.4,4.7-1.8,10.1-0.9,14.8c1.5-1.5,6.8-3.3,9-3.5c2.1-0.2,5,0.2,6,2.1
		C-1.3,403.4-10.6,402.9-13.2,405z"/>
	<path class="st0" d="M6.3,373.1c5.2-0.9,10.6,3.1,10.5,8.7c-0.1,6.9-9.1,6.8-12.4,10.7c-1.6,1.9,0.6,4.6-0.3,7.3
		c-0.5,1.6-2.3,3.4-4.3,2.7c-2.9-1.1-2.1-8.2-3.1-9.8c-3.5-1.2,0.7-7.2,1.1-8.7c0.9-2.9,0.1-5.1,2.3-7.7
		C1.8,374.4,3.9,373.6,6.3,373.1z M7.3,383.4c1.2-1,2.8-1.5,3.7-2.8c-2.6-1.3-6.9-0.1-7.7,2.6C2.1,387.1,5.7,384.5,7.3,383.4
		C7.9,382.9,6.7,383.8,7.3,383.4z"/>
	<path class="st0" d="M53.2,366.8c-1.5,0.4-3,1-4.5,1.6c-2.8,1.1-2.9,1.4-3.2,4.4c-0.3,3.1-0.9,6.1-1.3,9.2
		c-0.2,1.1-0.6,2.6-0.3,3.8c0.4,1.5,1.7,1.4,2,2.3c1.8,5-4.3,3-5.9,1c-2.1-2.7-1.6-5.8-1.3-9c0.1-1.2,0.2-6.5,1.2-7.5
		c-2.2,0-4.6,2.7-7,2.1c-1.5-0.4-3.5-2.8-3.1-4.4c0.4-1.5,3.4-1.6,4.9-2.2c1.8-0.6,3.9-1.8,5.4-2.4c0.3-0.1,1.9-0.4,2.2-0.5
		c2.7-1.2,8.2-4.4,11.4-3.8c1.9,0.4,4.2,2.5,3,4.4C55.8,367.1,53.9,366.4,53.2,366.8C52.5,367,53.4,366.7,53.2,366.8z"/>
	<path class="st0" d="M75.2,377.8c1,3.5-2.4,6.3-5.1,3.9c-1.7-1.5-1.8-3-2.1-5.2c-1.9,0.6-5.6,2.8-6.5,4.7c-1,2.1,0.1,3.6-1.9,4.9
		c-1.5,1-3.1,1-4.5-0.1c-0.2-0.2-1.2-3.5-1-3.3c-1.2-2.4-0.1-6.7-0.2-9.4c-0.1-2.5-3-10.3,0.5-12.3c1.9,3.2,4.8,3.2,5.2,7.4
		c0.1,1.2-0.3,5.2,0.9,5.6c0.7,0.3,5.2-2.5,5.8-3.1c2.6-2.5,1.1-4.6,0.6-7.9c-0.1-1-0.9-6.4,1.3-6.7c1.6-0.2,5,5.7,5.5,7
		c1,2.5,1.2,5.5,1.1,8.2C74.8,373.9,73.6,375.7,75.2,377.8C75.4,378.5,74.9,377.4,75.2,377.8z"/>
	<path class="st0" d="M96.4,351.7c1.9,3.7-4.8,5.9-7.2,7.1c-0.6,0.3-4.4,2-4.5,2.8c-0.6,2.7,6.5-0.5,7.2-0.7
		c0.4,0.4,2.1,1.2,2.5,1.6c1.6,1.8-0.6,3.8-2.7,5c-1.3,0.7-2.8,0.9-4.1,1.5c-1.9,0.8-1.4-0.4-2.7,1.4c-0.6,0.8-0.6,2.5-0.7,3.4
		c4-0.4,7.1-3.2,10.7-4c1.1-0.2,4.3,1.6,4.6,1.5c-1,5.1-7.5,6.6-11.8,7.9c-5.7,1.7-10.2-1.5-9.4-7.8c0.2-1.9,2.1-4.9,1.5-7
		c-0.3-1-2.1-2-2.5-3.4c-0.5-1.8-0.7-2.1,1.1-3.6c1.2-1,14.6-7.2,14.7-7C94.1,351.5,95.1,351.4,96.4,351.7
		C96.5,351.9,95.9,351.6,96.4,351.7z"/>
	<path class="st0" d="M123.5,365.1c-0.4,0.6-1.1,4.2-1.1,4.3c-2.2,0-2.2,0.8-4.4-0.9c-0.9-0.7-3-3.1-2.4-3.7
		c-2.3-2.3-0.2-6.7,0.3-9.6c0.8-4.3,1.6-8.6,2.4-12.9c0.1-0.7,0.2-1.4,0.4-2.1c-0.4-1.9,0.1-2.6,1.6-1.9c0.9-0.2,2.8,0.6,3.6,1
		c1.8,0.9,3,2,3,3.6c0.5,0.2,0.2,0.8,0.6,1.2c-1.8,0,1.5,11.6,2.1,12.8c6.2-6.2-0.2-14.6,2.7-21.3c1-2.2,1.8-1.2,4-0.3
		c1.3,0.6,2.7,0.6,3.5,2.2c1.1,2,0,5.1,0,7.2c0,5.8,1.3,10.5-0.9,16c-0.5,1.3-1.9,4.5-4.4,4.8c-3.5,0.5-7.9-3.6-9.5-6.3
		C124.2,359.7,122.9,364.3,123.5,365.1C123.3,365.4,123.3,364.8,123.5,365.1z"/>
	<path class="st0" d="M152.3,363c-10.6,1.3-1.9-10.6-3.1-14.5c-0.3-0.9-3.3-3.1-4-4.2c-0.6-0.9-1-1.8-1.5-2.7
		c-0.9-1.7-2.3-4.5-2.6-6.4c-0.8-5,3.1-4.4,5.9-2c1.6,1.3,3.5,5.4,3.9,7.6c3.2-3.2,2.6-8.8,5.8-12.3c1-1.1,2.2-1.8,3.2-1.7
		c0.5,0,3.1,1.5,3.5,2.1c1.5,2.4-1.1,4.9-2,7.1c-1.4,3.3-2.7,6.5-3.8,10.1c-1.2,3.9-2.6,7.7-3.6,11.7
		C153.6,359.4,153.6,362.1,152.3,363z"/>
	<path class="st0" d="M165.3,345.7c0-0.2,0.2-0.3,0.4-0.3c-2.8-1.9-0.9-6.6,0-8.9c0.4-1,0.9-1.8,1.1-3.2c0.3-1.7,0.4-3.4,1.2-4.9
		c3.8-7.2,14.7-8.7,19.3-1.9c2.8,4.1,3.2,8.2-0.4,11.8c-1.8,1.8-4,3.1-6.1,4.3c-1.5,0.8-5.2,1.8-6.2,3.1c-1.6,2.2,2,7.5-0.4,10.5
		c-1.1,1.4-3.8,1.3-5,0.7c-1.4-0.8-2-2.9-2.4-4.1c0.1,0.1,0.3,0.1,0.5,0.1C166.8,351.2,167.9,346.1,165.3,345.7
		C165.3,345.6,165.9,345.8,165.3,345.7z M173.4,333.3c0,2.7-1.2,3.1,1.4,2.8c2.1-0.2,6.8-3.3,7.7-5
		C179.9,329.6,175,330.8,173.4,333.3C173.4,333.6,173.9,332.5,173.4,333.3z"/>
	<path class="st0" d="M195.3,348.5c-4-4-4-8.4-3.6-13.7c0.2-2.6-0.1-15.7,1.6-16.6c0.6-0.3,4.5-0.1,5.2,0.2c2.9,1.3,2.3,3.4,1.9,6.1
		c-0.6,5-2.1,12-0.9,16.9c2.9-2,8.6-4.3,12.2-4.2c2.1,0,7.5,1.2,6.8,4.5c-0.6,2.8-8.6,3.3-11.2,4.4
		C203.9,347.7,198.9,352.1,195.3,348.5z"/>
	<path class="st0" d="M263.6,331.2c-3,3-4.5-3.3-4.8-5.4c-0.2-1.6,0.7-5.9-0.9-5.7c-0.5,0.1-2.6,3-3,3.5c-1.4,1.5-3,3-4.9,3.8
		c-3.1,1.3-5.7,0.4-7.9-2.1c-0.9,2.5-0.9,18.7-6,12.7c-2.9-3.3-1.5-8.2-1-12c0.4-3,0.9-11.8,3.7-13.9c1.9-1.4,6.1,0.7,7.3,2.9
		c1.6,2.9,1.1,6.6,5.2,2.4c2.8-2.8,4.5-11.1,8.7-9.8c2.1,0.6,3,2.8,4.4,4.2l-0.8,0.1c1.2,2.6,1.2,6.9,1.5,9.7
		C265.4,324.6,265.8,329,263.6,331.2z"/>
	<path class="st0" d="M290.4,321.2c0,3-2.9,6.2-5.8,4.8c-0.6-0.3-1.5-1.9-2.5-2.6c1.4-0.7,2.6-1.4,2.1-3.3c-3.6,0-7,5.1-8.8-0.2
		c-0.6,2.4-0.3,6.3-1.4,8.3c-1.9,3.3-3.8,0.7-6-0.8c1.9-3.4,1.6-10,2.4-13.8c0.5-2.4,0.9-4.7,2.4-6.5c0.4-0.5,1.4-0.6,1.9-1.2
		c0.9-1,1-3.3,1.9-4c0.6-0.5,3.3-0.6,4.3-0.1c2.2,1,3.2,5.8,4.4,8c1.7,3.2,1.5,1.3,3.2,1.9c1,0.4,2.1,0.9,3.2,1.2
		c-0.3,1.4-2.3,3.2-2.3,4.2C289.3,318.5,290.7,319.6,290.4,321.2z M276.6,317.2c1.5-0.5,2.9-1.1,4.3-1.7c-0.8-1.7-1.8-3.3-2.7-4.9
		c-0.8,2.3-1.8,4.6-2.6,6.9C275.9,317.3,276.2,317.2,276.6,317.2C277.4,316.9,276.5,317.3,276.6,317.2z"/>
	<path class="st0" d="M302.7,294.4c5.2-0.9,10.6,3.1,10.5,8.7c-0.1,6.9-9.1,6.8-12.4,10.7c-1.6,1.8,0.6,4.6-0.3,7.3
		c-0.5,1.6-2.3,3.4-4.3,2.7c-2.9-1.1-2.1-8.2-3.1-9.8c-3.5-1.2,0.7-7.2,1.1-8.7c0.9-2.9,0.1-5.1,2.3-7.7
		C298,295.9,300.4,294.4,302.7,294.4C303.9,294.2,302.6,294.4,302.7,294.4z M303.6,304.6c1.2-1,2.8-1.5,3.7-2.8
		c-2.6-1.3-6.9-0.1-7.8,2.6C298.4,308.2,302.1,305.8,303.6,304.6z"/>
	<path class="st0" d="M-54,465.7c1.6,3.3-2.1,5.1-4.4,3.2c-2.3-2-3.1-5.8-3.5-8.6c-0.5-3.8-0.8-8.6-0.2-12.2c0.2-1.1,0.5-5,2.8-4.8
		c1.2,0.1,2.8,3.9,3.2,4.8C-53.8,453-56.6,460.2-54,465.7C-53.6,466.5-54.6,464.4-54,465.7z"/>
	<path class="st0" d="M-30.4,441.4c-1.5,0.4-3,1-4.5,1.6c-2.8,1.1-2.9,1.4-3.2,4.4c-0.3,3.1-0.9,6.1-1.3,9.1
		c-0.2,1.1-0.6,2.6-0.3,3.8c0.4,1.5,1.7,1.4,2,2.3c1.8,5-4.3,3-5.9,1c-2.1-2.7-1.6-5.8-1.4-9c0.1-1.2,0.2-6.5,1.2-7.5
		c-2.3,0-4.6,2.8-7,2.3c-1.5-0.3-3.5-2.8-3.1-4.4c0.4-1.5,3.4-1.6,4.9-2.2c1.8-0.6,3.9-1.8,5.4-2.4c0.3-0.1,1.9-0.4,2.1-0.5
		c2.7-1.2,8.2-4.4,11.3-3.8c1.9,0.4,4.2,2.5,3,4.5C-27.7,441.6-30.2,441.2-30.4,441.4C-31.1,441.6-30.3,441.3-30.4,441.4z"/>
	<path class="st0" d="M-32.6,443.3c0-3.9,8.1-8,11-9.5c3.6-1.9,6.7-3.4,9.8-0.7c3.5,3,1.1,3.9-2.3,4.8c-3.3,0.9-5.8,1.9-8.8,3.4
		c0,0.8,3.3,1.1,3.8,1.3c1.4,0.6,3.2,2,4.3,3.3c2.4,2.9,2.1,5.9,0,9.1c-0.5,0.7-6.7,6.2-6.7,5.6c-1.7,2.5-4.4,0.9-5.1-0.9
		c-1.9-4.7,5.7-5.1,8.1-8.8c2.9-4.4-2.7-3.7-5.8-3.4C-29.4,448-31.3,448.3-32.6,443.3C-32.6,442.7-32.5,443.7-32.6,443.3z"/>
	<path class="st0" d="M23.6,448.2c-4.5,1.1-8.7,2.8-13.3,1.2c-4.5-1.6-8-6.8-6.4-11.6c1.5-4.5,4.7-7.4,8-10.6
		c0.5-0.5,5.7-4.9,5.7-3.7c1.2,0,4,1.9,4.2,3.6c0.2,2.2-2.2,3.4-3.6,4.4c-2.3,1.6-4.4,3.5-6.2,5.6c-0.9,1.1-3.1,4.1-2.7,5.6
		c0.8,2.8,4.2,1.8,6.3,1.5c2.5-0.4,5.9-2,8.1-1C26.8,444.6,25.2,446.2,23.6,448.2C23.2,448.3,24,447.7,23.6,448.2z"/>
	<path class="st0" d="M48.8,428.3c1.2,3.7,3.6,5.5,0.7,9.4c-2,2.7-6.4,5.4-9.6,6.6c-3.8,1.4-8.7,2.3-11.7-1.3
		c-3.6-4.2-1.2-11,1.2-15.2c1-1.8,2.6-3.6,3.9-5.4c0.6-0.8,0.8-1.3,1.5-2.1c0.5-0.6,2.2-3.4,2.9-3.6c1.3-0.4,4.8,1.5,5.4,2.5
		c0.6,1,0.2,1.9,0.6,2.8C44.7,423.9,47,426.7,48.8,428.3C48.9,428.6,47.8,427.4,48.8,428.3z M44.7,433.5c0-3.2-2.2-5.1-4.8-7.4
		c0,0.9-2.3,1.2-2.8,1.6c-1.9,1.7-3,4.2-3.8,6.4c-0.3,0.8-1.8,4-0.9,4.9c0.9,0.9,2.8,0.1,3.8-0.2C39.5,437.9,42.2,435.7,44.7,433.5
		C44.7,433.2,43.9,434.2,44.7,433.5z"/>
	<path class="st0" d="M65.2,436.6c-2.6,1.5-5.6,3.8-8.7,2.1c-2.2-1.3-3.2-4.5-3.4-6.9c-0.3-5,0.8-10.1,1-15.1c0-1-0.3-3,0.3-3.7
		c0.5-0.6,3.6-0.5,4.2-0.2c2.4,1.1,2.2,2.3,2,4.6c-0.4,4.7-1.8,10.1-0.9,14.8c1.5-1.5,6.8-3.3,9-3.5c2.1-0.2,5,0.2,6,2.1
		C77.1,435,67.8,434.5,65.2,436.6z"/>
	<path class="st0" d="M87.6,430.6c-2.6,1.5-5.6,3.8-8.7,2.1c-2.2-1.3-3.2-4.5-3.4-6.9c-0.3-5,0.8-10.1,1-15.1c0-1-0.3-3,0.3-3.7
		c0.5-0.6,3.6-0.5,4.2-0.2c2.4,1.1,2.2,2.3,2,4.6c-0.4,4.7-1.8,10.1-0.9,14.8c1.5-1.5,6.8-3.3,9-3.5c2.1-0.2,5,0.2,6,2.1
		C99.5,429,90.2,428.5,87.6,430.6z"/>
	<path class="st0" d="M116,398.9c1.9,3.7-4.8,5.9-7.2,7.1c-0.6,0.3-4.4,2-4.5,2.8c-0.6,2.7,6.5-0.5,7.2-0.7c0.4,0.4,2.1,1.2,2.5,1.6
		c1.6,1.8-0.6,3.8-2.7,5c-1.3,0.7-2.8,0.9-4.1,1.5c-1.9,0.8-1.4-0.4-2.7,1.4c-0.6,0.8-0.6,2.5-0.7,3.4c4-0.4,7.1-3.2,10.7-4
		c1.1-0.2,4.3,1.6,4.6,1.5c-1,5.1-7.5,6.6-11.8,7.9c-5.7,1.7-10.2-1.5-9.4-7.8c0.2-1.9,2.1-4.9,1.5-6.9c-0.3-1-2.1-2-2.5-3.4
		c-0.5-1.8-0.7-2.1,1.1-3.6c1.2-1,14.6-7.2,14.7-7C113.7,398.7,114.7,398.7,116,398.9C116.1,399.1,115.4,398.8,116,398.9z"/>
	<path class="st0" d="M137.8,417.9c-4.5,1.1-8.7,2.8-13.3,1.2c-4.5-1.6-8-6.8-6.4-11.6c1.5-4.5,4.7-7.4,8-10.6
		c0.5-0.5,5.7-4.9,5.7-3.7c1.2,0,4,1.9,4.2,3.6c0.2,2.2-2.2,3.4-3.6,4.4c-2.3,1.6-4.4,3.5-6.2,5.6c-0.9,1-3.1,4-2.7,5.5
		c0.8,2.8,4.2,1.8,6.3,1.5c2.5-0.4,5.9-2,8.1-1C141,414.2,139.4,415.9,137.8,417.9C137.4,418,138.2,417.4,137.8,417.9z"/>
	<path class="st0" d="M160.4,390.7c-1.5,0.4-3,1-4.5,1.6c-2.8,1.1-2.9,1.4-3.2,4.4c-0.3,3.1-0.9,6.1-1.3,9.1
		c-0.2,1.1-0.6,2.6-0.3,3.8c0.4,1.5,1.7,1.4,2,2.3c1.8,5-4.3,3-5.9,1c-2.1-2.7-1.6-5.8-1.3-9c0.1-1.2,0.2-6.5,1.2-7.5
		c-2.3,0-4.6,2.8-7,2.3c-1.5-0.3-3.5-2.8-3.1-4.4c0.4-1.5,3.4-1.6,4.9-2.2c1.8-0.6,3.9-1.8,5.4-2.4c0.3-0.1,1.9-0.4,2.2-0.5
		c2.7-1.2,8.2-4.4,11.4-3.8C165.9,386.4,164.2,390.7,160.4,390.7C159.7,390.9,160.5,390.7,160.4,390.7z"/>
	<path class="st0" d="M170.3,406.1c1.6,3.3-2.1,5.1-4.4,3.2c-2.3-2-3.1-5.8-3.5-8.6c-0.5-3.8-0.8-8.6-0.2-12.2
		c0.2-1.1,0.5-5,2.8-4.8c1.2,0.1,2.8,3.9,3.2,4.8C170.5,393.4,167.7,400.5,170.3,406.1C170.7,406.9,169.7,404.8,170.3,406.1z"/>
	<path class="st0" d="M195.6,389.3c1.2,3.7,3.6,5.5,0.7,9.4c-2,2.7-6.4,5.4-9.6,6.6c-3.8,1.4-8.7,2.3-11.7-1.3
		c-3.6-4.2-1.2-11,1.2-15.2c1-1.8,2.5-3.6,3.8-5.4c0.6-0.8,0.8-1.3,1.5-2.1c0.5-0.6,2.2-3.4,2.9-3.6c1.3-0.4,4.8,1.5,5.4,2.5
		c0.6,1,0.2,1.9,0.6,2.8C191.4,385,193.8,387.5,195.6,389.3C195.7,389.6,194.7,388.4,195.6,389.3z M191.6,394.5
		c0-3.2-2.2-5.1-4.8-7.4c0,0.9-2.3,1.2-2.8,1.6c-1.9,1.7-3,4.2-3.8,6.4c-0.3,0.8-1.8,4-0.9,4.9c0.9,0.9,2.8,0.1,3.8-0.2
		C186.4,398.9,189.1,396.7,191.6,394.5C191.6,394.2,190.8,395.2,191.6,394.5z"/>
	<path class="st0" d="M207.8,391.2c-0.9,0.5-2,8.6-2,8.6c-8.6,0-6.2-8.8-5-14.6c0.5-2.5,1-4.9,1.4-7.4c0.5-2.7-0.4-4.1,2.9-3.9
		c0.7,0,6,2.2,4.6,3.6c0.7,0.7,0.3,2.2,0.3,3.4c-0.1,2.3,0.6,5.6,1.8,8.4c4.9-4.9,0.9-13,2.4-18.9c1.9-0.5,5.9,1.6,6.4,3.4
		c0.5,1.7-0.5,4.4-0.3,6.1c0.3,2.8,2,10.9-1.2,12.5c1,1-2.1,3.7-2.9,3.9C213.2,397,209.4,393.3,207.8,391.2
		C207.6,391.3,208.8,392.5,207.8,391.2z"/>
	<path class="st0" d="M228.9,363.4c1.7,3.5,1.5,10.3,1.5,14.3c0,2.5,0.2,5.5-2.8,5.8c-3.4,0.4-3.1-3-3.5-5.4
		c-0.5-3.2-0.4-6.6-0.5-9.7c-0.1-2-0.7-4.6,0.8-6.2C226.7,359.9,226.5,362.8,228.9,363.4C229,363.6,228.5,363.3,228.9,363.4z
		 M231,387.8c0.8,1.7,0.7,5.1-0.9,6.2c-3.1,2.1-5.4-1.6-6.3-3.3c1-1,1.3-2.9,2.1-3.4C226.8,386.7,230.1,387.3,231,387.8z"/>
</g>
</svg>
