<?xml version="1.0" encoding="utf-8"?>
<!-- Generator: Adobe Illustrator 19.1.0, SVG Export Plug-In . SVG Version: 6.00 Build 0)  -->
<svg version="1.1" id="Layer_1" xmlns="http://www.w3.org/2000/svg" xmlns:xlink="http://www.w3.org/1999/xlink" x="0px" y="0px"
	 viewBox="-128.5 212.7 280.5 283.3" style="enable-background:new -128.5 212.7 280.5 283.3;" xml:space="preserve">
<style type="text/css">
	.st0{opacity:0.7;fill:#FFFFFF;}
	.st1{fill:#F15822;}
</style>
<path class="st0" d="M144,373.9l-7.3-38.8l-33,6.2l-6.4-38.1l42.9-6.7l-5.9-37.8l6-1l-6.5-39L-122,261.3l6.5,39l3.1-0.5l5.6,35.4
	l30.7-4.8l7.2,43.2l-38.8,7.3l7.3,38.8l89.1-16.7c4.5,7.1,25.3,42.1,29.1,88.7c14.5-2.8,29.6-5.6,41.4-8.3
	C59,430.5,37,402,30.8,395.1L144,373.9z"/>
<g>
	<g>
		<g>
			<path class="st1" d="M13.6,416.2c15.5,15.1,19.2,36.9,21.9,57.5c0.4,3.1,5.4,3.2,5,0c-2.9-21.9-6.8-44.9-23.4-61
				C14.8,410.4,11.3,413.9,13.6,416.2L13.6,416.2z"/>
		</g>
	</g>
	<g>
		<g>
			<path class="st1" d="M42.1,477.5c0.7-5.6,3.2-10.7,7.3-14.7c2.3-2.3-1.2-5.8-3.5-3.5c-5.1,5-7.9,11.3-8.8,18.3
				C36.7,480.6,41.7,480.6,42.1,477.5L42.1,477.5z"/>
		</g>
	</g>
	<g>
		<g>
			<path class="st1" d="M41.2,478c-3-8.2-9.4-14.8-18-17c-3.1-0.8-4.4,4-1.3,4.8c6.8,1.8,12.1,6.9,14.5,13.5
				C37.5,482.3,42.3,481.1,41.2,478L41.2,478z"/>
		</g>
	</g>
</g>
<g>
	<path class="st1" d="M-100.7,287.5c-2.5-3.8-4.9-19,1.2-21.1c0.9,0.9,2.4,1.8,3.5,2.4c-0.2,4.8-1.6,9.3-1.4,14.2
		c5.8-2.7,5.7-12.4,9.4-16.8c2.7,2,3.4,1.8,3.9,5.1c0.4,2.4-1.3,6.3,0.8,8.3c5-4.5,3.5-12.1,6.4-17.6c6.8,2.9,3.5,10.2,1.8,15.6
		c-1.5,4.8-4,6.2-6.6,9.3c-2.7-0.7-4.3-3.8-6-5.9C-90.9,285-95.4,291.6-100.7,287.5C-100.8,287.3-100.2,287.9-100.7,287.5z"/>
	<path class="st1" d="M-55.8,279.3c0.5,2.1-1.6,4.1-3.5,3.3c-1.8-0.8-1.3-3.1-1.6-4.6c-1.6,0.4-4.1,1.7-5,3.1
		c-0.3,0.5,0,2.3-0.9,2.4c0.1,0.1,0.2,0.3,0.2,0.4c-2.6,1.3-2.8,0.5-4.2-0.1c-0.3-0.3-1.1-2.5-0.7-2.2c-0.9-2.2,1.6-5.4,0.4-7.5
		c0-0.1,0.1-0.2,0.3-0.1c0-2.2-1.5-7.1,1.2-8.4c1.7,3.6,4.5,5.4,3.5,10c2-0.8,4.1-1.4,5.9-2.7c0-0.9-0.9-5.1,0.1-5.6
		c-0.6-1.3-0.6-3.7,1-4.3c2.9,3.1,4,5.7,3.8,9.9C-55.4,274.2-56.7,278.2-55.8,279.3C-55.7,279.8-56,279-55.8,279.3z"/>
	<path class="st1" d="M-38.3,261.6c0.1,0.4,0,0.7,0.2,1c-1.3,3.2-6.7,3.9-9.5,5.4c0.1,0.3,0.2,0.7,0.4,1c1.7-0.3,3.3-0.6,5-1
		c0,0.1,0,0.3,0,0.4c0.6,0.3,1.3,1.2,2.1,1c1.9,2.6-5.6,4.5-7.5,4.2c-0.5,1-0.9,2.1-1.1,3.2c2.7,0,7.1-2.9,9.4-2.2
		c0.5,0.1,1.8,1.7,2.1,1.6c-1.1,4.1-12,7.2-14.9,3.9c-2.5-2.9,0.2-7.3,0.7-10.3c-1.3-0.8-1.3-2.4-1.9-3.7c1.5-3.4,9.6-4.8,12.6-5.3
		c0.2-0.1,0.3-0.2,0.4-0.4C-39.8,261-39.1,261.4-38.3,261.6C-38.2,261.7-38.7,261.5-38.3,261.6z"/>
	<path class="st1" d="M-32,275.2c-0.3,3.3-0.7,3.4-3,3.8c0-0.4-0.3-0.6-0.7-0.5c0.1-0.9-0.6-5.2-1-5.8c-0.3-0.2,0.5-7.3,0.7-8.1
		c0.5-0.2,0.9-0.1,1.3,0.2c2.5-2.7,2.5-7,6.8-5.8c1.3,0.4,2.8,1.9,3.5,3c3.4,5.1-0.3,7-4.9,9.9c0.4,2.4,12.1,0.2,9.7,4.2
		c0.1,0.1,0.3,0.1,0.4,0C-22.5,279.2-28.2,277.6-32,275.2C-32.1,276-31.5,275.4-32,275.2z M-29.3,263.8c-0.7,1.5-2,2.5-2.1,4.3
		c1.5-0.6,2.9-1.3,4.2-2.3C-27.5,264.7-28.2,264-29.3,263.8C-29.5,264.1-28.9,263.8-29.3,263.8z"/>
	<path class="st1" d="M-4.8,256c0.1,0.4,0,0.7,0.2,1c-1.3,3.2-6.7,3.9-9.5,5.4c0.1,0.3,0.2,0.7,0.4,1c1.7-0.3,3.3-0.6,5-1
		c0,0.1,0,0.3,0,0.4c0.6,0.3,1.3,1.2,2.1,1c1.9,2.6-5.6,4.5-7.5,4.2c-0.5,1-0.9,2.1-1.1,3.2c2.7,0,7.1-2.9,9.4-2.2
		c0.5,0.1,1.8,1.7,2.1,1.6c-1.1,4.1-12,7.2-14.9,3.9c-2.5-2.9,0.2-7.3,0.7-10.3c-1.3-0.8-1.3-2.4-1.9-3.7c1.5-3.4,9.6-4.8,12.6-5.3
		c0.2-0.1,0.3-0.2,0.4-0.4C-6.4,255.5-5.7,255.9-4.8,256C-4.8,256.2-5.2,255.9-4.8,256z"/>
	<path class="st1" d="M15.3,268.4c0.7,2.1-0.9,3-2.7,3c-2.8-2.8-5.3-19,0.2-19.9c0.9,0.8,1.7,4.6,2.6,4.7
		C14.6,260.2,13.9,264.5,15.3,268.4C15.5,269,14.9,267.4,15.3,268.4z"/>
	<path class="st1" d="M17.4,256c0.7-4.5,11.4-7.9,15.2-7.4c0.5,1.1,2.5,2.1,2.4,3.4c-1.5,1.7-7.7,2.4-10.3,3.1
		c0,0.1,4.3,2.6,4.8,3.2c1.2,1.4,2.1,2.1,1.9,4.3c-0.3,3.5-6.8,5.5-7.1,6.8c-1.5,1.8-2.8-0.5-3.6-0.4c0.3-0.8-0.7-2-0.1-3.1
		c0.5-0.8,8.6-2.4,7.4-5.3c-0.9-1.9-6.4-0.4-7.9-0.9C17.6,258.8,18.2,258.4,17.4,256C17.5,255.5,17.5,256.2,17.4,256z"/>
	<path class="st1" d="M60.9,247.8c-5.3,0.9-5.6,2-6.8,6.8c-0.4,1.6-1.5,3.9-1.4,5.6c0.1,2.1,2.1,7.3-2.5,4.3
		c-0.4-2.6-1.5-3.8-1.2-6.9c0.2-2.3,1-4.5,1.5-6.8c-3,0.5-8.5,2.7-7.4-3c2.7-0.4,5.3-1.1,7.9-1.8c0.5-2,15-4.5,12.1,1.1
		C62.4,247.4,61.7,247.7,60.9,247.8C60.4,247.9,61,247.8,60.9,247.8z"/>
	<path class="st1" d="M76.3,257.5c0.5,2.1-1.6,4.1-3.5,3.3c-1.8-0.8-1.4-3.1-1.6-4.6c-1.6,0.4-4.1,1.7-5,3.1c-0.3,0.5,0,2.3-0.9,2.4
		c0.1,0.1,0.2,0.3,0.2,0.4c-2.6,1.3-2.8,0.5-4.2-0.1c-0.3-0.3-1.1-2.5-0.7-2.2c-0.9-2.2,1.6-5.3,0.4-7.5c0-0.1,0.1-0.2,0.3-0.1
		c0-2.2-1.5-7.1,1.2-8.4c1.7,3.6,4.5,5.4,3.5,10c2-0.8,4.1-1.4,5.9-2.7c0-0.9-0.9-5.1,0.1-5.6c-0.6-1.3-0.6-3.7,1-4.3
		c2.9,3.1,4,5.7,3.8,9.9C76.7,252.4,75.5,256.4,76.3,257.5C76.5,258,76.1,257.2,76.3,257.5z"/>
	<path class="st1" d="M85.7,256.8c0.7,2.1-0.9,3-2.7,3c-2.8-2.8-5.3-19,0.2-19.9c0.9,0.8,1.7,4.5,2.6,4.7
		C84.9,248.6,84.2,252.9,85.7,256.8C85.9,257.4,85.3,255.8,85.7,256.8z"/>
	<path class="st1" d="M87.8,244.3c0.7-4.5,11.4-7.9,15.2-7.4c0.5,1.1,2.5,2.1,2.4,3.4c-1.5,1.7-7.7,2.4-10.3,3.1
		c0,0.1,4.3,2.6,4.8,3.2c1.2,1.4,2.1,2.1,1.9,4.3c-0.3,3.5-6.8,5.5-7.1,6.8c-1.5,1.8-2.8-0.5-3.6-0.4c0.3-0.8-0.7-2-0.1-3.1
		c0.5-0.8,8.6-2.4,7.4-5.3c-0.9-1.9-6.4-0.4-7.9-0.9C88,247.2,88.6,246.7,87.8,244.3C87.9,243.9,87.9,244.6,87.8,244.3z"/>
	<path class="st1" d="M119.6,231.5c5.5,4.6-4.2,12.5-8,15c-2.2,1.4-4.5,2.6-4.1-1.2c0.4-3.2,5.3-6,7.3-8.3c-0.8-1.3-5.3,0.1-6.7,0.2
		c-2.1,0.1-1.2,0.9-3.9,0.1c-0.2-0.5,0.2-0.7-0.5-1.1C104.3,229.1,115,230.9,119.6,231.5C119.7,231.6,118.4,231.3,119.6,231.5z
		 M110.6,251.3c0,1,0.2,1.9,0.6,2.9c-2.7,2.8-5.6,1.6-5.7-1.9c0.6-2.1,2.7-2,4.4-1.5l0,0.5L110.6,251.3z"/>
</g>
<g>
	<path class="st1" d="M-98.7,323.9c-0.2,0.1-0.3-0.6,0.1-0.4c-0.4-0.4-1.3-3-0.8-2.6c-0.4-1.2,1-9.2,0.9-9.2c0-2.6-1.7-8.6,1.6-10
		c0.8,1.8,3,2.7,3.8,4.4c0.8,1.7,0.2,5.2,0,7.1c0.2,0.1,0.4,0.3,0.4,0.5c2.4-1,5-1.6,7.1-3.1c0-1.1-1.1-6.2,0.2-6.7
		c-0.7-1.6-0.8-4.4,1.2-5.2c4.9,5.2,4.3,9.6,3.9,16.4c-0.2,3.5,0.3,7.6-4.3,7.1l0.1-0.3c-2.4-1.7-1.5-2.9-1.9-5.2
		c-1.9,0.5-4.9,2-6.1,3.6c-0.4,0.5,0,2.8-1.1,2.9c0.2,0.1,0.2,0.3,0.2,0.5C-94.4,324-98.3,326.2-98.7,323.9
		C-98.7,323.9-98.7,324-98.7,323.9z"/>
	<path class="st1" d="M-62.2,301.4c0.1,0.4,0,0.7,0.2,1.1c-1.4,3.2-6.8,3.8-9.6,5.3c0.1,0.3,0.2,0.7,0.4,1c1.7-0.2,3.3-0.6,5-1
		c0,0.1,0,0.3,0,0.4c0.6,0.3,1.3,1.2,2.1,1c1.9,2.7-5.7,4.5-7.5,4.2c-0.5,1-0.9,2.1-1.2,3.2c2.7,0,7.2-2.8,9.4-2.1
		c0.5,0.2,1.8,1.7,2.1,1.6c-1.2,4.1-12.1,7.1-14.9,3.8c-2.5-2.9,0.3-7.3,0.8-10.3c-1.3-0.9-1.3-2.4-1.9-3.7
		c1.6-3.4,9.6-4.7,12.7-5.2c0.2-0.1,0.3-0.2,0.4-0.4C-63.8,300.9-63.1,301.3-62.2,301.4C-62.2,301.6-62.6,301.3-62.2,301.4z"/>
	<path class="st1" d="M-52.1,317.4c-5,2.5-8.2,1-8.6-4.5c-0.2-2.5,1.2-12.9,2.4-13.7c7.1-4.7,2.3,13,2.4,14.5
		c2.6-1.5,11.6-3.7,11.7,1.6C-46.7,316.3-49.5,316.4-52.1,317.4z"/>
	<path class="st1" d="M-35.2,295.4c4.4-0.2,8.8,4.4,6.5,8.9c-1.6,3.1-7.3,4.4-10.1,5.5c0.8,3.8,0.6,6.4-3.3,6.7
		c0-0.6-1.7-7.2-1.9-7.3c0.1-0.1,0.2-0.1,0.3-0.1c-0.2-0.1-1.2-1.5-0.4-1.5c-0.5-1.4,0.3-2.7,0.9-4c1.4-0.4,1.4-4.1,2.4-5.4
		C-39.4,296.4-37.2,295.7-35.2,295.4C-34.3,295.4-35.3,295.4-35.2,295.4z M-35.3,303c1.1-0.4,2.1-1,2.9-1.8
		c-2.7-1.8-5.5,0.1-6.2,2.6c0.2,0.1,0.3,0.3,0.5,0.4C-37.2,303.9-36.3,303.4-35.3,303C-34.8,302.7-35.8,303.4-35.3,303z"/>
	<path class="st1" d="M-0.1,294.4c-5.3,0.8-5.6,2-6.8,6.7c-0.4,1.6-1.5,3.8-1.4,5.6c0.1,2.1,2,7.3-2.5,4.3c-0.4-2.6-1.5-3.8-1.1-6.9
		c0.3-2.3,1.1-4.5,1.6-6.8c-3,0.5-8.5,2.6-7.4-3.1c2.7-0.3,5.3-1,7.9-1.7c0.5-2,15.1-4.3,12.1,1.2C1.4,294,0.7,294.3-0.1,294.4
		C-0.6,294.5,0,294.4-0.1,294.4z"/>
	<path class="st1" d="M15.2,304.2c0.5,2.1-1.6,4.1-3.6,3.3c-1.8-0.8-1.3-3.1-1.5-4.6c-1.6,0.4-4.1,1.7-5.1,3c-0.4,0.5,0,2.3-0.9,2.4
		c0.1,0.1,0.2,0.3,0.2,0.4c-2.7,1.2-2.8,0.4-4.2-0.1c-0.3-0.3-1.1-2.5-0.7-2.2c-0.9-2.2,1.7-5.3,0.5-7.5c0-0.1,0.1-0.2,0.3-0.1
		c0.1-2.2-1.4-7.1,1.3-8.4c1.7,3.6,4.4,5.4,3.4,10c2-0.8,4.2-1.3,5.9-2.6c0-0.9-0.9-5.1,0.2-5.6c-0.6-1.3-0.6-3.7,1-4.3
		c2.9,3.1,3.9,5.7,3.7,10C15.7,299.2,14.4,303.1,15.2,304.2C15.4,304.8,15,304,15.2,304.2z"/>
	<path class="st1" d="M32.9,286.7c0.1,0.4,0,0.7,0.2,1.1c-1.4,3.2-6.8,3.8-9.6,5.3c0.1,0.3,0.2,0.7,0.3,1c1.7-0.2,3.3-0.6,5-1
		c0,0.1,0,0.3,0,0.4c0.6,0.3,1.3,1.2,2.1,1c1.9,2.7-5.7,4.5-7.5,4.2c-0.5,1-0.9,2.1-1.2,3.2c2.7,0,7.2-2.8,9.4-2.1
		c0.5,0.2,1.8,1.7,2.1,1.6c-1.2,4.1-12.1,7.1-14.9,3.8c-2.5-2.9,0.2-7.3,0.8-10.3c-1.3-0.9-1.3-2.4-1.9-3.7
		c1.6-3.4,9.6-4.7,12.7-5.2c0.2-0.1,0.3-0.2,0.4-0.4C31.4,286.1,32.1,286.5,32.9,286.7C33,286.8,32.5,286.6,32.9,286.7z"/>
	<path class="st1" d="M51.8,298.7c-0.3,0.4-1.2,3-1.2,3c-2.9,0-3.2-1.3-5-3.8c0.1-0.1,0.1-0.2,0.3-0.1c-2.3-3.3,3.6-15.6,4.7-19.4
		c2.3,0.4,4.9,1.4,5.7,3.9c-0.1,0.1-0.2,0.2-0.3,0.2c0.3,0.3,0.1,0.6,0.4,0.9c-0.1,0.1-0.3,0.1-0.4,0.1c0.5,0.8-0.3,1.4,0.1,2.2
		c-0.3,0-0.2,0.4-0.5,0.4c0.6,2.3,0.4,4.7,1.3,6.9c4.8-3.9,1.9-11.4,3.9-16.5c8.8-0.4,4.2,19.9,2.2,20c-0.1,0.3-0.1,0.5,0,0.8
		c-4.2,2.8-7.1,2.2-9.9-3C52.7,294.6,51.4,298,51.8,298.7C51.7,298.9,51.7,298.4,51.8,298.7z"/>
	<path class="st1" d="M73.2,299.4c-6.4,0.1-2.6-8-1.2-10.9c-1.6-2.1-7.2-10.3-4.1-13.2c1.3,0.4,2.5,0.9,3.7,1.4
		c-0.1,0.4,0.1,0.7,0.6,0.7c0.4,1.8,1.7,3.6,1.8,5.4c3.7-2.6,2.3-8.1,7.6-9.8c4.9,2.9,1.2,4.8-0.3,8.8c-1.3,1.2-2.1,3.5-2.5,5.3
		C76.6,290.7,76.5,296.7,73.2,299.4z"/>
	<path class="st1" d="M84.2,287.7c0.1-0.1,0.2-0.2,0.3-0.2c-0.2-0.1-1.4-1.8-0.5-1.8c-0.5-1.7,0.4-3.2,1-4.7c1.9-0.8,1.5-4.7,3-6.6
		c1.6-2,4.4-3.2,6.7-3.3c5.8-0.3,10.8,6.1,7.2,11.4c-2.3,3.4-8.1,4.5-11.6,5.8c0.5,2.4,0.7,5.2-0.5,7.5c-1.3,0.1-2.3,0.4-3.5,0.5
		c0.1-0.8-1.4-2.6-1.5-3.6c0.1,0.1,0.2,0.1,0.3,0.1C84.8,291.5,86.1,288.2,84.2,287.7C84.2,287.6,84.6,287.8,84.2,287.7z
		 M91.1,279.1c-0.1,0.7-0.3,1.4-0.5,2.1c0.2,0.2,0.4,0.3,0.6,0.5c2-1.4,5.4-1.6,6.9-3.6C96.2,276.8,92.6,277.4,91.1,279.1
		C91.1,279.4,91.6,278.6,91.1,279.1z"/>
	<path class="st1" d="M106.1,292.1c-3.5-2.6-1.9-20.9,1-22.7c4.2-2.6,4.9,3.3,4.7,5.2c-0.4,4.2-2.6,8.1-2.1,12.4
		c3-1.2,13.9-4.8,14,1.9C120.9,289.9,107.8,294.5,106.1,292.1C106,292,106.1,292.1,106.1,292.1z"/>
</g>
<g>
	<path class="st1" d="M-0.9,356.5c-0.6,0.6-1.4,1-2.2,1.2c-6.6-3.4-2.5-13-3.3-18.2c-2.7-0.6-7.9,6.3-11,8c-5.5,3-10.6,2.5-14.3-2.9
		c-1.4,3.2-4.9,28.8-11.1,16.9c-3.2-6.3-0.4-13.2,1.3-19.5c1.4-5.3,3.2-15.5,8.4-18.5c2.2,0.5,6.4,2.9,7.7,4.7
		c2,2.6,1.2,5.4,2.4,8.3c7.7,4.2,13-16.1,18.2-15.9c3.9,0.1,6,4.9,7.9,7.4l-1.2,0.1c1.6,3.7,0.9,10.6,0.8,14.6
		C2.7,347.2,2.9,353.8-0.9,356.5C-1.3,356.8-0.6,356.3-0.9,356.5z"/>
	<path class="st1" d="M39.8,345.6c-0.8,4.8-5.1,8.4-9.6,6.3c0-1.8-1.4-2.9-3-3.9c2.2-0.8,4.2-1.7,3.5-4.5c-3.7-0.1-6.9,2.8-10.8,2.7
		c-0.5-1.5-1.9-2.3-2.4-4c-0.2,0.7-0.3,1.6-0.4,2.3c-2.6,2.8-1,8.1-3.9,11.1c-3.8,2.5-5.3-1.8-7.5-3.6c3.2-5.8,4-15.3,5.9-21.9
		c2.2-7.5,7.1-7.9,10.3-15c3.1,1.2,5.5,0.3,7.7,3c2.9,3.6,3.1,10.4,5.6,14.5c0.9-0.1,1.8-0.5,2.7-0.8c1.2,1.2,2.9,1.7,4.6,2.2
		c-0.7,2.2-2.1,4.2-4,5.5C39,341.6,39.8,343.5,39.8,345.6z M20.2,337.9c2.2-0.5,4.4-1.1,6.6-1.9c-1-2.5-2.1-5-3.3-7.5
		c-1.6,3.2-3.4,6.3-4.7,9.8C19.3,338.1,19.8,338,20.2,337.9C21.4,337.6,20,338,20.2,337.9z"/>
	<path class="st1" d="M61.7,308.1c7.7-0.3,14.1,5,14.1,13.2c0,9.5-14,12.8-21,15.5c0.6,3,1.8,8.9-0.3,11.6c-1.6,2.1-3.9,1.5-6.2,1.7
		c0-1.5-2.1-3.8-2.3-5.4c-0.3-2,1.7-8.2-1.5-9c0.2-0.2,0.4-0.2,0.6-0.3c-0.4-0.2-2.4-2.9-0.9-2.9c-1-2.9,0.6-5.4,1.7-7.9
		c2.8-0.9,2.8-8.3,4.8-10.9C53.2,310.1,57.7,308.7,61.7,308.1C63.4,308,61.5,308.1,61.7,308.1z M61.6,323.2c1.9-1.2,4.4-1.7,5.8-3.6
		c-5.5-3.6-10.9,0.3-12.3,5.4c0.3,0.3,0.6,0.5,1,0.8C57.7,324.5,59.8,324.4,61.6,323.2C62.5,322.6,60.7,323.8,61.6,323.2z"/>
</g>
<g>
	<path class="st1" d="M-83.8,402.6c0.7,2-0.9,3-2.7,3.1c-2.8-2.7-5.7-18.9-0.2-19.9c0.9,0.8,1.8,4.5,2.7,4.7
		C-84.6,394.4-85.3,398.7-83.8,402.6C-83.5,403.2-84.1,401.6-83.8,402.6z"/>
	<path class="st1" d="M-64.9,386c-5.3,1-5.6,2.2-6.6,6.9c-0.4,1.6-1.4,3.9-1.3,5.6c0.1,2.1,2.2,7.2-2.4,4.4
		c-0.5-2.6-1.6-3.8-1.3-6.8c0.2-2.3,1-4.5,1.4-6.8c-3,0.6-8.5,2.8-7.5-2.9c2.7-0.4,5.3-1.2,7.9-1.9c0.5-2,15-4.8,12.1,0.9
		C-63.4,385.6-64.2,385.8-64.9,386z"/>
	<path class="st1" d="M-66.7,387.3c0.6-4.5,11.3-8.1,15-7.7c0.6,1.1,2.5,2.1,2.4,3.4c-1.5,1.7-7.6,2.5-10.2,3.3
		c0,0.1,4.3,2.5,4.8,3.1c1.2,1.4,2.2,2,2,4.2c-0.2,3.5-6.7,5.7-6.9,7c-1.4,1.8-2.8-0.4-3.6-0.3c0.3-0.8-0.8-2-0.1-3.1
		c0.5-0.9,8.6-2.6,7.2-5.4c-0.9-1.9-6.4-0.3-7.9-0.7C-66.4,390.1-65.8,389.7-66.7,387.3C-66.6,386.8-66.6,387.6-66.7,387.3z"/>
	<path class="st1" d="M-25.3,394.1c-6.5,1.6-17.5,0.2-13.7-9.5c1.6-4.2,7.6-5.5,9-9.2c0.3,0.3,2.1-0.6,1.8,0.3c0.3,0,0.7,0,1,0.1
		c0.1,0.1,0.1,0.3,0.1,0.5c5.7,0.6-9.3,9.8-8.5,12.7C-34.6,392.5-19,387.1-25.3,394.1C-25.6,394.2-25,393.8-25.3,394.1z"/>
	<path class="st1" d="M-5.6,380.8c0.3,3.2,2.4,4-0.2,7.2c-2.1,2.6-7.7,4.7-10.8,4.6c-9.5-0.3-5.8-14.6,0.4-17.5
		c0.9-1.8,4.4-5.6,6-1.9c0.1,0,0.2-0.1,0.3-0.1c0.3,0.7,1.2,1.5,0.3,2.3C-9.5,376.7-6.3,380-5.6,380.8C-5.6,381-6.3,380.1-5.6,380.8
		z M-8.9,384.4c0.4-2.5-1.2-3.8-3.1-5.8c-0.1,0.3-0.2,0.4-0.5,0.3c0,0.7-0.8,0.6-1.3,0.4c-1.9,2.2-5,5.3-4.5,8.5
		C-15.5,389.4-10.8,385.9-8.9,384.4C-8.9,384.2-9.6,384.9-8.9,384.4z"/>
	<path class="st1" d="M6.1,387.9c-5,2.7-8.2,1.3-8.7-4.2c-0.2-2.5,0.8-12.9,2-13.7c7-4.9,2.6,12.9,2.8,14.4c2.6-1.6,11.5-4,11.7,1.3
		C11.4,386.6,8.6,386.7,6.1,387.9z"/>
	<path class="st1" d="M23,384.7c-5,2.7-8.2,1.3-8.7-4.2c-0.2-2.5,0.8-12.9,2-13.8c7-4.9,2.6,12.9,2.8,14.4c2.6-1.6,11.5-4,11.7,1.3
		C28.3,383.4,25.5,383.6,23,384.7z"/>
	<path class="st1" d="M45.8,362.9c0.1,0.4,0.1,0.7,0.2,1c-1.3,3.3-6.6,4-9.4,5.6c0.1,0.3,0.3,0.7,0.4,1c1.7-0.3,3.3-0.7,4.9-1.1
		c0,0.1,0,0.3,0,0.4c0.6,0.3,1.3,1.2,2.1,1c2,2.6-5.5,4.6-7.4,4.4c-0.5,1-0.9,2.1-1.1,3.3c2.7-0.1,7.1-3,9.3-2.4
		c0.5,0.1,1.9,1.6,2.1,1.5c-1,4.2-11.9,7.5-14.8,4.2c-2.6-2.9,0-7.3,0.5-10.3c-1.3-0.8-1.4-2.4-2-3.6c1.5-3.4,9.5-5,12.5-5.6
		c0.2-0.1,0.3-0.2,0.4-0.4C44.2,362.3,44.9,362.7,45.8,362.9C45.8,363,45.3,362.8,45.8,362.9z"/>
	<path class="st1" d="M60.8,378.1c-6.5,1.6-17.5,0.2-13.7-9.5c1.6-4.2,7.6-5.5,9-9.2c0.3,0.3,2.1-0.6,1.8,0.3c0.3,0,0.7,0,1,0.1
		c0.1,0.1,0.1,0.3,0.1,0.5c5.7,0.6-9.3,9.8-8.5,12.7C51.5,376.6,67.1,371.2,60.8,378.1C60.5,378.2,61.1,377.8,60.8,378.1z"/>
	<path class="st1" d="M79,359.3c-5.3,1-5.6,2.2-6.6,6.9c-0.4,1.6-1.4,3.9-1.3,5.6c0.1,2.1,2.2,7.2-2.4,4.4c-0.5-2.6-1.6-3.8-1.3-6.8
		c0.2-2.3,1-4.5,1.4-6.8c-3,0.6-8.5,2.8-7.5-2.9c2.7-0.4,5.3-1.2,7.9-1.9c0.5-2,15-4.8,12.1,0.9C80.5,358.9,79.8,359.2,79,359.3
		C78.5,359.4,79.1,359.3,79,359.3z"/>
	<path class="st1" d="M85.5,371.3c0.7,2-0.9,3-2.7,3.1c-2.8-2.7-5.7-18.9-0.2-19.9c0.9,0.8,1.8,4.5,2.7,4.7
		C84.6,363.1,84,367.3,85.5,371.3C85.7,371.9,85.1,370.3,85.5,371.3z"/>
	<path class="st1" d="M105.2,360.3c0.3,3.2,2.4,4-0.2,7.2c-2.1,2.6-7.7,4.7-10.8,4.6c-9.5-0.3-5.8-14.6,0.4-17.5
		c0.9-1.8,4.4-5.6,6-1.9c0.1,0,0.2-0.1,0.3-0.1c0.3,0.7,1.2,1.5,0.3,2.3C101.3,356.2,104.5,359.5,105.2,360.3
		C105.2,360.5,104.5,359.5,105.2,360.3z M101.9,363.9c0.4-2.5-1.2-3.8-3.1-5.8c-0.1,0.3-0.2,0.4-0.5,0.3c0,0.7-0.8,0.6-1.3,0.4
		c-1.9,2.2-5,5.3-4.5,8.5C95.3,368.9,100,365.4,101.9,363.9C101.9,363.7,101.3,364.4,101.9,363.9z"/>
	<path class="st1" d="M114.1,362.4c-0.8,0.3-2,6.2-2,6.2c-8.8,0-1.6-15.4-0.5-19.5c1.9,0.4,4.2,1.1,4.9,3.1c0,0.1-0.1,0.2-0.2,0.2
		c0.3,0.2,0.2,0.5,0.4,0.8c-0.1,0.1-0.2,0.1-0.4,0.1c0.4,0.7-0.2,1.2,0.2,1.9c-0.2,0-0.2,0.4-0.4,0.3c0.6,1.9,0.5,3.9,1.3,5.7
		c3.9-3.3,1.6-9.5,2.8-13.9c7.4-0.4,3.8,16.6,2.3,16.6c0.1,0.3-0.2,0.4,0,0.7C118.9,367,116.7,366.7,114.1,362.4
		C113.9,362.5,114.7,363.4,114.1,362.4z"/>
	<path class="st1" d="M131.5,361.2c0.7,1.6,0,3.5-0.9,4.6c-1.9,1-3.3-0.4-4.2-2l0.3-0.3l-0.5-0.5c0.7-0.8,1.2-1.5,1.6-2.5
		C128.9,360.6,130.3,360.8,131.5,361.2z M131.3,343c0.6,3.2,0.9,7.2,0.3,10.5c-1,6.5-4.6,4.4-4.7-1.3c0-2.4-0.8-10.5,2.5-11.1
		C130.1,341.7,130.3,342.7,131.3,343C131.3,343.2,131,342.9,131.3,343z"/>
</g>
</svg>
