<?xml version="1.0" encoding="utf-8"?>
<!-- Generator: Adobe Illustrator 19.1.0, SVG Export Plug-In . SVG Version: 6.00 Build 0)  -->
<svg version="1.1" id="Layer_1" xmlns="http://www.w3.org/2000/svg" xmlns:xlink="http://www.w3.org/1999/xlink" x="0px" y="0px"
	 viewBox="0 0 415.6 268" style="enable-background:new 0 0 415.6 268;" xml:space="preserve">
<style type="text/css">
	.st0{fill:#F15822;}
</style>
<g>
	<g>
		<path class="st0" d="M184.8,197.5c15.5,15.1,19.2,36.9,21.9,57.5c0.4,3.1,5.4,3.2,5,0c-2.9-21.9-6.8-44.9-23.4-61
			C186,191.7,182.5,195.2,184.8,197.5L184.8,197.5z"/>
	</g>
</g>
<g>
	<g>
		<path class="st0" d="M212.3,255.8c0.7-5.6,3.2-10.7,7.3-14.7c2.3-2.3-1.2-5.8-3.5-3.5c-5.1,5-7.9,11.3-8.8,18.3
			C206.9,258.9,211.9,258.9,212.3,255.8L212.3,255.8z"/>
	</g>
</g>
<g>
	<g>
		<path class="st0" d="M212.4,259.3c-3-8.2-9.4-14.8-18-17c-3.1-0.8-4.4,4-1.3,4.8c6.8,1.8,12.1,6.9,14.5,13.5
			C208.7,263.6,213.5,262.4,212.4,259.3L212.4,259.3z"/>
	</g>
</g>
<g>
	<path class="st0" d="M11.5,106.2c-0.2-0.3-0.4-0.5-0.6-0.8c-0.2-0.2-0.4-0.4-0.6-0.6c-0.5-0.6-0.9-1.1-1.3-1.5s-0.8-1-1.2-1.6
		c0-0.5-0.1-1.3-0.2-2.4c-0.1-1.1-0.2-2.4-0.2-3.8c-0.1-1.4-0.1-2.8-0.2-4.2c0-1.4,0-2.7,0-3.7c0.1-0.9,0.2-1.9,0.3-3
		c0.1-1.1,0.3-2,0.5-3c0.2-0.9,0.5-1.7,0.9-2.5c0.4-0.7,0.8-1.2,1.4-1.5c0.2,0.2,0.4,0.3,0.7,0.4c0.2,0.1,0.4,0.1,0.6,0.1
		c0.6,0.5,1.2,1,1.8,1.3c0.6,0.3,1.2,0.6,1.9,0.9c0.1,0.9,0.1,1.8,0,2.9c0,1.1-0.1,2.2-0.2,3.3c-0.1,1.1-0.1,2.2-0.2,3.2
		c-0.1,1-0.1,1.9-0.1,2.6c0,0.6,0,1.3,0,2c0,0.6,0.1,1.4,0.1,2.3c0.1,0.9,0.2,1.9,0.3,2.9c0.4-0.2,0.7-0.5,1.1-1
		c0.4-0.5,0.7-0.9,1.1-1.4c0.4-0.5,0.7-1.1,1.1-1.7c0.5-0.8,0.8-1.5,1.1-2.1c0.3-0.6,0.6-1.3,0.8-1.9c0.2-0.7,0.4-1.4,0.7-2.1
		c0.2-0.8,0.5-1.7,0.8-2.8c0.3-0.9,0.6-1.9,0.9-2.9c0.3-1,0.6-2,0.9-3c0.3-1,0.7-1.9,1-2.7c0.3-0.8,0.7-1.5,1-2
		c0.4,0.2,0.8,0.4,1.3,0.7c0.5,0.2,1,0.3,1.5,0.4c0.3,0.3,0.5,0.5,0.8,0.7c0.2,0.2,0.5,0.4,0.7,0.5c0.3,0.2,0.6,0.5,0.8,0.7
		s0.5,0.4,0.7,0.7c0,0.2,0.1,0.5,0.1,0.9c0,0.4,0.1,0.8,0.1,1.2c0,0.4,0.1,0.9,0.1,1.4c0,0.5,0,0.9,0.1,1.3c0.1,1.3,0.1,2.3,0.1,2.9
		c0,0.7,0.1,1.2,0.1,1.6c0,0.4,0.1,0.7,0.1,0.9c0.1,0.2,0.1,0.6,0.3,1c0.1,0.3,0.2,0.6,0.3,1c0.1,0.3,0.3,0.6,0.4,0.9
		c0.2,0.3,0.4,0.6,0.6,0.8l1.6-2c0.4-0.6,0.8-1.3,1.1-2.2c0.3-0.9,0.6-1.9,0.8-3c0.2-1.1,0.4-2.3,0.6-3.5c0.2-1.3,0.3-2.5,0.5-3.9
		c0.1-1,0.2-1.9,0.3-2.9c0.1-1,0.2-1.9,0.4-2.7c0.1-0.9,0.3-1.7,0.5-2.4c0.2-0.7,0.4-1.4,0.6-1.9c0.9,0.3,1.6,0.6,2.3,0.9
		c0.7,0.3,1.3,0.7,1.8,1.2c0.5,0.5,1,1,1.5,1.7c0.4,0.7,0.8,1.5,1.2,2.4c-0.3,1.3-0.5,2.6-0.7,4c-0.2,1.3-0.4,2.7-0.6,4.1
		c-0.2,1.8-0.5,3.5-0.8,5.3c-0.3,1.8-0.7,3.5-1.1,5.1c-0.5,1.6-1.1,3.2-1.8,4.7c-0.7,1.5-1.7,2.8-2.8,4c-0.4,0-0.7,0.1-1,0.1
		c-0.3,0.1-0.5,0.2-0.7,0.3c-0.2,0.1-0.3,0.3-0.5,0.5c-1.3-0.2-2.4-0.8-3.3-1.6c-1-0.8-1.9-1.8-2.9-2.9c-0.1-0.2-0.3-0.3-0.4-0.5
		c-0.1-0.2-0.3-0.3-0.5-0.5l-1-1.1l-0.6-0.7l-0.4,0.7l-0.7,1l-0.4,0.6c-0.6,1-1.3,2-2,3c-0.7,1-1.4,1.9-2.2,2.8
		c-0.8,0.9-1.7,1.6-2.7,2.3c-1,0.7-2.1,1.2-3.3,1.5c-0.2-0.1-0.5-0.1-0.7-0.1c-0.2,0-0.4-0.1-0.6-0.1c-0.7-0.1-1.3-0.3-1.8-0.4
		C12.7,106.9,12.2,106.6,11.5,106.2z"/>
	<path class="st0" d="M70.7,89.3c0.2,0.7,0.3,1.3,0.2,1.8s-0.3,1-0.6,1.4s-0.7,0.8-1.1,1.1c-0.4,0.3-0.9,0.6-1.3,0.9
		c-0.3-0.1-0.5-0.2-0.8-0.3c-0.2-0.1-0.5-0.1-0.8-0.2c-0.5-0.6-1-1.1-1.5-1.5c-0.5-0.4-0.8-1-0.9-1.6c0,0,0-0.2-0.1-0.5
		c0-0.3-0.1-0.6-0.1-0.9c0-0.3,0-0.7-0.1-1c0-0.3-0.1-0.5-0.1-0.5c-0.6,0.2-1.2,0.5-1.9,0.9c-0.6,0.4-1.2,0.8-1.8,1.3
		c-0.6,0.5-1.1,0.9-1.6,1.4c-0.5,0.4-0.9,0.8-1.2,1.1c0,0.1,0,0.3,0,0.6c0,0.3-0.1,0.7-0.1,1.1c-0.1,0.4-0.2,0.7-0.3,1.1
		c-0.1,0.3-0.3,0.5-0.5,0.6c0,0.1,0.1,0.1,0.2,0.2c0.1,0.1,0.1,0.2,0.1,0.3c-0.4,0.2-0.7,0.4-0.9,0.7c-0.3,0.3-0.5,0.5-0.8,0.7
		c-0.3,0.2-0.6,0.4-1,0.5c-0.4,0.1-0.9,0.1-1.5-0.1c0-0.2-0.2-0.3-0.3-0.4c-0.2-0.1-0.3-0.2-0.5-0.2S51.3,98,51.2,98
		C51,98,51,97.9,51,97.9c-0.1,0.1-0.2,0-0.2-0.2c0-0.2,0.1-0.3,0.3-0.3c-0.4-0.3-0.7-0.6-0.8-0.9c-0.1-0.3-0.4-0.6-0.8-1
		c0-0.1,0.1-0.2,0.1-0.3c0-0.1,0-0.3,0-0.4c0-0.1,0-0.2,0.1-0.3c0-0.1,0.1-0.1,0.2,0c-0.1-0.2-0.2-0.4-0.2-0.6c0-0.2,0-0.3,0-0.5
		s0-0.3,0-0.4c0-0.1-0.1-0.3-0.2-0.4c0.3-0.7,0.4-1.4,0.3-2.2c0-0.7-0.1-1.4-0.3-2c0.1-0.2,0.2-0.6,0.3-1c0.1-0.4,0.1-0.8,0.1-1.2
		c0-0.4-0.1-0.8-0.2-1.1c-0.1-0.3-0.2-0.6-0.4-0.8c0-0.1,0.1-0.2,0.4-0.2c-0.1-0.9-0.2-2-0.5-3.1c-0.2-1.2-0.4-2.3-0.5-3.3
		s-0.1-2,0.1-2.9c0.2-0.9,0.7-1.6,1.4-2c0.3,0.5,0.7,1,1,1.3c0.4,0.4,0.8,0.7,1.2,1c0.4,0.3,0.8,0.6,1.3,1c0.4,0.3,0.8,0.7,1.3,1.2
		c0.1,0.5,0.2,1.1,0.3,1.8c0.1,0.7,0.2,1.4,0.2,2.2c0.1,0.7,0.1,1.5,0.2,2.1c0.1,0.7,0.1,1.3,0.1,1.8c0.1,0.1,0.2,0.2,0.3,0.2
		c0.1,0,0.2,0.1,0.2,0.4c0.6-0.3,1.3-0.7,1.9-1c0.7-0.3,1.3-0.7,2-1c0.7-0.4,1.3-0.7,1.9-1.1c0.6-0.4,1.2-0.8,1.7-1.3
		c-0.1-1.1-0.3-2.2-0.3-3.3c-0.1-1.1-0.3-2.2-0.8-3.3c0.1-0.1,0.2-0.3,0.2-0.5c0-0.2,0.1-0.3,0.3-0.4c-0.3-0.5-0.5-1-0.6-1.6
		c-0.1-0.6-0.2-1.2-0.1-1.7c0-0.6,0.2-1.1,0.4-1.5c0.2-0.5,0.6-0.8,1.1-1c0.4,0.4,0.8,0.8,1.2,1.2c0.4,0.4,0.7,0.9,1.1,1.3
		c0.4,0.4,0.7,0.9,1.1,1.2c0.4,0.4,0.8,0.7,1.3,0.9c0.3,0.8,0.6,1.6,0.8,2.4c0.3,0.8,0.5,1.7,0.8,2.6c0.1,1.1,0.1,2.2,0.1,3.2
		c0,1,0.1,2.1,0.3,3.2c-0.1,0.3-0.2,0.6-0.3,0.9c0,0.3-0.1,0.6-0.1,0.9c0,0.3-0.1,0.6-0.2,0.9c-0.1,0.3-0.2,0.6-0.3,0.8
		c0.2,0.3,0.3,0.6,0.3,0.9C70.2,88.7,70.3,89,70.7,89.3z"/>
	<path class="st0" d="M91.9,63.3c0.1,0.2,0.1,0.3,0.1,0.4c0,0.1,0,0.2,0,0.3c0,0.1,0,0.2,0.1,0.3s0.1,0.2,0.2,0.4
		c-0.3,1.1-0.8,1.9-1.5,2.4c-0.7,0.5-1.4,1-2.2,1.4c-0.8,0.4-1.7,0.8-2.6,1.2c-0.9,0.4-1.7,1-2.4,1.8c-0.4,0-0.7,0-1,0.3
		c-0.2,0.2-0.7,0.4-1.2,0.5c-0.1,0.2-0.3,0.4-0.5,0.5c-0.2,0.1-0.5,0.3-0.7,0.4c0.2,0.2,0.3,0.5,0.3,0.7c0.1,0.3,0.1,0.5,0.3,0.6
		c1-0.2,2-0.5,3.2-0.9c1.1-0.4,2.3-0.8,3.4-1.1c0.1,0.1,0.1,0.2,0,0.3c0,0.1,0,0.1,0,0.2c0.2,0.1,0.5,0.2,0.7,0.4
		c0.2,0.2,0.5,0.3,0.7,0.4c0.2,0.1,0.5,0.2,0.7,0.3c0.2,0.1,0.5,0.1,0.8,0c0.2,0.2,0.3,0.4,0.4,0.7c0.1,0.2,0.1,0.5,0.1,0.8
		c-0.4,0.4-0.7,0.8-1.1,1.3c-0.4,0.4-0.7,0.8-1.1,1.2c-0.4,0.4-0.9,0.7-1.4,1c-0.5,0.3-1.1,0.5-1.7,0.7c-0.1,0-0.2,0.1-0.3,0.1
		s-0.2,0-0.3-0.1c-0.2,0.2-0.5,0.3-0.9,0.4c-0.4,0.1-0.7,0.2-0.9,0.4c-0.3-0.1-0.7,0-1.1,0.1c-0.4,0.1-0.8,0.2-1.2,0.2
		c-0.3,0.7-0.5,1.4-0.7,2.2c-0.2,0.8-0.3,1.5-0.4,2.3c1-0.1,1.8-0.3,2.4-0.5c0.6-0.2,1.2-0.4,1.7-0.6c0.5-0.2,1.1-0.4,1.6-0.7
		c0.6-0.2,1.3-0.4,2.2-0.6c0.5-0.4,1.1-0.8,1.8-1.1c0.7-0.3,1.4-0.6,1.9-1c0.2,0,0.5,0.1,0.7,0.3c0.2,0.2,0.4,0.3,0.6,0.4
		c0.2,0.1,0.4,0.3,0.6,0.3c0.2,0.1,0.4,0.1,0.7,0c0.1,0.1,0.2,0.2,0.3,0.3c0.1,0.1,0.2,0.3,0.2,0.4s0.1,0.2,0.2,0.3
		c0.1,0.1,0.2,0.1,0.4,0c-0.2,1-0.5,1.8-0.9,2.4c-0.4,0.6-0.9,1.1-1.5,1.6c-0.6,0.4-1.3,0.8-2.1,1.2c-0.8,0.4-1.7,0.8-2.6,1.2
		c-0.2,0.1-0.4,0.2-0.6,0.1c-0.2,0-0.4,0-0.6,0c-0.6,0.3-1.3,0.6-2.2,1c-0.8,0.3-1.7,0.6-2.6,0.8c-0.9,0.2-1.8,0.3-2.7,0.3
		c-0.9,0-1.6-0.2-2.3-0.6c-0.3-0.1-0.5-0.3-0.6-0.6c-0.1-0.2-0.4-0.4-0.7-0.4c-0.1-0.3-0.3-0.7-0.5-1.1c-0.2-0.4-0.4-0.9-0.6-1.3
		c-0.2-0.5-0.4-0.9-0.6-1.4c-0.2-0.5-0.3-0.9-0.3-1.3c0-0.4,0-0.8,0.2-1.2c0.2-0.4,0.2-0.8,0-1.1c0.1-0.1,0.2-0.2,0.2-0.3
		c0-0.1,0.1-0.2,0.3-0.2c0-0.5,0.1-1,0.2-1.5c0.1-0.5,0.2-1,0.3-1.4c0.1-0.5,0.2-0.9,0.3-1.4c0.1-0.5,0.2-1,0.2-1.6
		c-0.5-0.3-0.9-0.6-1.2-0.9c-0.3-0.4-0.5-0.8-0.7-1.2c-0.2-0.4-0.4-0.8-0.6-1.3c-0.2-0.4-0.4-0.9-0.7-1.3c0.2-0.5,0.4-0.9,0.7-1.3
		c0.3-0.4,0.7-0.7,1.1-1c0.4-0.3,0.9-0.6,1.4-0.8c0.5-0.3,1.1-0.5,1.6-0.8c1-0.6,1.9-1.2,2.7-1.6c0.8-0.4,1.6-0.8,2.4-1.1
		c0.8-0.3,1.6-0.7,2.5-1c0.9-0.3,1.9-0.8,2.9-1.3c0.3,0.2,0.6,0.2,0.8,0.2c0-0.3,0.2-0.4,0.3-0.3c0.2,0.1,0.2,0,0.1-0.3
		c0.4,0.4,0.8,0.7,1.4,0.9C90.8,63,91.3,63.2,91.9,63.3z"/>
	<path class="st0" d="M102.1,80.7c0,1.2-0.1,2.1-0.1,2.7s-0.3,1.3-0.6,2c-0.4,0-0.6,0.1-0.7,0.3c-0.1,0.2-0.2,0.3-0.4,0.5
		c-0.2,0.1-0.4,0.2-0.5,0.1c-0.1,0-0.2-0.1-0.3-0.1c-0.1,0-0.2-0.1-0.4-0.1c-0.1,0-0.3,0-0.6,0c-0.1-0.2-0.2-0.4-0.3-0.6
		c-0.1-0.2-0.3-0.2-0.6-0.1c0-0.2,0-0.4-0.1-0.6c-0.1-0.1-0.1-0.3-0.2-0.4c-0.1-0.1-0.1-0.2-0.2-0.3c-0.1-0.1-0.1-0.3-0.1-0.5
		c-0.1,0-0.3,0-0.4-0.2c-0.1-0.2-0.3-0.3-0.4-0.5c0-0.5-0.1-1-0.1-1.5c0-0.5,0-0.9,0-1.3c0-0.4,0-0.8,0-1.2c0-0.4-0.2-0.8-0.4-1.2
		c0.1,0.1,0.2,0,0.2-0.1c0-0.1,0-0.3,0-0.5c0-0.2-0.1-0.4-0.1-0.6c-0.1-0.2-0.1-0.4-0.2-0.5c0.1-0.8,0.1-1.6,0.1-2.4
		c0-0.8-0.1-1.6-0.1-2.4c0-0.8-0.1-1.5-0.1-2.3c0-0.8,0-1.5,0.1-2.1c0.3-0.1,0.6-0.2,1-0.2c0.4,0,0.7,0.1,0.8,0.3
		c0.6-0.7,1-1.6,1.4-2.5c0.3-0.9,0.7-1.8,1.1-2.7c0.4-0.9,0.8-1.7,1.4-2.5c0.5-0.8,1.3-1.3,2.4-1.7c0.7,0.3,1.4,0.5,2.2,0.8
		c0.8,0.2,1.5,0.7,2.1,1.2c0.2,0.1,0.5,0.1,0.6,0.2c0.2,0.1,0.4,0.2,0.7,0.2l0.1,0.5c0.4,0.2,0.8,0.5,1.1,0.8
		c0.3,0.3,0.6,0.7,0.9,1.1c0.3,0.4,0.6,0.8,0.9,1.2c0.3,0.4,0.6,0.8,0.9,1.1c0,0.2,0,0.3,0,0.4c0,0.1,0.1,0.2,0.1,0.3
		c0.1,0.1,0.1,0.2,0.2,0.3s0.1,0.3,0.1,0.5c0.2,1.2,0.1,2.3-0.4,3.2c-0.5,0.9-1.2,1.8-2,2.5c-0.9,0.7-1.8,1.4-2.8,2
		s-1.9,1.2-2.7,1.9c0,0.1,0.1,0.2,0.2,0.1c0.1,0,0.1,0,0.2,0.2c0.8,0.2,1.4,0.4,1.8,0.6c0.4,0.1,0.9,0.3,1.2,0.3
		c0.4,0.1,0.8,0.1,1.2,0.1c0.4,0,1,0,1.8,0c0.8,0,1.3,0,1.8-0.1c0.4,0,0.8,0,1.2,0c0.3,0,0.7-0.1,1-0.1c0.4-0.1,0.8-0.1,1.5-0.2
		c0.3,0.2,0.6,0.4,0.9,0.7c0.3,0.3,0.5,0.6,0.6,0.9c0.1,0.3,0.2,0.7,0.3,1c0.1,0.3,0,0.6-0.1,0.8c0,0.1,0.1,0.1,0.2,0.1
		c0.1,0,0.2-0.1,0.3-0.1c-0.1,0.2-0.2,0.3-0.3,0.5c-0.1,0.2-0.1,0.4-0.2,0.6c-0.1,0.2-0.2,0.4-0.3,0.5c-0.1,0.2-0.3,0.3-0.5,0.4
		c-0.8,0.6-1.8,0.9-3.2,0.9c-1.4,0.1-3.1,0-5.3-0.3c-1.1-0.1-2-0.2-2.7-0.4c-0.7-0.1-1.3-0.3-1.8-0.4c-0.5-0.2-1-0.4-1.5-0.6
		C103.3,81.3,102.7,81,102.1,80.7z M104.2,65.1c-0.2,0.5-0.4,1-0.7,1.5c-0.3,0.5-0.5,0.9-0.8,1.4c-0.2,0.5-0.4,1-0.6,1.5
		c-0.2,0.5-0.2,1.1-0.2,1.7c0.9-0.4,1.9-0.9,2.8-1.6c0.9-0.7,1.8-1.4,2.6-2c-0.3-0.8-0.8-1.4-1.4-1.8
		C105.4,65.3,104.8,65.1,104.2,65.1z"/>
	<path class="st0" d="M136.1,51.5c0.1,0.2,0.1,0.3,0.1,0.4c0,0.1,0,0.2,0,0.3c0,0.1,0,0.2,0,0.3s0.1,0.2,0.2,0.4
		c-0.3,1.1-0.8,1.9-1.5,2.4c-0.7,0.5-1.4,1-2.2,1.4c-0.8,0.4-1.7,0.8-2.6,1.2c-0.9,0.4-1.7,1-2.4,1.8c-0.4,0-0.7,0-1,0.3
		c-0.2,0.2-0.7,0.4-1.2,0.5c-0.1,0.2-0.3,0.4-0.5,0.5c-0.2,0.1-0.5,0.3-0.7,0.4c0.2,0.2,0.3,0.5,0.3,0.7c0.1,0.3,0.1,0.5,0.3,0.6
		c1-0.2,2-0.5,3.2-0.9c1.1-0.4,2.3-0.8,3.4-1.1c0.1,0.1,0.1,0.2,0,0.3c0,0.1,0,0.1,0,0.2c0.2,0.1,0.5,0.2,0.7,0.4s0.5,0.3,0.7,0.4
		c0.2,0.1,0.5,0.2,0.7,0.3c0.2,0.1,0.5,0.1,0.8,0c0.2,0.2,0.3,0.4,0.4,0.7c0.1,0.2,0.1,0.5,0.1,0.8c-0.4,0.4-0.7,0.8-1.1,1.3
		c-0.4,0.4-0.7,0.8-1.1,1.2c-0.4,0.4-0.9,0.7-1.4,1c-0.5,0.3-1.1,0.5-1.7,0.7c-0.1,0-0.2,0.1-0.3,0.1s-0.2,0-0.3-0.1
		c-0.2,0.2-0.5,0.3-0.9,0.4c-0.4,0.1-0.7,0.2-0.9,0.4c-0.3-0.1-0.7,0-1.1,0.1c-0.4,0.1-0.8,0.2-1.2,0.2c-0.3,0.7-0.5,1.4-0.7,2.2
		c-0.2,0.8-0.3,1.5-0.4,2.3c1-0.1,1.8-0.3,2.4-0.5c0.6-0.2,1.2-0.4,1.7-0.6c0.5-0.2,1.1-0.4,1.6-0.7c0.6-0.2,1.3-0.4,2.2-0.6
		c0.5-0.4,1.1-0.8,1.8-1.1c0.7-0.3,1.4-0.6,1.9-1c0.2,0,0.5,0.1,0.7,0.3c0.2,0.2,0.4,0.3,0.6,0.4c0.2,0.1,0.4,0.3,0.6,0.3
		c0.2,0.1,0.4,0.1,0.7,0c0.1,0.1,0.2,0.2,0.3,0.3c0.1,0.1,0.2,0.3,0.2,0.4s0.1,0.2,0.2,0.3c0.1,0.1,0.2,0.1,0.4,0
		c-0.2,1-0.5,1.8-0.9,2.4c-0.4,0.6-0.9,1.1-1.5,1.6c-0.6,0.4-1.3,0.8-2.1,1.2c-0.8,0.4-1.7,0.8-2.6,1.2c-0.2,0.1-0.4,0.2-0.6,0.1
		c-0.2,0-0.4,0-0.6,0c-0.6,0.3-1.3,0.6-2.2,1c-0.8,0.3-1.7,0.6-2.6,0.8s-1.8,0.3-2.7,0.3c-0.9,0-1.6-0.2-2.3-0.6
		c-0.3-0.1-0.5-0.3-0.6-0.6c-0.1-0.2-0.4-0.4-0.7-0.4c-0.1-0.3-0.3-0.7-0.5-1.1c-0.2-0.4-0.4-0.8-0.6-1.3c-0.2-0.5-0.4-0.9-0.6-1.4
		c-0.2-0.5-0.3-0.9-0.3-1.3c0-0.4,0-0.8,0.2-1.2c0.2-0.4,0.2-0.8,0-1.1c0.1-0.1,0.2-0.2,0.2-0.3c0-0.1,0.1-0.2,0.3-0.2
		c0-0.5,0.1-1,0.2-1.5c0.1-0.5,0.2-1,0.3-1.4c0.1-0.5,0.2-0.9,0.3-1.4c0.1-0.5,0.2-1,0.2-1.6c-0.5-0.3-0.9-0.6-1.1-0.9
		c-0.3-0.4-0.5-0.8-0.7-1.2c-0.2-0.4-0.4-0.8-0.6-1.3c-0.2-0.4-0.4-0.9-0.7-1.3c0.2-0.5,0.4-0.9,0.7-1.3c0.3-0.4,0.7-0.7,1.1-1
		c0.4-0.3,0.9-0.6,1.4-0.8c0.5-0.3,1.1-0.5,1.6-0.8c1-0.6,1.9-1.2,2.7-1.6c0.8-0.4,1.6-0.8,2.4-1.1c0.8-0.3,1.6-0.7,2.5-1
		c0.9-0.3,1.9-0.8,2.9-1.3c0.3,0.2,0.6,0.2,0.8,0.2c0-0.3,0.2-0.4,0.3-0.3c0.2,0.1,0.2,0,0.1-0.3c0.4,0.4,0.8,0.7,1.4,0.9
		C134.9,51.3,135.5,51.4,136.1,51.5z"/>
	<path class="st0" d="M164.7,65.5c0.4,0.8,0.5,1.4,0.4,2c-0.1,0.5-0.3,1-0.7,1.3c-0.4,0.3-0.8,0.6-1.4,0.8c-0.5,0.2-1.1,0.3-1.6,0.3
		c-0.4-0.3-0.7-0.7-1.1-1.2c-0.4-0.5-0.7-1.1-1.1-1.6s-0.7-1.1-1-1.7c-0.3-0.6-0.6-1.1-0.8-1.5c0-0.4,0-0.8,0-1.2
		c-0.1-0.4-0.2-0.9-0.3-1.3c-0.1-0.4-0.2-0.9-0.3-1.3c-0.1-0.5-0.2-0.9-0.2-1.3c-0.1-1.2-0.1-2.4,0-3.5c0.1-1.1,0.1-2.3,0-3.5
		c0-0.3-0.1-0.5-0.2-0.7c-0.2-0.2-0.2-0.4-0.2-0.6c0-0.1,0.1-0.2,0.2-0.3c0.1-0.1,0.2-0.2,0.2-0.3c0-0.3,0-0.6-0.1-0.8
		c-0.1-0.2-0.1-0.4,0-0.7c0.1-0.3,0.2-0.6,0.3-1.1c0.1-0.5,0-0.9-0.1-1.4c0.2-0.2,0.4-0.5,0.5-0.8c0.2-0.3,0.3-0.5,0.5-0.8
		c0.2-0.2,0.4-0.5,0.7-0.7c0.2-0.2,0.6-0.4,1-0.5c0.3,0.2,0.5,0.5,0.7,0.8c0.2,0.3,0.3,0.6,0.5,0.9c0.2,0.3,0.3,0.6,0.6,0.8
		c0.2,0.2,0.5,0.4,0.9,0.5c0.1,0.2,0.1,0.5,0.2,0.8c0.1,0.3,0.2,0.6,0.3,1c0.1,0.3,0.2,0.6,0.4,0.8c0.2,0.2,0.4,0.4,0.6,0.4
		c-0.1,1.4-0.3,2.9-0.3,4.3c-0.1,1.4-0.1,2.8,0,4.1c0.1,1.4,0.2,2.7,0.5,4C163.6,63,164.1,64.3,164.7,65.5z"/>
	<path class="st0" d="M165.9,48.5c0-0.6,0.2-1.2,0.5-1.7c0.3-0.5,0.7-1,1.1-1.4c0.4-0.4,0.9-0.8,1.4-1.1c0.5-0.3,1-0.6,1.4-0.9
		c1-0.8,2-1.5,3.1-2.3c1.1-0.8,2.3-1.5,3.5-2.1c1.2-0.7,2.5-1.2,3.8-1.7c1.3-0.5,2.8-0.7,4.4-0.6c0.2,0.3,0.3,0.5,0.6,0.7
		c0.2,0.2,0.5,0.4,0.7,0.6c0.2,0.2,0.5,0.4,0.7,0.6c0.2,0.2,0.3,0.4,0.4,0.7c0.3,0.2,0.6,0.4,0.9,0.6c0.2,0.2,0.4,0.6,0.4,1.1
		c-0.2,0.3-0.4,0.6-0.6,0.8c-0.2,0.2-0.5,0.5-0.7,0.7c-1.1,0-2.1,0.2-3.1,0.6c-1,0.4-1.9,0.7-2.7,0.9c-0.3-0.2-0.6-0.2-1-0.1
		c-0.3,0.1-0.7,0.2-1,0.4c-0.3,0.2-0.7,0.4-1,0.6c-0.3,0.2-0.7,0.3-1,0.4c-0.2,0.3-0.5,0.5-0.9,0.7c-0.4,0.2-0.8,0.3-1.2,0.5
		c0,0.1,0.1,0.2,0.2,0.2c0.1,0,0.1,0.1,0.1,0.3c0.2,0.1,0.5,0.2,0.7,0.2c0.3,0,0.6,0,0.9,0c0.3,0,0.6,0,0.8,0.1
		c0.3,0.1,0.5,0.2,0.6,0.5c0.4-0.1,0.8-0.1,1.1,0c0.4,0.1,0.7,0.3,0.9,0.5c0.3,0.2,0.5,0.5,0.7,0.8c0.2,0.3,0.3,0.6,0.4,0.8
		c0.1,0.2,0.3,0.3,0.4,0.2c0.1-0.1,0.2,0,0.4,0.1c0.2,0.3,0.5,0.6,0.9,0.9c0.4,0.3,0.8,0.6,1.1,1c0.2,0.7,0.4,1.3,0.6,1.8
		c0.2,0.5,0.2,1.1,0.1,1.7c-0.1,1.1-0.5,2.2-1,3.2c-0.5,1-1.1,1.9-1.9,2.8s-1.6,1.6-2.5,2.4c-0.9,0.7-1.8,1.4-2.7,1.9
		c-0.1,0-0.2,0-0.3,0.1c-0.1,0.1-0.1,0-0.1-0.2c-0.2,0.2-0.4,0.4-0.6,0.6c-0.2,0.1-0.5,0.2-0.8,0.3c-0.3,0.1-0.6,0.1-0.9,0.2
		s-0.6,0.1-0.9,0.3c-0.2-0.1-0.5-0.3-0.7-0.4c-0.2-0.1-0.4-0.3-0.5-0.6c-0.1,0-0.2,0-0.2-0.2c0-0.1-0.1-0.2-0.2-0.2
		c0.1-0.3,0.1-0.5,0.1-0.5c0,0-0.1-0.1-0.2-0.1c-0.1,0-0.1,0-0.2-0.1c-0.1,0-0.1-0.1-0.1-0.2c0.1-0.2,0-0.5-0.1-0.8
		c-0.1-0.3-0.2-0.6-0.3-0.9s-0.2-0.6-0.2-0.9c0-0.3,0.1-0.6,0.4-0.8c1-0.1,1.8-0.4,2.6-0.8c0.8-0.4,1.5-0.9,2.2-1.4
		c0.7-0.5,1.3-1.1,1.8-1.6c0.6-0.6,1.1-1.1,1.7-1.6c0-0.3,0.1-0.5,0.2-0.7c0.1-0.2,0.2-0.4,0.4-0.6c0.1-0.2,0.2-0.4,0.3-0.6
		c0.1-0.2,0.1-0.4,0.1-0.7c0-0.2-0.1-0.3-0.2-0.3c-0.1,0-0.2-0.1-0.3-0.3l-0.5,0c-0.6-0.2-1.3-0.3-2-0.3c-0.7,0-1.3-0.1-1.9-0.2
		c-0.3,0.2-0.5,0.4-0.8,0.3c-0.3,0-0.6,0-1.1,0c-0.9,0.2-1.9,0.3-2.8,0.4c-0.9,0.1-1.8,0.1-2.7-0.1c-0.1-0.1-0.2-0.2-0.3-0.3
		c-0.1-0.1-0.3-0.1-0.5,0c-0.2-0.2-0.4-0.3-0.7-0.5c-0.2-0.2-0.4-0.3-0.6-0.6c0-0.3-0.1-0.6-0.1-0.9c0-0.2-0.2-0.4-0.4-0.6
		c0-0.4,0-0.7,0-0.9C166.2,49.2,166.1,48.9,165.9,48.5z"/>
	<path class="st0" d="M223.2,32c-0.7,0.2-1.4,0.4-2.2,0.7c-0.8,0.3-1.5,0.6-2.3,0.9c-0.5,0.2-1,0.4-1.5,0.6
		c-0.5,0.2-0.9,0.4-1.3,0.5c0,0.7-0.1,1.2-0.1,1.8c-0.1,0.5-0.2,1-0.3,1.5c-0.1,0.5-0.2,1-0.2,1.6c-0.1,0.5-0.1,1.1-0.1,1.7
		c-0.2,0.5-0.3,1-0.4,1.4c-0.1,0.4-0.1,0.9-0.1,1.4c-0.2,0.5-0.4,1-0.4,1.5c0,0.5-0.1,0.9-0.1,1.3l0,0.5c-0.1,0.2-0.2,0.4-0.2,0.5
		c0,0.1,0,0.2-0.1,0.3c0.1,0.3,0,0.6,0,1c0,0.2,0,0.3,0,0.4c0,0.1,0,0.2,0,0.3c0.1,0.3,0.1,0.5-0.1,0.6c0.1,0.1,0.1,0.3,0.1,0.4
		c0,0.2,0,0.3,0,0.5c0,0.3,0,0.6,0.1,0.8c0.1,0.1,0.2,0.2,0.3,0.2c0.1,0.1,0.2,0.2,0.2,0.3c0.2,0.1,0.3,0.1,0.4,0.1
		c0.1,0.1,0.3,0.1,0.6,0.2l0.5,0.3c0.3,0.8,0.4,1.4,0.1,2c-0.3,0.6-0.9,1.1-1.9,1.3l-0.5,0.1c-0.2-0.1-0.3-0.2-0.3-0.3
		c-0.2,0-0.4,0-0.6-0.1c-0.2,0-0.3-0.1-0.5-0.2c-0.4-0.1-0.7-0.1-1-0.2l-0.4-0.1c-0.1-0.3-0.1-0.5-0.1-0.5c-0.3-0.2-0.5-0.4-0.6-0.7
		c-0.2-0.3-0.3-0.6-0.5-0.8c-0.1-0.2-0.2-0.4-0.4-0.6c-0.1-0.2-0.3-0.4-0.4-0.5c-0.5-1.6-0.7-2.9-0.6-4.1c0.1-1.2,0.2-2.3,0.3-3.4
		c0.1-0.6,0.1-1.2,0.2-1.8c0.1-0.6,0.1-1.2,0.1-1.9l0.3-0.5c0.1-0.5,0.1-0.9,0.2-1.2c0-0.3,0.1-0.6,0.2-1c0-0.2,0.1-0.4,0.1-0.6
		c0-0.2,0-0.4,0.1-0.5c-0.2,0-0.3,0.1-0.4,0.1c-0.1,0.1-0.3,0.1-0.4,0.2c-0.2,0.1-0.3,0.1-0.4,0.2c-0.1,0.1-0.3,0.1-0.4,0.1
		c-0.2,0.1-0.3,0.1-0.4,0.1c-0.3,0.2-0.6,0.4-0.9,0.5l-0.4,0.1c-0.1,0-0.2,0-0.2,0c-0.1,0-0.1,0-0.2,0c-0.3,0.1-0.5,0.2-0.6,0.3
		c-0.3,0.1-0.6,0.2-0.9,0.3l-0.4,0.1c-0.1,0-0.1,0-0.2,0.1c-0.1,0-0.1,0.1-0.2,0.1c-0.2,0.1-0.4,0.1-0.6,0.1s-0.5,0-0.8-0.1
		c-0.4-0.3-0.7-0.5-0.8-0.5l-0.5-0.4c-0.1-0.2-0.2-0.3-0.2-0.4c-0.1-0.1-0.2-0.3-0.3-0.5c-0.2-0.2-0.4-0.5-0.5-0.8
		c-0.2-0.3-0.3-0.7-0.4-1.1c0-0.2,0-0.4,0-0.5c0.1-0.1,0.1-0.2,0.1-0.3l0-0.6l0.5-0.1l1.1-0.3c0.9-0.2,1.8-0.5,2.6-0.8
		c0.9-0.3,1.8-0.6,2.7-1c0.5-0.2,1.1-0.4,1.6-0.6c0.5-0.2,1.1-0.4,1.7-0.6c0-0.3,0.1-0.5,0.1-0.8l0.4-0.3c0.5-0.2,0.8-0.2,1.1-0.1
		c0.2,0.1,0.5,0.2,0.6,0.3c0.6-0.2,1.2-0.4,1.8-0.7c0.6-0.2,1.2-0.5,1.8-0.8c0.9-0.4,1.8-0.8,2.7-1.1c0.9-0.4,1.8-0.7,2.7-0.9
		c0.4-0.1,0.8-0.2,1.1-0.3c0.4-0.1,0.7-0.1,1-0.1l0.5,0.2c0.1,0.1,0.3,0.3,0.5,0.4s0.4,0.2,0.6,0.3c0.4,0.2,0.8,0.5,1.3,0.8
		c0.4,0.3,0.7,0.9,0.8,1.7c-0.1,0.4-0.2,0.6-0.3,0.7l-0.2,0.6l-0.4,0.1c-0.2,0-0.3,0.1-0.4,0.2c-0.1,0.1-0.2,0.2-0.4,0.3
		c-0.1,0.1-0.2,0.2-0.3,0.2c-0.1,0.1-0.2,0.1-0.3,0.2c-0.2,0.1-0.4,0.1-0.6,0.1C223.6,31.9,223.4,31.9,223.2,32z"/>
	<path class="st0" d="M245.2,43c0.2,0.7,0.3,1.3,0.2,1.8c-0.1,0.5-0.3,1-0.6,1.4c-0.3,0.4-0.7,0.8-1.1,1.1c-0.4,0.3-0.9,0.6-1.3,0.9
		c-0.3-0.1-0.5-0.2-0.7-0.3c-0.2-0.1-0.5-0.1-0.8-0.2c-0.5-0.6-1-1.1-1.5-1.5c-0.5-0.4-0.8-1-0.9-1.6c0,0,0-0.2-0.1-0.5
		c0-0.3-0.1-0.6-0.1-0.9c0-0.3,0-0.7-0.1-1c0-0.3-0.1-0.5-0.1-0.5c-0.6,0.2-1.2,0.5-1.9,0.9c-0.6,0.4-1.2,0.8-1.8,1.3
		c-0.6,0.5-1.1,0.9-1.6,1.4c-0.5,0.4-0.9,0.8-1.2,1.1c0,0.1,0,0.3,0,0.6c0,0.3-0.1,0.7-0.1,1.1c-0.1,0.4-0.2,0.7-0.3,1.1
		c-0.1,0.3-0.3,0.5-0.5,0.6c0,0.1,0.1,0.1,0.2,0.2c0.1,0.1,0.1,0.2,0.1,0.3c-0.4,0.2-0.7,0.4-0.9,0.7c-0.3,0.3-0.5,0.5-0.8,0.7
		c-0.3,0.2-0.6,0.4-1,0.5s-0.9,0.1-1.5-0.1c0-0.2-0.1-0.3-0.3-0.4c-0.2-0.1-0.3-0.2-0.5-0.2c-0.2-0.1-0.3-0.1-0.5-0.1
		c-0.1,0-0.2-0.1-0.2-0.1c-0.1,0.1-0.2,0-0.2-0.2c0-0.2,0.1-0.3,0.3-0.3c-0.4-0.3-0.7-0.6-0.8-0.9c-0.1-0.3-0.4-0.6-0.8-1
		c0-0.1,0.1-0.2,0.1-0.3c0-0.1,0-0.3,0-0.4c0-0.1,0-0.2,0.1-0.3s0.1-0.1,0.2,0c-0.1-0.2-0.2-0.4-0.2-0.6c0-0.2,0-0.3,0-0.5
		c0-0.2,0-0.3,0-0.4c0-0.1-0.1-0.3-0.2-0.4c0.3-0.7,0.4-1.4,0.3-2.2c0-0.7-0.1-1.4-0.3-2c0.1-0.2,0.2-0.6,0.3-1
		c0.1-0.4,0.1-0.8,0.1-1.2c0-0.4-0.1-0.8-0.2-1.1c-0.1-0.3-0.2-0.6-0.4-0.8c0-0.1,0.1-0.2,0.4-0.2c-0.1-0.9-0.2-2-0.5-3.1
		c-0.2-1.2-0.4-2.3-0.5-3.3c-0.1-1.1-0.1-2,0.1-2.9c0.2-0.9,0.7-1.6,1.4-2c0.3,0.5,0.7,1,1,1.3c0.4,0.4,0.8,0.7,1.2,1
		c0.4,0.3,0.8,0.6,1.3,1c0.4,0.3,0.8,0.7,1.3,1.2c0.1,0.5,0.2,1.1,0.3,1.8c0.1,0.7,0.2,1.4,0.2,2.2c0.1,0.7,0.1,1.5,0.2,2.1
		c0.1,0.7,0.1,1.3,0.1,1.8c0.1,0.1,0.2,0.2,0.3,0.2c0.1,0,0.2,0.1,0.2,0.4c0.6-0.3,1.3-0.7,1.9-1c0.7-0.3,1.3-0.7,2-1
		c0.7-0.4,1.3-0.7,1.9-1.1c0.6-0.4,1.2-0.8,1.7-1.3c-0.1-1.1-0.3-2.2-0.3-3.3c-0.1-1.1-0.3-2.2-0.8-3.3c0.1-0.1,0.2-0.3,0.2-0.5
		c0-0.2,0.1-0.3,0.3-0.4c-0.3-0.5-0.5-1-0.6-1.6s-0.2-1.2-0.1-1.7c0-0.6,0.2-1.1,0.4-1.5c0.2-0.5,0.6-0.8,1.1-1
		c0.4,0.4,0.8,0.8,1.2,1.2c0.4,0.4,0.7,0.9,1.1,1.3c0.4,0.4,0.7,0.9,1.1,1.2c0.4,0.4,0.8,0.7,1.3,0.9c0.3,0.8,0.6,1.6,0.8,2.4
		c0.3,0.8,0.5,1.7,0.8,2.6c0.1,1.1,0.1,2.2,0.1,3.2c0,1,0.1,2.1,0.3,3.2c-0.1,0.3-0.2,0.6-0.3,0.9c0,0.3-0.1,0.6-0.1,0.9
		c0,0.3-0.1,0.6-0.2,0.9c-0.1,0.3-0.2,0.6-0.3,0.8c0.2,0.3,0.3,0.6,0.3,0.9C244.7,42.3,244.9,42.6,245.2,43z"/>
	<path class="st0" d="M257.6,40.9c0.4,0.8,0.5,1.4,0.4,2c-0.1,0.5-0.3,1-0.7,1.3c-0.4,0.3-0.8,0.6-1.4,0.8c-0.5,0.2-1.1,0.3-1.6,0.3
		c-0.4-0.3-0.7-0.7-1.1-1.2c-0.4-0.5-0.7-1.1-1.1-1.6s-0.7-1.1-1-1.7c-0.3-0.6-0.6-1.1-0.8-1.5c0-0.4,0-0.8,0-1.2
		c-0.1-0.4-0.2-0.9-0.3-1.3c-0.1-0.4-0.2-0.9-0.3-1.3c-0.1-0.5-0.2-0.9-0.2-1.3c-0.1-1.2-0.1-2.4,0-3.5c0.1-1.1,0.1-2.3,0-3.5
		c0-0.3-0.1-0.5-0.2-0.7c-0.2-0.2-0.2-0.4-0.2-0.6c0-0.1,0.1-0.2,0.2-0.3c0.1-0.1,0.2-0.2,0.2-0.3c0-0.3,0-0.6-0.1-0.8
		c-0.1-0.2-0.1-0.4,0-0.7c0.1-0.3,0.2-0.6,0.3-1.1c0.1-0.5,0-0.9-0.1-1.4c0.2-0.2,0.4-0.5,0.5-0.8c0.2-0.3,0.3-0.5,0.5-0.8
		c0.2-0.2,0.4-0.5,0.7-0.7c0.3-0.2,0.6-0.4,1-0.5c0.3,0.2,0.5,0.5,0.7,0.8c0.2,0.3,0.3,0.6,0.5,0.9c0.2,0.3,0.3,0.6,0.6,0.8
		c0.2,0.2,0.5,0.4,0.9,0.5c0.1,0.2,0.1,0.5,0.2,0.8c0.1,0.3,0.2,0.6,0.3,1c0.1,0.3,0.2,0.6,0.4,0.8c0.2,0.2,0.4,0.4,0.6,0.4
		c-0.1,1.4-0.3,2.9-0.3,4.3c-0.1,1.4-0.1,2.8,0,4.1c0.1,1.4,0.2,2.7,0.5,4C256.6,38.3,257,39.6,257.6,40.9z"/>
	<path class="st0" d="M258.9,23.8c0-0.6,0.2-1.2,0.5-1.7c0.3-0.5,0.7-1,1.1-1.4c0.4-0.4,0.9-0.8,1.4-1.1c0.5-0.3,1-0.6,1.4-0.9
		c1-0.8,2-1.5,3.1-2.3c1.1-0.8,2.3-1.5,3.5-2.1c1.2-0.7,2.5-1.2,3.8-1.7c1.3-0.5,2.8-0.7,4.4-0.6c0.2,0.3,0.3,0.5,0.6,0.7
		s0.5,0.4,0.7,0.6c0.2,0.2,0.5,0.4,0.7,0.6c0.2,0.2,0.3,0.4,0.4,0.7c0.3,0.2,0.6,0.4,0.9,0.6c0.2,0.2,0.4,0.6,0.4,1.1
		c-0.2,0.3-0.4,0.6-0.6,0.8c-0.2,0.2-0.5,0.5-0.7,0.7c-1.1,0-2.1,0.2-3.1,0.6c-1,0.4-1.9,0.7-2.7,0.9c-0.3-0.2-0.6-0.2-1-0.1
		c-0.3,0.1-0.7,0.2-1,0.4c-0.3,0.2-0.7,0.4-1,0.6c-0.3,0.2-0.7,0.3-1,0.4c-0.2,0.3-0.5,0.5-0.9,0.7c-0.4,0.2-0.8,0.3-1.2,0.5
		c0,0.1,0.1,0.2,0.2,0.2c0.1,0,0.1,0.1,0.1,0.3c0.2,0.1,0.5,0.2,0.7,0.2c0.3,0,0.6,0,0.9,0c0.3,0,0.6,0,0.8,0.1
		c0.3,0.1,0.5,0.2,0.6,0.5c0.4-0.1,0.8-0.1,1.1,0c0.4,0.1,0.7,0.3,0.9,0.5c0.3,0.2,0.5,0.5,0.7,0.8c0.2,0.3,0.3,0.6,0.4,0.8
		c0.1,0.2,0.3,0.3,0.4,0.2c0.1-0.1,0.2,0,0.4,0.1c0.2,0.3,0.5,0.6,0.9,0.9c0.4,0.3,0.8,0.6,1.1,1c0.2,0.7,0.4,1.3,0.6,1.8
		c0.2,0.5,0.2,1.1,0.1,1.7c-0.1,1.1-0.5,2.2-1,3.2c-0.5,1-1.1,1.9-1.9,2.8c-0.8,0.9-1.6,1.6-2.5,2.4c-0.9,0.7-1.8,1.4-2.7,1.9
		c-0.1,0-0.2,0-0.3,0.1c-0.1,0.1-0.1,0-0.1-0.2c-0.2,0.2-0.4,0.4-0.6,0.6s-0.5,0.2-0.8,0.3c-0.3,0.1-0.6,0.1-0.9,0.2
		c-0.3,0.1-0.6,0.1-0.9,0.3c-0.2-0.1-0.5-0.3-0.7-0.4c-0.2-0.1-0.4-0.3-0.5-0.6c-0.1,0-0.2,0-0.2-0.2c0-0.1-0.1-0.2-0.2-0.2
		c0.1-0.3,0.1-0.5,0.1-0.5c0,0-0.1-0.1-0.1-0.1c-0.1,0-0.1,0-0.2-0.1c-0.1,0-0.1-0.1-0.1-0.2c0.1-0.2,0-0.5-0.1-0.8
		c-0.1-0.3-0.2-0.6-0.3-0.9c-0.1-0.3-0.2-0.6-0.2-0.9c0-0.3,0.1-0.6,0.4-0.8c1-0.1,1.8-0.4,2.6-0.8c0.8-0.4,1.5-0.9,2.2-1.4
		c0.7-0.5,1.3-1.1,1.8-1.6c0.6-0.6,1.1-1.1,1.7-1.6c0-0.3,0.1-0.5,0.2-0.7c0.1-0.2,0.2-0.4,0.4-0.6c0.1-0.2,0.2-0.4,0.3-0.6
		c0.1-0.2,0.1-0.4,0.1-0.7c0-0.2-0.1-0.3-0.2-0.3c-0.1,0-0.2-0.1-0.3-0.3l-0.5,0c-0.6-0.2-1.3-0.3-2-0.3c-0.7,0-1.3-0.1-1.9-0.2
		c-0.3,0.2-0.5,0.4-0.8,0.3c-0.3,0-0.6,0-1.1,0c-0.9,0.2-1.9,0.3-2.8,0.4c-0.9,0.1-1.8,0.1-2.7-0.1c-0.1-0.1-0.2-0.2-0.3-0.3
		c-0.1-0.1-0.3-0.1-0.5,0c-0.2-0.2-0.4-0.3-0.7-0.5c-0.2-0.2-0.4-0.3-0.6-0.6c0-0.3-0.1-0.6-0.1-0.9c0-0.2-0.2-0.4-0.4-0.6
		c0-0.4,0-0.7,0-0.9C259.1,24.5,259.1,24.2,258.9,23.8z"/>
	<path class="st0" d="M299.9,2.5c0.2,0.2,0.5,0.4,0.7,0.5c0.2,0.2,0.4,0.3,0.8,0.3c0,0.7,0.2,1.4,0.4,2s0.4,1.3,0.7,2
		c0.2,2.2-0.2,4.1-1.2,5.7c-1,1.6-2.3,2.8-3.9,3.8c0.1,0.3,0,0.5-0.1,0.6c-0.5,0.2-0.9,0.5-1.1,0.7c-0.2,0.3-0.4,0.5-0.6,0.8
		c-0.2,0.3-0.4,0.6-0.7,0.9c-0.3,0.3-0.7,0.6-1.3,0.9c-0.1,0.3-0.2,0.6-0.4,0.7c-0.2,0.1-0.4,0.3-0.6,0.4c-0.2,0.1-0.4,0.2-0.6,0.4
		c-0.2,0.2-0.3,0.4-0.3,0.8l-1.8,2.8c-0.7,0-1.3,0.1-1.8,0.2c-0.5,0.1-0.9,0.2-1.2,0.3c-0.3,0-0.6-0.1-0.9-0.3
		c-0.2-0.2-0.5-0.7-0.8-1.5c0-0.3,0-0.5,0.2-0.6c0.2-0.1,0.2-0.3,0.2-0.6c-0.2-0.6-0.2-1.1-0.1-1.4c0.1-0.3,0.3-0.6,0.5-0.9
		s0.5-0.6,0.7-0.9c0.2-0.3,0.4-0.7,0.5-1.3c0.4-0.3,0.8-0.7,1.2-1.3c0.4-0.6,0.8-1.1,1.1-1.6c0.6-0.5,1.1-1,1.5-1.4
		c0.4-0.4,0.8-0.8,1.1-1.2c0.3-0.4,0.7-0.8,1-1.2s0.7-1,1.1-1.6c-0.2-0.3-0.5-0.4-0.9-0.4c-0.4,0.1-0.8,0.2-1.2,0.4
		c-0.9,0-1.7,0-2.4,0.1c-0.8,0.1-1.7,0.3-2.7,0.5c-0.4,0.1-0.6,0.2-0.8,0.3c-0.2,0.1-0.4,0.2-0.8,0.2c-0.1,0.2-0.3,0.3-0.5,0.5
		c-0.2,0.1-0.4,0.3-0.6,0.4c-0.2,0.1-0.4,0.3-0.6,0.4c-0.2,0.1-0.4,0.3-0.6,0.4c-0.6,0-1.1-0.1-1.5-0.4c-0.4-0.3-0.9-0.5-1.4-0.6
		c-0.1-0.2-0.1-0.3,0-0.4c0.1-0.1,0.1-0.3,0-0.5c-0.3-0.1-0.5-0.1-0.5-0.2c0-0.1-0.1-0.2-0.4-0.3c0-0.5,0.1-0.9,0.2-1.3
		c0.1-0.4,0.3-0.7,0.4-1.1c0.2-0.4,0.3-0.7,0.5-1c0.2-0.3,0.3-0.7,0.4-1.1c0.4-0.2,0.7-0.5,1-0.8c0.3-0.3,0.5-0.6,0.7-1
		c1.4-0.6,2.9-1,4.3-1.3c1.4-0.3,2.8-0.5,4.3-0.7c1.4-0.1,2.9-0.2,4.4-0.2C296.8,2.4,298.3,2.4,299.9,2.5z M290.4,30.2
		c0.1,0.4,0.1,0.7,0.1,0.9c0,0.2,0,0.4,0.1,0.5c0,0.2,0.1,0.4,0.2,0.6c0.1,0.2,0.3,0.6,0.5,1.1l0.3,0.6l-0.5,0.3
		c-0.1,0.1-0.3,0.2-0.6,0.5c-0.3,0.3-0.5,0.6-0.7,0.8c-0.3,0.3-0.6,0.7-0.9,1c-0.3,0.3-0.6,0.6-0.9,0.7c-0.5-0.1-0.8-0.2-1-0.3
		s-0.4-0.1-0.6-0.2c-0.2-0.2-0.4-0.4-0.6-0.6c-0.2-0.2-0.4-0.4-0.6-0.6c-0.1-0.2-0.2-0.3-0.3-0.3c0,0-0.1-0.1-0.1-0.1
		c0,0-0.1,0-0.1,0s-0.2-0.1-0.3-0.2l-0.4-0.4c-0.1-0.2-0.1-0.4-0.1-0.7c0-0.2,0-0.4,0-0.6c0-0.1,0-0.2,0-0.3c0-0.1,0-0.2,0-0.3
		l-0.4-0.3l0.2-0.5c0.1-0.3,0.2-0.6,0.2-0.7c0.1-0.1,0.1-0.3,0.2-0.5l0.3-0.4c0.7-0.2,1.3-0.5,1.7-0.7c0.5,0,0.8,0,1,0
		c0.2,0.1,0.3,0.1,0.5,0.2c0.4,0.1,0.6,0.2,0.7,0.2l0.8-0.2l0.1,0.6L290.4,30.2z"/>
	<path class="st0" d="M22.3,157.3c-0.1,0-0.1,0-0.2,0c0-0.1-0.1-0.2-0.1-0.2c0-0.1,0-0.2,0.1-0.2c0.1-0.1,0.1-0.1,0.3-0.1
		c-0.5-0.3-0.8-0.7-1-1c-0.2-0.3-0.5-0.7-0.9-1.2c0.1-0.1,0.1-0.2,0.1-0.4c0-0.2,0-0.3,0-0.5c0-0.1,0-0.3,0.1-0.4
		c0-0.1,0.1-0.1,0.3,0c-0.1-0.3-0.2-0.5-0.2-0.7c0-0.2,0-0.4,0-0.6c0-0.2,0-0.4,0-0.5c0-0.2-0.1-0.4-0.3-0.5
		c0.3-0.8,0.5-1.7,0.4-2.6c-0.1-0.9-0.2-1.7-0.3-2.4c0.2-0.3,0.3-0.7,0.4-1.2c0.1-0.5,0.1-0.9,0.1-1.4c0-0.5-0.1-0.9-0.2-1.3
		c-0.1-0.4-0.3-0.7-0.4-1c0-0.1,0-0.2,0.1-0.2c0.1,0,0.2-0.1,0.4-0.1c-0.1-1.1-0.3-2.4-0.6-3.8c-0.3-1.4-0.5-2.7-0.6-4
		c-0.1-1.3-0.1-2.5,0.1-3.5c0.2-1.1,0.8-1.9,1.7-2.4c0.4,0.6,0.8,1.2,1.2,1.6c0.5,0.4,0.9,0.8,1.4,1.2c0.5,0.4,1,0.8,1.5,1.2
		c0.5,0.4,1,0.8,1.5,1.4c0.1,0.6,0.3,1.4,0.4,2.2c0.1,0.8,0.2,1.7,0.3,2.6c0.1,0.9,0.1,1.7,0.2,2.6c0.1,0.8,0.1,1.5,0.1,2.1
		c0.1,0.1,0.2,0.2,0.4,0.2c0.2,0,0.2,0.1,0.2,0.4c0.7-0.4,1.5-0.8,2.3-1.2c0.8-0.4,1.6-0.8,2.4-1.2c0.8-0.4,1.5-0.8,2.3-1.3
		c0.7-0.5,1.4-1,2-1.5c-0.2-1.4-0.3-2.7-0.4-4.1c-0.1-1.3-0.4-2.7-1-3.9c0.1-0.2,0.2-0.4,0.3-0.6c0.1-0.2,0.2-0.4,0.4-0.5
		c-0.3-0.6-0.6-1.2-0.7-1.9c-0.2-0.7-0.2-1.4-0.2-2c0-0.7,0.2-1.3,0.5-1.8c0.3-0.6,0.7-1,1.3-1.3c0.5,0.4,1,0.9,1.4,1.4
		c0.4,0.5,0.9,1.1,1.3,1.6c0.4,0.5,0.9,1,1.3,1.5c0.5,0.5,1,0.8,1.6,1.1c0.3,0.9,0.7,1.9,1,2.9c0.3,1,0.6,2,0.9,3.1
		c0.1,1.3,0.1,2.6,0.1,3.8c0,1.2,0.1,2.5,0.3,3.9c-0.2,0.3-0.3,0.6-0.3,1c0,0.4-0.1,0.8-0.1,1.1c0,0.4-0.1,0.7-0.2,1.1
		c-0.1,0.4-0.2,0.7-0.4,1c0.2,0.4,0.3,0.7,0.4,1.1c0,0.4,0.2,0.7,0.6,1.1c0.3,0.8,0.4,1.6,0.3,2.2c-0.1,0.6-0.3,1.2-0.7,1.7
		c-0.3,0.5-0.8,1-1.3,1.4c-0.5,0.4-1,0.8-1.6,1.1c-0.3-0.1-0.6-0.2-0.9-0.3c-0.3-0.1-0.6-0.2-0.9-0.2l0.1-0.4
		c-0.7-0.4-1.3-0.9-1.9-1.4c-0.6-0.5-0.9-1.2-1.1-2c0,0,0-0.2-0.1-0.6c0-0.4-0.1-0.7-0.1-1.1c0-0.4-0.1-0.8-0.1-1.1
		c0-0.4,0-0.6,0-0.6c-0.7,0.3-1.5,0.7-2.2,1.2s-1.5,1-2.2,1.6c-0.7,0.5-1.3,1.1-1.9,1.6c-0.6,0.5-1,1-1.4,1.4c0,0.1,0,0.3,0,0.8
		c0,0.4-0.1,0.9-0.2,1.3c-0.1,0.5-0.2,0.9-0.3,1.3c-0.1,0.4-0.3,0.6-0.6,0.6c0.1,0.1,0.2,0.2,0.2,0.3c0.1,0.1,0.1,0.2,0.1,0.4
		c-0.4,0.3-0.8,0.5-1.1,0.9c-0.3,0.3-0.6,0.6-1,0.9c-0.3,0.3-0.7,0.4-1.2,0.5c-0.5,0.1-1,0.1-1.8-0.1c-0.1-0.2-0.2-0.3-0.4-0.4
		c-0.2-0.1-0.4-0.2-0.6-0.3c-0.2-0.1-0.4-0.1-0.5-0.2C22.4,157.5,22.3,157.4,22.3,157.3z"/>
	<path class="st0" d="M67.9,122c0.1,0.2,0.1,0.3,0.1,0.4c0,0.1,0,0.2,0,0.3c0,0.1,0,0.2,0,0.3c0,0.1,0.1,0.2,0.2,0.4
		c-0.3,1.1-0.8,1.9-1.5,2.4c-0.7,0.5-1.4,1-2.2,1.4c-0.8,0.4-1.7,0.8-2.6,1.2c-0.9,0.4-1.7,1-2.4,1.8c-0.4,0-0.7,0-1,0.3
		s-0.7,0.4-1.2,0.5c-0.1,0.2-0.3,0.4-0.5,0.5s-0.5,0.3-0.7,0.4c0.2,0.2,0.3,0.5,0.3,0.7c0.1,0.3,0.1,0.5,0.3,0.6
		c1-0.2,2-0.5,3.2-0.9c1.1-0.4,2.3-0.8,3.4-1.1c0.1,0.1,0.1,0.2,0,0.3c0,0.1,0,0.1,0,0.2c0.2,0.1,0.5,0.2,0.7,0.4
		c0.2,0.2,0.5,0.3,0.7,0.4c0.2,0.1,0.5,0.2,0.7,0.3c0.2,0.1,0.5,0.1,0.8,0c0.2,0.2,0.3,0.4,0.4,0.7c0.1,0.2,0.1,0.5,0.1,0.8
		c-0.4,0.4-0.7,0.8-1.1,1.3c-0.4,0.4-0.7,0.8-1.1,1.2c-0.4,0.4-0.9,0.7-1.4,1c-0.5,0.3-1.1,0.5-1.7,0.7c-0.1,0-0.2,0.1-0.3,0.1
		c-0.1,0-0.2,0-0.3-0.1c-0.2,0.2-0.5,0.3-0.9,0.4c-0.4,0.1-0.7,0.2-0.9,0.4c-0.3-0.1-0.7,0-1.1,0.1c-0.4,0.1-0.8,0.2-1.2,0.2
		c-0.3,0.7-0.5,1.4-0.7,2.2c-0.2,0.8-0.3,1.5-0.4,2.3c1-0.1,1.8-0.3,2.4-0.5c0.6-0.2,1.2-0.4,1.7-0.6c0.5-0.2,1.1-0.4,1.6-0.7
		c0.6-0.2,1.3-0.4,2.2-0.6c0.5-0.4,1.1-0.8,1.8-1.1c0.7-0.3,1.4-0.6,1.9-1c0.2,0,0.5,0.1,0.7,0.3c0.2,0.2,0.4,0.3,0.6,0.4
		c0.2,0.1,0.4,0.3,0.6,0.3c0.2,0.1,0.4,0.1,0.7,0c0.1,0.1,0.2,0.2,0.3,0.3c0.1,0.1,0.2,0.3,0.2,0.4c0.1,0.1,0.1,0.2,0.2,0.3
		c0.1,0.1,0.2,0.1,0.4,0c-0.2,1-0.5,1.8-0.9,2.4c-0.4,0.6-0.9,1.1-1.5,1.6c-0.6,0.4-1.3,0.8-2.1,1.2c-0.8,0.4-1.7,0.8-2.6,1.2
		c-0.2,0.1-0.4,0.2-0.6,0.1c-0.2,0-0.4,0-0.6,0c-0.6,0.3-1.3,0.6-2.2,1c-0.8,0.3-1.7,0.6-2.6,0.8c-0.9,0.2-1.8,0.3-2.7,0.3
		c-0.9,0-1.6-0.2-2.3-0.6c-0.3-0.1-0.5-0.3-0.6-0.6c-0.1-0.2-0.4-0.4-0.7-0.4c-0.1-0.3-0.3-0.7-0.5-1.1c-0.2-0.4-0.4-0.9-0.6-1.3
		c-0.2-0.5-0.4-0.9-0.6-1.4c-0.2-0.5-0.3-0.9-0.3-1.3c0-0.4,0-0.8,0.2-1.2c0.2-0.4,0.2-0.8,0-1.1c0.1-0.1,0.2-0.2,0.2-0.3
		c0-0.1,0.1-0.2,0.3-0.2c0-0.5,0.1-1,0.2-1.5c0.1-0.5,0.2-1,0.3-1.4c0.1-0.5,0.2-0.9,0.3-1.4c0.1-0.5,0.2-1,0.2-1.6
		c-0.5-0.3-0.9-0.6-1.1-0.9c-0.3-0.4-0.5-0.8-0.7-1.2c-0.2-0.4-0.4-0.8-0.6-1.3c-0.2-0.4-0.4-0.9-0.7-1.3c0.2-0.5,0.4-0.9,0.7-1.3
		c0.3-0.4,0.7-0.7,1.1-1c0.4-0.3,0.9-0.6,1.4-0.8c0.5-0.3,1.1-0.5,1.6-0.8c1-0.6,1.9-1.2,2.7-1.6c0.8-0.4,1.6-0.8,2.4-1.1
		c0.8-0.3,1.6-0.7,2.5-1c0.9-0.3,1.9-0.8,2.9-1.3c0.3,0.2,0.6,0.2,0.8,0.2c0-0.3,0.2-0.4,0.3-0.3c0.2,0.1,0.2,0,0.1-0.3
		c0.4,0.4,0.8,0.7,1.4,0.9C66.8,121.8,67.4,121.9,67.9,122z"/>
	<path class="st0" d="M83.8,142c-0.7,0.4-1.5,0.9-2.3,1.4c-0.8,0.5-1.7,0.8-2.6,1.1c-1.4,0.4-2.5,0.3-3.5-0.2
		c-0.2-0.3-0.4-0.4-0.5-0.5c-0.1-0.1-0.2-0.2-0.3-0.3c-0.1-0.1-0.2-0.3-0.3-0.5c-0.4-0.3-0.8-0.7-1.1-1.1c-0.3-0.5-0.6-0.9-0.8-1.5
		c-0.2-0.5-0.4-1-0.5-1.6c-0.1-0.6-0.2-1.1-0.1-1.6c0-0.1,0-0.2,0-0.4c0-0.1,0-0.2,0-0.4c0-0.5,0-0.9,0-1.4c0-0.4,0.1-0.8,0.2-1.2
		c-0.2-0.2-0.2-0.5-0.2-0.8c0-0.3,0.1-0.6,0.2-0.9c0.1-1.1,0.2-2.1,0.3-2.9c0.1-0.8,0.1-1.6,0.2-2.4c0.1-1.4,0.3-2.7,0.3-4
		c0.1-1.3,0.1-2.7,0.1-4.2c0.2-0.2,0.3-0.3,0.4-0.4c0.1-0.1,0.3-0.2,0.4-0.2c0.6,0.1,1.2,0.2,1.9,0.3c0.7,0.1,1.3,0,1.7-0.1
		c0.3,0.1,0.4,0.1,0.5,0.2c0.1,0.1,0.1,0.1,0.2,0.1c0.4,0.3,0.8,0.6,1.1,0.9c0.3,0.3,0.5,0.8,0.6,1.4c-0.1,0.3-0.2,0.4-0.3,0.5
		c0,0.6,0,1.1-0.1,1.5c0,0.4-0.1,0.8-0.2,1.3c-0.1,0.5-0.2,0.9-0.2,1.4c-0.1,0.5-0.1,1,0,1.6c-0.1,0.2-0.1,0.3-0.1,0.4
		c0,0.1,0,0.3,0,0.4c0,0.2,0,0.3-0.1,0.5c0,0.2-0.1,0.3-0.2,0.5c0.1,0.7,0.1,1.3,0.1,1.8c-0.1,0.5-0.1,1-0.2,1.5
		c-0.1,0.9-0.2,1.8-0.2,2.6c0,0.9,0,1.8,0.2,2.8c0.1-0.1,0.2-0.2,0.4-0.2c0.1,0,0.2-0.1,0.3-0.1c0.2-0.1,0.5-0.1,0.9-0.1
		c0.7-0.7,1.5-1.2,2.5-1.5c0.9-0.3,1.9-0.6,2.8-0.9c0.4-0.1,0.8-0.2,1.1-0.3s0.7-0.2,1-0.4c0.3,0.1,0.5,0.1,0.5,0.1
		c0.1,0,0.2,0,0.3-0.1c0.2-0.1,0.4-0.1,0.5-0.1c0.4,0.2,0.8,0.3,1.1,0.4c0.3,0.1,0.7,0.1,1,0.1c0.3,0,0.7,0.1,1,0.1
		c0.3,0,0.6,0.1,1,0.3l0.8,1.7c0.3,0.2,0.4,0.3,0.4,0.4c0.1,0.2,0,0.4,0,0.5l0.2,0.4c-0.4,0.2-0.6,0.4-0.8,0.5
		c-0.1,0.1-0.2,0.3-0.3,0.5c-0.2,0.1-0.4,0.1-0.5,0.2c-0.1,0-0.2,0-0.3,0.1c-0.4,0.1-0.8,0.3-1.3,0.6c-0.8-0.1-1.6,0-2.4,0.2
		c-0.3,0.1-0.6,0.2-0.9,0.3c-0.3,0.1-0.6,0.2-1,0.3c-0.3,0.1-0.6,0.3-1,0.4c-0.3,0.1-0.7,0.2-1,0.3L83.8,142z"/>
	<path class="st0" d="M103.3,110.1c1.2-0.2,2.3-0.2,3.3-0.1c1,0.1,1.9,0.3,2.6,0.7c0.6,0.6,1.2,1.2,1.8,1.9c0.6,0.7,1.1,1.4,1.6,2.2
		c0.4,0.8,0.8,1.7,1,2.6c0.2,0.9,0.3,1.9,0.1,2.9c-0.5,1.2-1.3,2.2-2.3,3.2c-1,0.9-2.1,1.7-3.3,2.5c-1.2,0.7-2.5,1.4-3.8,2.1
		c-1.3,0.6-2.6,1.3-3.9,1.9c0.2,0.6,0.4,1.3,0.5,2c0.2,0.7,0.3,1.4,0.3,2.1s0.1,1.5,0,2.2c-0.1,0.7-0.2,1.4-0.5,2.1
		c-0.5,0.1-0.9,0.3-1.4,0.6c-0.5,0.3-0.9,0.5-1.2,0.7c-0.2-0.1-0.4-0.1-0.6-0.2c-0.2-0.1-0.4-0.1-0.7,0c0-0.3-0.2-0.5-0.4-0.8
		c-0.3-0.2-0.5-0.5-0.8-0.7c-0.3-0.2-0.5-0.5-0.6-0.8c-0.1-0.3-0.1-0.5,0.2-0.9c-0.2-0.1-0.4-0.4-0.5-0.7c0.1-0.4,0.2-0.9,0.2-1.5
		c0-0.6,0-1.2-0.1-1.8c-0.1-0.6-0.2-1.1-0.3-1.6c-0.2-0.4-0.5-0.7-1.1-0.8c0-0.1,0.1-0.1,0.1-0.1c0.1,0,0.2-0.1,0.2-0.1
		c-0.3-0.1-0.5-0.3-0.6-0.6c-0.1-0.3-0.3-0.5-0.5-0.7c0-0.2,0-0.3,0-0.4c0-0.1,0.1-0.2,0.3-0.2c-0.2-0.5-0.3-0.9-0.3-1.4
		c0-0.5,0-0.9,0.1-1.4c0.1-0.4,0.2-0.9,0.4-1.4c0.2-0.5,0.3-0.9,0.5-1.4c0.2-0.1,0.3-0.1,0.4,0c0.1,0.1,0.1,0,0.3-0.1
		c0.3-0.4,0.5-0.7,0.5-1.1c0.1-0.3,0-0.7-0.1-1.1c0-0.6,0.1-1.3,0.2-1.9c0.1-0.7,0.3-1.3,0.5-1.9c0.2-0.6,0.4-1.1,0.7-1.6
		c0.3-0.5,0.6-0.9,1-1.2c0.3-0.4,0.6-0.7,1-1.1c0.4-0.4,0.9-0.7,1.5-1c0.5-0.3,1.1-0.5,1.7-0.7c0.6-0.2,1.1-0.3,1.7-0.2
		c0.2,0,0.2,0,0.2-0.1C103.2,110.2,103.3,110.1,103.3,110.1z M104.3,120.4c0.6-0.5,1.3-0.9,2-1.3c0.7-0.4,1.3-0.9,1.7-1.5
		c-0.4-0.2-1-0.4-1.6-0.4c-0.7-0.1-1.4,0-2.2,0.1c-0.8,0.1-1.5,0.4-2.2,0.8s-1.3,0.9-1.7,1.5c0,0.5-0.1,1-0.1,1.3
		c0,0.3-0.1,0.7-0.2,1.2c0.1,0.1,0.2,0.2,0.3,0.2c0.1,0,0.3,0.1,0.3,0.2c0.5-0.5,1.1-0.8,1.8-1.1
		C103.1,121.2,103.7,120.8,104.3,120.4z"/>
	<path class="st0" d="M150.2,103.8c-0.7,0.2-1.4,0.4-2.2,0.7c-0.8,0.3-1.5,0.6-2.3,0.9c-0.5,0.2-1,0.4-1.5,0.6
		c-0.5,0.2-0.9,0.4-1.3,0.5c0,0.7-0.1,1.2-0.1,1.8c-0.1,0.5-0.2,1-0.3,1.5c-0.1,0.5-0.2,1-0.2,1.6c-0.1,0.5-0.1,1.1-0.1,1.7
		c-0.2,0.5-0.3,1-0.4,1.4c-0.1,0.4-0.1,0.9-0.1,1.4c-0.2,0.5-0.4,1-0.4,1.5c0,0.5-0.1,0.9-0.1,1.3l0,0.5c-0.1,0.2-0.2,0.4-0.2,0.5
		c0,0.1,0,0.2-0.1,0.3c0.1,0.3,0,0.6,0,1c0,0.2,0,0.3,0,0.4c0,0.1,0,0.2,0,0.3c0.1,0.3,0.1,0.5-0.1,0.6c0.1,0.1,0.1,0.3,0.1,0.4
		c0,0.2,0,0.3,0,0.5c0,0.3,0,0.6,0.1,0.8c0.1,0.1,0.2,0.2,0.3,0.2c0.1,0.1,0.2,0.2,0.2,0.3c0.2,0.1,0.3,0.1,0.4,0.1
		c0.1,0.1,0.3,0.1,0.6,0.2l0.5,0.3c0.3,0.8,0.4,1.4,0.1,2c-0.3,0.6-0.9,1.1-1.9,1.3l-0.5,0.1c-0.2-0.1-0.3-0.2-0.3-0.3
		c-0.2,0-0.4,0-0.6-0.1c-0.2,0-0.3-0.1-0.5-0.2c-0.4-0.1-0.7-0.1-1-0.2l-0.4-0.1c-0.1-0.3-0.1-0.5-0.1-0.5c-0.3-0.2-0.5-0.4-0.6-0.7
		c-0.2-0.3-0.3-0.6-0.5-0.8c-0.1-0.2-0.2-0.4-0.4-0.6c-0.1-0.2-0.3-0.4-0.4-0.5c-0.5-1.6-0.7-2.9-0.6-4.1c0.1-1.2,0.2-2.3,0.3-3.4
		c0.1-0.6,0.1-1.2,0.2-1.8c0.1-0.6,0.1-1.2,0.1-1.9l0.3-0.5c0.1-0.5,0.1-0.9,0.2-1.2c0-0.3,0.1-0.6,0.2-1c0-0.2,0.1-0.4,0.1-0.6
		c0-0.2,0-0.4,0.1-0.5c-0.2,0-0.3,0.1-0.4,0.1c-0.1,0-0.3,0.1-0.4,0.2c-0.2,0.1-0.3,0.1-0.4,0.2s-0.3,0.1-0.4,0.1
		c-0.2,0.1-0.3,0.1-0.4,0.1c-0.3,0.2-0.6,0.4-0.9,0.5l-0.4,0.1c-0.1,0-0.2,0-0.2,0c-0.1,0-0.1,0-0.2,0c-0.3,0.1-0.5,0.2-0.6,0.3
		c-0.3,0.1-0.6,0.2-0.9,0.2l-0.4,0.1c-0.1,0-0.1,0-0.2,0.1c-0.1,0-0.1,0.1-0.2,0.1c-0.2,0.1-0.4,0.1-0.6,0.1c-0.2,0-0.5,0-0.8-0.1
		c-0.4-0.3-0.7-0.5-0.8-0.5l-0.5-0.4c-0.1-0.2-0.2-0.3-0.2-0.4c-0.1-0.1-0.2-0.3-0.3-0.5c-0.2-0.2-0.4-0.5-0.5-0.8
		c-0.2-0.3-0.3-0.7-0.4-1.1c0-0.2,0-0.4,0-0.5c0.1-0.1,0.1-0.2,0.1-0.3l0-0.6l0.5-0.1l1.1-0.3c0.9-0.2,1.8-0.5,2.6-0.8
		c0.9-0.3,1.8-0.6,2.7-1c0.5-0.2,1.1-0.4,1.6-0.6c0.5-0.2,1.1-0.4,1.7-0.6c0-0.3,0.1-0.5,0.1-0.8l0.4-0.3c0.5-0.2,0.8-0.2,1.1-0.1
		c0.2,0.1,0.5,0.2,0.6,0.3c0.6-0.2,1.2-0.4,1.8-0.7c0.6-0.2,1.2-0.5,1.8-0.8c0.9-0.4,1.8-0.8,2.7-1.1c0.9-0.4,1.8-0.7,2.7-0.9
		c0.4-0.1,0.8-0.2,1.1-0.3c0.4-0.1,0.7-0.1,1-0.1l0.5,0.2c0.1,0.1,0.3,0.3,0.5,0.4c0.2,0.1,0.4,0.2,0.6,0.3c0.4,0.2,0.8,0.5,1.3,0.8
		c0.4,0.3,0.7,0.9,0.8,1.7c-0.1,0.4-0.2,0.6-0.3,0.7l-0.2,0.6l-0.4,0.1c-0.2,0-0.3,0.1-0.4,0.2c-0.1,0.1-0.2,0.2-0.4,0.3
		c-0.1,0.1-0.2,0.2-0.3,0.2c-0.1,0.1-0.2,0.1-0.3,0.2c-0.2,0.1-0.4,0.1-0.6,0.1C150.6,103.7,150.4,103.7,150.2,103.8z"/>
	<path class="st0" d="M172.2,114.8c0.2,0.7,0.3,1.3,0.2,1.8c-0.1,0.5-0.3,1-0.6,1.4c-0.3,0.4-0.7,0.8-1.1,1.1
		c-0.4,0.3-0.9,0.6-1.3,0.9c-0.3-0.1-0.5-0.2-0.7-0.3c-0.2-0.1-0.5-0.1-0.8-0.2c-0.5-0.6-1-1.1-1.5-1.5c-0.5-0.4-0.8-1-0.9-1.6
		c0,0,0-0.2-0.1-0.5c0-0.3-0.1-0.6-0.1-0.9c0-0.3,0-0.7-0.1-1c0-0.3-0.1-0.5-0.1-0.5c-0.6,0.2-1.2,0.5-1.9,0.9
		c-0.6,0.4-1.2,0.8-1.8,1.3c-0.6,0.5-1.1,0.9-1.6,1.4c-0.5,0.4-0.9,0.8-1.2,1.1c0,0.1,0,0.3,0,0.6c0,0.3-0.1,0.7-0.1,1.1
		s-0.2,0.7-0.3,1.1c-0.1,0.3-0.3,0.5-0.5,0.6c0,0.1,0.1,0.1,0.2,0.2s0.1,0.2,0.1,0.3c-0.4,0.2-0.7,0.4-0.9,0.7
		c-0.3,0.3-0.5,0.5-0.8,0.7c-0.3,0.2-0.6,0.4-1,0.5c-0.4,0.1-0.9,0.1-1.5-0.1c0-0.2-0.2-0.3-0.3-0.4c-0.2-0.1-0.3-0.2-0.5-0.2
		c-0.2-0.1-0.3-0.1-0.5-0.1c-0.1,0-0.2-0.1-0.2-0.1c-0.1,0.1-0.2,0-0.2-0.2c0-0.2,0.1-0.3,0.3-0.3c-0.4-0.3-0.7-0.6-0.8-0.9
		c-0.1-0.3-0.4-0.6-0.8-1c0-0.1,0.1-0.2,0.1-0.3c0-0.1,0-0.3,0-0.4c0-0.1,0-0.2,0.1-0.3c0-0.1,0.1-0.1,0.2,0
		c-0.1-0.2-0.2-0.4-0.2-0.6c0-0.2,0-0.3,0-0.5c0-0.2,0-0.3,0-0.4c0-0.1-0.1-0.3-0.2-0.4c0.3-0.7,0.4-1.4,0.3-2.2
		c0-0.7-0.1-1.4-0.3-2c0.1-0.2,0.2-0.6,0.3-1s0.1-0.8,0.1-1.2c0-0.4-0.1-0.8-0.2-1.1c-0.1-0.3-0.2-0.6-0.4-0.8
		c0-0.1,0.1-0.2,0.4-0.2c-0.1-0.9-0.2-2-0.5-3.1c-0.2-1.2-0.4-2.3-0.5-3.3c-0.1-1.1-0.1-2,0.1-2.9c0.2-0.9,0.7-1.6,1.4-2
		c0.3,0.5,0.7,1,1,1.3c0.4,0.4,0.8,0.7,1.2,1c0.4,0.3,0.8,0.6,1.3,1c0.4,0.3,0.8,0.7,1.3,1.2c0.1,0.5,0.2,1.1,0.3,1.8
		c0.1,0.7,0.2,1.4,0.2,2.2c0.1,0.7,0.1,1.5,0.2,2.1c0.1,0.7,0.1,1.3,0.1,1.8c0.1,0.1,0.2,0.2,0.3,0.2c0.1,0,0.2,0.1,0.2,0.4
		c0.6-0.3,1.3-0.7,1.9-1c0.7-0.3,1.3-0.7,2-1c0.7-0.4,1.3-0.7,1.9-1.1c0.6-0.4,1.2-0.8,1.7-1.3c-0.1-1.1-0.3-2.2-0.3-3.3
		c-0.1-1.1-0.3-2.2-0.8-3.3c0.1-0.1,0.2-0.3,0.2-0.5c0-0.2,0.1-0.3,0.3-0.4c-0.3-0.5-0.5-1-0.6-1.6c-0.1-0.6-0.2-1.2-0.1-1.7
		c0-0.6,0.2-1.1,0.4-1.5c0.2-0.5,0.6-0.8,1.1-1c0.4,0.4,0.8,0.8,1.2,1.2c0.4,0.4,0.7,0.9,1.1,1.3c0.4,0.4,0.7,0.9,1.1,1.2
		c0.4,0.4,0.8,0.7,1.3,0.9c0.3,0.8,0.6,1.6,0.8,2.4c0.3,0.8,0.5,1.7,0.8,2.6c0.1,1.1,0.1,2.2,0.1,3.2c0,1,0.1,2.1,0.3,3.2
		c-0.1,0.3-0.2,0.6-0.3,0.9c0,0.3-0.1,0.6-0.1,0.9c0,0.3-0.1,0.6-0.2,0.9c-0.1,0.3-0.2,0.6-0.3,0.8c0.2,0.3,0.3,0.6,0.3,0.9
		C171.7,114.1,171.9,114.4,172.2,114.8z"/>
	<path class="st0" d="M193.4,88.7c0.1,0.2,0.1,0.3,0.1,0.4c0,0.1,0,0.2,0,0.3c0,0.1,0,0.2,0.1,0.3s0.1,0.2,0.2,0.4
		c-0.3,1.1-0.8,1.9-1.5,2.4c-0.7,0.5-1.4,1-2.2,1.4c-0.8,0.4-1.7,0.8-2.6,1.2c-0.9,0.4-1.7,1-2.4,1.8c-0.4,0-0.7,0-1,0.3
		c-0.2,0.2-0.7,0.4-1.2,0.5c-0.1,0.2-0.3,0.4-0.5,0.5c-0.2,0.1-0.5,0.3-0.7,0.4c0.2,0.2,0.3,0.5,0.3,0.7c0.1,0.3,0.1,0.5,0.3,0.6
		c1-0.2,2-0.5,3.2-0.9c1.1-0.4,2.3-0.8,3.4-1.1c0.1,0.1,0.1,0.2,0,0.3c0,0.1,0,0.1,0,0.2c0.2,0.1,0.5,0.2,0.7,0.4s0.5,0.3,0.7,0.4
		c0.2,0.1,0.5,0.2,0.7,0.3c0.2,0.1,0.5,0.1,0.8,0c0.2,0.2,0.3,0.4,0.4,0.7c0.1,0.2,0.1,0.5,0.1,0.8c-0.4,0.4-0.7,0.8-1.1,1.3
		c-0.4,0.4-0.7,0.8-1.1,1.2c-0.4,0.4-0.9,0.7-1.4,1c-0.5,0.3-1.1,0.5-1.7,0.7c-0.1,0-0.2,0.1-0.3,0.1s-0.2,0-0.3-0.1
		c-0.2,0.2-0.5,0.3-0.9,0.4c-0.4,0.1-0.7,0.2-0.9,0.4c-0.3-0.1-0.7,0-1.1,0.1c-0.4,0.1-0.8,0.2-1.2,0.2c-0.3,0.7-0.5,1.4-0.7,2.2
		c-0.2,0.8-0.3,1.5-0.4,2.3c1-0.1,1.8-0.3,2.4-0.5c0.6-0.2,1.2-0.4,1.7-0.6c0.5-0.2,1.1-0.4,1.6-0.7c0.6-0.2,1.3-0.4,2.2-0.6
		c0.5-0.4,1.1-0.8,1.8-1.1c0.7-0.3,1.4-0.6,1.9-1c0.2,0,0.5,0.1,0.7,0.3c0.2,0.2,0.4,0.3,0.6,0.4c0.2,0.1,0.4,0.3,0.6,0.3
		c0.2,0.1,0.4,0.1,0.7,0c0.1,0.1,0.2,0.2,0.3,0.3c0.1,0.1,0.2,0.3,0.2,0.4c0.1,0.1,0.1,0.2,0.2,0.3c0.1,0.1,0.2,0.1,0.4,0
		c-0.2,1-0.5,1.8-0.9,2.4c-0.4,0.6-0.9,1.1-1.5,1.6c-0.6,0.4-1.3,0.8-2.1,1.2c-0.8,0.4-1.7,0.8-2.6,1.2c-0.2,0.1-0.4,0.2-0.6,0.1
		c-0.2,0-0.4,0-0.6,0c-0.6,0.3-1.3,0.6-2.2,1c-0.8,0.3-1.7,0.6-2.6,0.8c-0.9,0.2-1.8,0.3-2.7,0.3c-0.9,0-1.6-0.2-2.3-0.6
		c-0.3-0.1-0.5-0.3-0.6-0.6c-0.1-0.2-0.4-0.4-0.7-0.4c-0.1-0.3-0.3-0.7-0.5-1.1c-0.2-0.4-0.4-0.9-0.6-1.3c-0.2-0.5-0.4-0.9-0.6-1.4
		c-0.2-0.5-0.3-0.9-0.3-1.3c0-0.4,0-0.8,0.2-1.2c0.2-0.4,0.2-0.8,0-1.1c0.1-0.1,0.2-0.2,0.2-0.3c0-0.1,0.1-0.2,0.3-0.2
		c0-0.5,0.1-1,0.2-1.5c0.1-0.5,0.2-1,0.3-1.4c0.1-0.5,0.2-0.9,0.3-1.4c0.1-0.5,0.2-1,0.2-1.6c-0.5-0.3-0.9-0.6-1.2-0.9
		c-0.3-0.4-0.5-0.8-0.7-1.2c-0.2-0.4-0.4-0.8-0.6-1.3c-0.2-0.4-0.4-0.9-0.7-1.3c0.2-0.5,0.4-0.9,0.7-1.3c0.3-0.4,0.7-0.7,1.1-1
		c0.4-0.3,0.9-0.6,1.4-0.8c0.5-0.3,1.1-0.5,1.6-0.8c1-0.6,1.9-1.2,2.7-1.6c0.8-0.4,1.6-0.8,2.4-1.1c0.8-0.3,1.6-0.7,2.5-1
		c0.9-0.3,1.9-0.8,2.9-1.3c0.3,0.2,0.6,0.2,0.8,0.2c0-0.3,0.2-0.4,0.3-0.3c0.2,0.1,0.2,0,0.1-0.3c0.4,0.4,0.8,0.7,1.4,0.9
		C192.3,88.5,192.9,88.6,193.4,88.7z"/>
	<path class="st0" d="M220.5,102.1c-0.2,0.3-0.3,0.6-0.3,1c0,0.4,0.1,0.7,0.1,1.1c0,0.4-0.1,0.7-0.2,1c-0.1,0.3-0.5,0.5-1,0.6
		c-0.1,0.2-0.1,0.3,0,0.3c0.1,0,0.2,0.1,0.3,0.3c-0.4,0-0.7,0.1-0.8,0.3c-0.1,0.2-0.3,0.3-0.5,0.4c-0.7,0-1.3-0.2-1.9-0.6
		c-0.6-0.4-1.1-0.8-1.5-1.4c-0.5-0.5-0.9-1.1-1.3-1.6c-0.4-0.6-0.8-1-1.2-1.4c0-0.1,0-0.2,0.1-0.2c0.1,0,0.2,0,0.3-0.1
		c-0.2-0.2-0.4-0.5-0.6-0.8c-0.2-0.3-0.4-0.6-0.6-0.7c0.3-1.9,0.7-3.9,1.1-6c0.4-2.1,0.8-4.2,1.2-6.3c0.4-2.1,0.8-4.3,1.2-6.5
		c0.4-2.2,0.8-4.3,1.1-6.4c0.8,0.1,1.7,0.2,2.5,0.4c0.8,0.2,1.6,0.4,2.3,0.8c0.7,0.3,1.4,0.8,2,1.3c0.6,0.5,1.1,1.2,1.4,2
		c0,0.2-0.1,0.3-0.2,0.2c-0.1,0-0.2,0-0.2,0.1c0.2,0.1,0.3,0.2,0.3,0.3c0,0.1,0,0.1,0,0.2c0,0.1,0,0.2,0,0.3c0,0.1,0.1,0.2,0.3,0.4
		c-0.1,0-0.2,0.1-0.3,0.1c0,0.1-0.1,0.1-0.3,0.1c0.2,0.3,0.4,0.6,0.4,0.9c0,0.2,0,0.5-0.1,0.7c-0.1,0.2-0.1,0.4-0.1,0.6
		s0.1,0.5,0.3,0.8c-0.1,0-0.2,0.1-0.2,0.1c0,0.1-0.1,0.1-0.1,0.2c0,0.1,0,0.1-0.1,0.2c0,0.1-0.1,0.1-0.2,0.1
		c0.3,0.7,0.5,1.4,0.7,2.1c0.2,0.7,0.3,1.5,0.5,2.2c0.2,0.8,0.4,1.5,0.6,2.3c0.2,0.8,0.6,1.6,1,2.4c1-1,1.7-2.1,2.1-3.4
		c0.4-1.3,0.7-2.7,0.8-4.1c0.1-1.5,0-3-0.2-4.6c-0.2-1.6-0.3-3.2-0.5-4.9c0.2-0.4,0.4-0.8,0.4-1.3c0.1-0.5,0.1-1,0.1-1.5
		c0-0.5,0-1,0-1.5c0-0.5,0.1-1,0.2-1.4c0.5-0.1,1,0,1.4,0.1c0.4,0.1,0.8,0.3,1.2,0.5c0.4,0.2,0.8,0.4,1.2,0.5
		c0.4,0.2,0.8,0.2,1.4,0.2c0.5,0.4,1,0.9,1.5,1.3c0.5,0.4,0.8,0.9,1.1,1.5c-0.1,0.3-0.1,0.6-0.1,1c0,0.3,0,0.7,0,1.1s-0.1,0.7-0.1,1
		c-0.1,0.3-0.3,0.6-0.5,0.9c0.1,0.8,0.2,1.6,0.2,2.4s0.1,1.5,0.1,2.2c0,0.7,0.1,1.5,0.2,2.2c0.1,0.8,0.3,1.6,0.5,2.4
		c0,0.9-0.1,1.7-0.2,2.7c-0.1,0.9-0.1,1.7,0,2.5c-0.4,0.5-0.7,1.2-0.8,1.8c-0.1,0.7-0.3,1.4-0.5,2.1c-0.1,0.1-0.2,0.2-0.2,0.1
		c0-0.1-0.2-0.1-0.4,0c0.1,0.2,0.1,0.4,0,0.5c-0.1,0.1,0,0.3,0.2,0.6c-0.4,0.3-0.7,0.7-1,1.2c-0.3,0.4-0.6,0.9-0.9,1.3
		c-0.3,0.4-0.8,0.7-1.3,1c-0.5,0.2-1.3,0.3-2.3,0.2c-1.6-0.6-3.1-1.4-4.5-2.4c-1.4-1-2.7-2.3-3.7-3.9c-0.3,0.2-0.4,0.4-0.5,0.7
		c-0.1,0.3-0.1,0.6-0.1,1c0,0.3-0.1,0.6-0.1,0.9c0,0.3-0.2,0.4-0.4,0.5c0,0.3,0,0.5-0.1,0.8c-0.1,0.2-0.2,0.5-0.3,0.7
		c-0.1,0.2-0.1,0.5-0.1,0.8C220.2,101.5,220.3,101.8,220.5,102.1z"/>
	<path class="st0" d="M249.3,100c-2.5,0.3-4.3-0.6-5.4-2.6l-0.1-0.5c0-0.4,0-0.8,0.1-1.2c0-0.5,0-1,0.1-1.5c0-0.5,0.2-1,0.5-1.4
		c0-0.3,0.1-0.7,0.2-1.3c0.1-0.6,0.3-1.4,0.6-2.6c0.2-0.9,0.4-1.6,0.5-2.2c0.1-0.5,0.3-0.9,0.4-1.2c-0.4-0.4-0.9-0.8-1.5-1.1
		c-0.7-0.7-1.2-1.4-1.8-2.1c-0.5-0.7-0.9-1.3-1.3-1.8c-0.2-0.6-0.5-1.3-0.9-1.9c-0.2-0.3-0.4-0.7-0.5-1c-0.2-0.3-0.3-0.7-0.4-1.1
		c-0.2-0.2-0.3-0.4-0.5-0.7l0-0.5c0.1-0.3,0-0.6-0.1-0.9c-0.2-0.4-0.4-0.7-0.6-1.1c-0.2-0.3-0.4-0.7-0.5-1.1
		c-0.2-0.4-0.3-0.8-0.4-1.2c-0.1-0.4-0.1-0.8,0-1.2c0.1-0.4,0.3-0.8,0.7-1.1l0.3-0.4l0.5,0.1c0.4,0.1,0.7,0.2,1,0.3
		c0.3,0.1,0.6,0.1,0.9,0.2c0.4,0.1,0.7,0.2,1.1,0.3c0.4,0.1,0.8,0.2,1.2,0.3l0.5,0.2l0.1,0.5c0,0.1,0,0.1,0.1,0.2
		c0,0.1,0.1,0.1,0.2,0.2l0.5,0l0.2,0.6l0.1,0.5c0.1,0.2,0.1,0.4,0.2,0.5c0.1,0.1,0.1,0.2,0.2,0.3l0.3,0.5c0.1,0.5,0.3,0.9,0.5,1.3
		c0.2,0.4,0.4,0.7,0.6,1.1c0.2,0.3,0.5,0.7,0.6,1.1c0.2,0.4,0.3,0.8,0.4,1.3c0.1-0.1,0.3-0.3,0.4-0.5c0-0.1,0.1-0.1,0.1-0.2
		c0.1-0.1,0.1-0.1,0.2-0.2l1.8-4.7l-0.2-0.5l0.8-1.3c0.2-0.3,0.4-0.6,0.6-0.9c0.2-0.3,0.3-0.6,0.4-1l0.1-0.4c0.8-2,2.1-3.4,3.9-4.3
		l0.7-0.3l0.4,0.6c0.2,0.3,0.6,0.6,1.1,0.8c0.5,0.2,1,0.3,1.5,0.5l0.5,0.2c0.3,0.3,0.4,0.5,0.4,0.7c0,0.2,0.1,0.3,0.1,0.4l0.3,0.5
		c-0.1,0.9-0.3,1.5-0.5,2c-0.3,0.4-0.5,0.9-0.9,1.3c-0.2,0.3-0.4,0.6-0.6,1c-0.2,0.3-0.3,0.6-0.4,1l-0.2,0.5
		c-0.6,0.5-0.9,1.2-0.9,1.9l0,0.6l-0.6,0.2c0,0-0.1,0.1-0.2,0.2c-0.1,0.2-0.2,0.5-0.3,1c-0.2,0.4-0.3,0.6-0.3,0.8
		c-0.1,0.1-0.1,0.2-0.2,0.3c0,0.2,0,0.3,0,0.4c0,0.1,0,0.3,0,0.4l-0.2,0.4c-0.2,0.3-0.3,0.5-0.4,0.8c-0.1,0.2-0.1,0.5-0.2,0.8
		c0,0.3-0.1,0.6-0.2,0.9c-0.1,0.3-0.2,0.6-0.4,0.9l0.2,0.4l-0.3,0.4c-0.2,0.2-0.3,0.5-0.4,0.9c-0.1,0.3-0.2,0.7-0.3,1
		c-0.1,0.4-0.2,0.7-0.3,1.1c-0.1,0.4-0.3,0.7-0.5,1.1c-0.1,0.5-0.1,1-0.2,1.3c-0.1,0.3-0.2,0.7-0.5,1.2c0,1.4-0.4,3-1.2,4.8
		c0.1,0.3,0,0.6,0,1c-0.1,0.3-0.2,0.6-0.3,0.9c0,0.1-0.1,0.3-0.1,0.4c0,0.1-0.1,0.2-0.1,0.3l0,0.5c-0.1,0.3-0.2,0.6-0.3,0.9
		c-0.1,0.2-0.3,0.5-0.4,0.7c-0.1,0.1-0.1,0.2-0.2,0.3s-0.1,0.2-0.1,0.3L249.3,100z"/>
	<path class="st0" d="M262.3,82.7c0-0.1,0-0.2,0.1-0.2c0.1,0,0.2,0,0.3-0.1c-0.3-0.2-0.5-0.4-0.6-0.8c-0.2-0.4-0.4-0.6-0.7-0.8
		c0-0.2,0-0.3,0-0.4c0-0.1,0.1-0.2,0.3-0.3c-0.2-0.6-0.4-1.1-0.4-1.7c0-0.5,0-1.1,0.1-1.6c0.1-0.5,0.3-1.1,0.5-1.6
		c0.2-0.5,0.4-1.1,0.6-1.6c0.2-0.1,0.4-0.1,0.5-0.1c0.1,0.1,0.2,0,0.3-0.1c0.4-0.4,0.6-0.8,0.6-1.2c0.1-0.4,0-0.8-0.1-1.3
		c0.1-0.8,0.2-1.6,0.3-2.3c0.1-0.8,0.3-1.5,0.6-2.2c0.2-0.7,0.5-1.4,0.9-1.9c0.3-0.6,0.8-1.1,1.2-1.4c0.3-0.4,0.7-0.9,1.2-1.3
		c0.5-0.4,1.1-0.8,1.7-1.1c0.6-0.3,1.3-0.6,2-0.8c0.7-0.2,1.4-0.3,2-0.3c0.2,0,0.2,0,0.2-0.2c0-0.1,0-0.2,0.2-0.2
		c1.4-0.2,2.7-0.2,3.9-0.2c1.2,0.1,2.2,0.4,3.2,0.9c0.7,0.7,1.5,1.4,2.2,2.3c0.7,0.8,1.3,1.7,1.9,2.7c0.5,1,0.9,2,1.2,3.1
		c0.3,1.1,0.3,2.3,0.2,3.5c-0.6,1.5-1.5,2.7-2.7,3.8s-2.5,2.1-3.9,3c-1.4,0.9-3,1.7-4.6,2.5s-3.1,1.5-4.6,2.3
		c0.2,0.7,0.4,1.5,0.6,2.4c0.2,0.8,0.3,1.7,0.4,2.6c0.1,0.9,0.1,1.7,0,2.6s-0.3,1.7-0.6,2.5c-0.6,0.1-1.1,0.3-1.7,0.6
		c-0.6,0.3-1,0.6-1.5,0.8c-0.3-0.1-0.5-0.2-0.7-0.2c-0.2-0.1-0.5-0.1-0.8,0c0-0.4-0.2-0.7-0.5-1c-0.3-0.3-0.7-0.6-1-0.9
		c-0.3-0.3-0.6-0.6-0.7-0.9c-0.2-0.3-0.1-0.7,0.2-1c-0.3-0.1-0.5-0.4-0.6-0.8c0.1,0.1,0.3,0.1,0.5,0.1c-0.2-0.5-0.3-1.1-0.3-1.8
		c0-0.7,0-1.4-0.1-2.1c-0.1-0.7-0.2-1.3-0.4-1.9C263.4,83.1,262.9,82.8,262.3,82.7z M270.4,70.3c0,0.3,0,0.6-0.1,0.9
		c0,0.3,0,0.5-0.1,0.7c0,0.2-0.1,0.4-0.1,0.6c0,0.2-0.1,0.5-0.1,0.7c0.1,0.1,0.2,0.2,0.4,0.3s0.3,0.1,0.4,0.3c0.3-0.3,0.7-0.5,1-0.7
		c0.4-0.2,0.7-0.4,1.1-0.5c0.4-0.2,0.7-0.3,1.1-0.5s0.7-0.4,1.1-0.7c0.4-0.3,0.7-0.6,1.2-0.8s0.8-0.5,1.2-0.7
		c0.4-0.3,0.8-0.5,1.1-0.8c0.4-0.3,0.7-0.6,0.9-1c-0.5-0.3-1.1-0.4-2-0.5c-0.8-0.1-1.7,0-2.6,0.1c-0.9,0.2-1.8,0.5-2.6,0.9
		C271.6,68.9,270.9,69.5,270.4,70.3z"/>
	<path class="st0" d="M292.3,85.5c-0.1-0.1-0.3-0.2-0.4-0.3c-0.1-0.1-0.2-0.3-0.4-0.5c-0.5-0.4-0.9-0.8-1.3-1.4
		c-0.4-0.5-0.7-1.1-0.9-1.7c-0.3-0.6-0.4-1.3-0.6-1.9c-0.1-0.7-0.2-1.3-0.2-1.9c0-0.3,0-0.6,0-0.9c0-0.6,0-1.1,0-1.6
		c0-0.5,0.1-1,0.3-1.4c-0.2-0.3-0.3-0.6-0.2-1c0-0.4,0.1-0.8,0.1-1.1c0-0.1,0.1-0.2,0.1-0.3c0-0.1,0-0.1,0-0.2c0.1-1,0.1-2,0.2-3
		c0.1-1,0.2-1.9,0.2-2.8c0.1-1.6,0.3-3.3,0.4-4.8c0.1-1.6,0.2-3.2,0.1-5c0.2-0.2,0.3-0.4,0.5-0.5c0,0,0.1-0.1,0.2-0.1
		c0.1,0,0.2-0.1,0.3-0.1c0.7,0.1,1.4,0.2,2.3,0.3c0.8,0.1,1.5,0,2.1-0.1l0.9,0.4c0.5,0.3,0.9,0.7,1.3,1c0.4,0.4,0.6,0.9,0.7,1.7
		c-0.1,0.3-0.2,0.5-0.3,0.6c0,0.7,0,1.3-0.1,1.8c-0.1,0.5-0.1,1-0.2,1.5c-0.1,0.6-0.2,1.1-0.2,1.6c-0.1,0.5-0.1,1.2,0,1.9
		c-0.1,0.2-0.2,0.4-0.2,0.6c0,0.1,0,0.3,0,0.4c0,0.2,0,0.4-0.1,0.6c0,0.2-0.1,0.4-0.2,0.6c0.1,0.9,0.1,1.6,0.1,2.2
		c-0.1,0.6-0.2,1.2-0.2,1.8c-0.1,1.1-0.2,2.1-0.3,3.1c-0.1,1,0,2.2,0.3,3.4c0.3-0.2,0.6-0.3,0.9-0.4c0.4-0.1,0.7-0.1,1.1-0.1
		c0.9-0.8,1.8-1.3,3-1.8c1.1-0.4,2.3-0.8,3.4-1.1c1-0.3,1.8-0.5,2.6-0.8c0.3,0.1,0.5,0.2,0.6,0.2c0.1,0,0.2,0,0.4-0.1
		c0.1,0,0.2,0,0.2-0.1c0.1,0,0.2,0,0.3,0c0.5,0.3,0.9,0.4,1.3,0.5c0.4,0.1,0.8,0.1,1.3,0.1c0.4,0,0.8,0.1,1.2,0.2
		c0.4,0.1,0.8,0.2,1.2,0.3l0.9,2c0.3,0.2,0.4,0.4,0.5,0.5c0.1,0.2,0.1,0.4,0,0.6l0.2,0.5c-0.5,0.2-0.8,0.5-0.9,0.6
		c-0.1,0.2-0.3,0.4-0.4,0.6c-0.3,0.1-0.6,0.2-0.9,0.3c-0.5,0.1-1.1,0.4-1.6,0.7c-0.9-0.1-1.8,0-2.8,0.3c-0.4,0.1-0.8,0.2-1.2,0.4
		c-0.4,0.1-0.8,0.3-1.1,0.4c-0.4,0.2-0.8,0.3-1.2,0.5c-0.4,0.1-0.8,0.3-1.2,0.4c-0.3,0.1-0.5,0.2-0.7,0.3c-0.1,0.1-0.3,0.1-0.4,0.2
		c-0.8,0.5-1.8,1.1-2.8,1.7c-1,0.6-2,1-3.1,1.3c-1.6,0.4-3,0.4-4.2-0.2c-0.2-0.2-0.3-0.4-0.4-0.4C292.5,85.7,292.4,85.6,292.3,85.5z
		"/>
	<path class="st0" d="M360.6,68.2c-0.2,0.2-0.5,0.4-0.7,0.6c-0.2,0.2-0.5,0.3-0.8,0.4c-1.3-0.5-2.2-1.7-2.8-3.7
		c-0.6-2-0.8-4.6-0.7-7.8c0.1-0.1,0.1-0.3,0.1-0.5l-0.5-0.3c-0.1,0-0.2,0.1-0.3,0.1c-0.1,0.1-0.1,0.2-0.1,0.3
		c-0.6,0.7-1.2,1.5-1.9,2.2c-0.7,0.8-1.4,1.5-2.2,2.3c-0.8,0.7-1.6,1.4-2.5,1.9c-0.9,0.6-1.7,0.9-2.6,1.2c-2.3,0.6-4.3-0.1-6.1-2.1
		l-0.5-0.5l-0.2,0.6c-0.1,0.1-0.1,0.4-0.2,0.8c-0.1,0.4-0.1,0.8-0.2,1.3c0,0.5-0.1,1-0.1,1.4c0,0.5,0.1,0.9,0.2,1.2
		c-0.2,0.3-0.4,0.7-0.5,1.1c-0.2,0.4-0.3,0.8-0.3,1.3c0,0.2,0.1,0.4,0.2,0.6c0,0.3-0.1,0.5-0.2,0.7c-0.1,0.2-0.2,0.3-0.2,0.5
		c-0.1,0.2-0.2,0.3-0.2,0.5c0,0.2,0,0.3,0,0.4c0,0.1,0,0.3,0,0.4c0.1,0.2,0.1,0.4,0.1,0.6c-0.2,1.1-0.4,1.8-0.6,2.2
		c-0.2,0.4-0.5,0.6-1,0.7c-0.2,0.1-0.6,0.1-1.1,0.2c-0.5-0.3-0.9-0.7-1.4-1.3c-0.5-0.6-0.9-1.3-1.2-2c-0.4-0.7-0.6-1.5-0.8-2.3
		c-0.2-0.8-0.2-1.5-0.1-2.1c0,0,0-0.3,0.1-0.9c0.1-0.6,0.2-1.3,0.3-2.2c0.1-0.9,0.3-1.9,0.4-3c0.2-1.1,0.4-2.2,0.5-3.3
		c0.2-1.1,0.4-2,0.6-2.9c0.2-0.9,0.4-1.6,0.5-2.1c0.1-0.4,0.2-0.7,0.3-1.1c0.1-0.3,0.2-0.7,0.3-1c0.3-1,0.6-1.8,0.9-2.5
		c0.3-0.7,0.8-1.3,1.6-1.9c0.7,0.1,1.2,0.3,1.5,0.5l0.2,0.4c0.2,0.2,0.4,0.3,0.6,0.3c0.3,0,0.6,0,0.8,0c0.2,0,0.5,0,0.7,0
		c0.2,0.2,0.5,0.4,0.7,0.6c0.3,0.3,0.6,0.5,0.9,0.8s0.5,0.5,0.7,0.8c0.2,0.3,0.4,0.6,0.5,0.9c0.1,0.3,0.1,0.7,0.1,1.1l0.1,0.4
		c0.2,0.2,0.3,0.5,0.4,1c0,0.2,0.1,0.4,0.1,0.6c0.1,0.2,0.1,0.4,0.3,0.7c0.6,0.3,1.1,0.3,1.5,0.2c0.4-0.1,0.8-0.3,1.1-0.6
		c0.3-0.3,0.6-0.6,0.9-0.9c0.2-0.2,0.4-0.4,0.5-0.6c0.2-0.2,0.4-0.3,0.6-0.4c0.4-0.6,0.7-1.1,1-1.6c0.3-0.5,0.6-0.9,1-1.4
		c0.6-0.9,1.2-1.8,1.8-2.8c0.6-1,0.9-2.1,1.1-3.4c0.2-0.2,0.5-0.4,0.8-0.5c0.3-0.1,0.6-0.1,1,0c0.4,0,0.7,0.1,1.1,0.2
		c0.1,0,0.2,0.1,0.3,0.1c0.1,0,0.1,0,0.2,0c0.1,0.3,0.2,0.5,0.5,0.6c0.1,0.1,0.2,0.1,0.2,0.1c0,0,0.1,0,0.1,0c0.5,0.1,0.8,0.3,1,0.4
		c0.4,0.6,0.8,1,1.4,1.2c0,0.3,0.1,0.5,0.2,0.8c0.1,0.2,0.3,0.4,0.5,0.6c0,0.1,0.1,0.1,0.1,0.2c0,0.1,0.1,0.2,0.2,0.3l-0.8,0.1
		l0.3,0.7c0.2,0.4,0.2,0.8,0.2,1.3c0,0.5,0,0.9-0.1,1.2c0.2,0.7,0.4,1.3,0.5,1.6c0.1,0.4,0.2,0.8,0.2,1.1c0,0.4,0,0.7,0,1
		c0,0.3-0.1,0.7-0.1,1.1c0.6,1.7,0.8,3.4,0.7,4.9c-0.1,1.6-0.3,3.1-0.5,4.5c0,0.2,0,0.3-0.1,0.5c0,0.2-0.1,0.3-0.1,0.5
		c-0.2,0.1-0.4,0.3-0.6,0.4C361,67.9,360.8,68,360.6,68.2z"/>
	<path class="st0" d="M387.4,58.2c0,0.5-0.2,1-0.3,1.6c-0.2,0.6-0.4,1.1-0.8,1.6s-0.7,0.9-1.2,1.3c-0.5,0.4-1,0.7-1.5,0.8
		c-0.4,0-0.6,0-0.8-0.1c-0.1-0.1-0.3-0.1-0.5-0.2c-0.1,0-0.2-0.1-0.3-0.1c-0.1,0-0.1,0-0.2-0.1l-0.5-0.1l0-0.6
		c0-0.2-0.1-0.4-0.2-0.5c-0.1-0.1-0.3-0.2-0.6-0.4c-0.1-0.1-0.2-0.1-0.3-0.2c-0.1-0.1-0.2-0.1-0.3-0.2l-0.9-0.6l1-0.6
		c0.6-0.4,1-0.7,1.2-1.1c0.2-0.4,0.1-0.9-0.1-1.6c-0.6,0-1,0.1-1.4,0.3c-0.3,0.2-0.7,0.4-1,0.6c-0.5,0.3-0.9,0.5-1.4,0.7
		c-0.5,0.2-1,0.4-1.6,0.6c-0.2,0.1-0.4,0.1-0.6,0.1c-0.2,0-0.4,0.1-0.6,0.1l-0.4,0c-0.1-0.3-0.2-0.4-0.3-0.5c-0.1,0-0.1-0.1-0.2-0.1
		c-0.2-0.1-0.4-0.2-0.6-0.4c-0.2-0.2-0.3-0.5-0.3-0.9c-0.2-0.2-0.3-0.4-0.4-0.7c-0.1,0.4-0.1,0.7-0.1,1.1l-0.1,0.5l-0.4,0.2
		c0,0-0.1,0.1-0.1,0.2c0,0.1,0,0.2,0,0.2l0,0.8c0,0.1-0.1,0.1-0.1,0.2c0,0.1-0.1,0.1-0.1,0.2c0,0.3,0,0.5,0,0.8c0,0.3,0,0.5-0.1,0.8
		c0,0.4-0.1,0.8-0.1,1.1c0,0.4,0,0.7,0.2,1l0,0.5c-0.1,0.2-0.2,0.4-0.3,0.5c-0.1,0.1-0.3,0.3-0.4,0.4c0,0.1-0.1,0.1-0.2,0.2
		c-0.1,0.1-0.2,0.1-0.2,0.2l0,0.5l-0.5,0.2c-0.3,0.1-0.5,0.2-0.6,0.3c-0.1,0.1-0.3,0.1-0.4,0.2l-0.4,0.1c-0.4-0.2-0.7-0.3-0.9-0.4
		c-0.2-0.1-0.4-0.2-0.7-0.3c-0.3-0.3-0.5-0.5-0.6-0.6c-0.1-0.2-0.1-0.3-0.2-0.4c-0.1-0.2-0.2-0.3-0.2-0.4c0-0.1-0.1-0.2-0.2-0.2
		l-0.7-0.4l0.4-0.5l-0.1-0.7c0.2-1.5,0.4-3,0.7-4.5c0.3-1.4,0.6-2.9,0.9-4.4c0.1-0.5,0.2-1,0.3-1.5c0.1-0.5,0.2-1,0.3-1.5
		c0-0.1-0.1-0.2-0.1-0.3c0-0.1,0-0.2,0-0.4c0.2-0.5,0.3-1,0.4-1.4s0.2-0.8,0.3-1.3c0.1-0.5,0.2-1,0.3-1.5c0.1-0.5,0.3-1,0.5-1.6
		l0.6-0.5c0.1,0,0.2-0.1,0.3-0.2c0.1-0.1,0.2-0.1,0.4-0.2l0.6-0.1c0.7-0.6,1.2-1.2,1.6-2c0.4-0.8,0.8-1.7,1.1-2.8l0.3-0.7l0.6,0.2
		c0.2,0,0.4,0.1,0.6,0.1c0.3,0,0.5,0,0.8,0c0.5,0,1,0,1.5,0c0.5,0,0.9,0.1,1.2,0.3c0.3,0.4,0.5,0.7,0.5,0.9c0.1,0.2,0.2,0.4,0.3,0.6
		c0.2,0.4,0.4,0.9,0.6,1.3c0.2,0.4,0.4,1,0.6,1.5c0.3,0.4,0.5,0.9,0.7,1.3c0.2,0.4,0.4,0.9,0.6,1.3c0.3,0.6,0.6,1.2,0.9,1.8
		c0.3,0.6,0.6,1.1,1,1.6c0.2-0.1,0.4-0.1,0.4-0.1c0.1-0.1,0.3-0.2,0.4-0.2c0.1-0.1,0.3-0.1,0.5-0.2l0.4-0.2l0.3,0.4
		c0.1,0.1,0.2,0.2,0.5,0.3c0.4-0.1,0.6-0.1,0.8,0c0.2,0.1,0.4,0.2,0.6,0.3c0.1,0.1,0.3,0.1,0.4,0.2l0.7,0.1l-0.2,0.7
		c-0.1,0.6-0.4,1.1-0.8,1.7c-0.4,0.6-0.9,1.1-1.4,1.6c0.1,0.2,0.1,0.3,0.2,0.5c0.1,0.1,0.1,0.3,0.2,0.4c0.2,0.4,0.4,0.9,0.6,1.4
		c0.2,0.5,0.3,1,0.4,1.5L387.4,58.2z M373.6,54.2c0.8-0.3,1.5-0.5,2.2-0.8c0.7-0.2,1.4-0.6,2.1-0.9c-0.4-0.8-0.8-1.6-1.3-2.4
		c-0.5-0.8-0.9-1.6-1.4-2.5l-0.1,0.5c-0.4,0.7-0.8,1.5-1.1,2.3c-0.3,0.8-0.6,1.6-0.8,2.3c-0.1,0.3-0.2,0.6-0.3,0.9
		c-0.1,0.3-0.2,0.6-0.3,0.9c0.2-0.1,0.3-0.1,0.5-0.2S373.5,54.3,373.6,54.2z"/>
	<path class="st0" d="M399.7,31.4c1.2-0.2,2.3-0.2,3.3-0.1c1,0.1,1.9,0.3,2.6,0.7c0.6,0.6,1.2,1.2,1.8,1.9c0.6,0.7,1.1,1.4,1.6,2.2
		c0.4,0.8,0.8,1.7,1,2.6c0.2,0.9,0.3,1.9,0.1,2.9c-0.5,1.2-1.3,2.2-2.3,3.2c-1,0.9-2.1,1.7-3.3,2.5c-1.2,0.7-2.5,1.4-3.8,2.1
		c-1.3,0.6-2.6,1.3-3.9,1.9c0.2,0.6,0.4,1.3,0.5,2c0.2,0.7,0.3,1.4,0.3,2.1c0.1,0.7,0.1,1.5,0,2.2c-0.1,0.7-0.2,1.4-0.5,2.1
		c-0.5,0.1-0.9,0.3-1.4,0.6c-0.5,0.3-0.9,0.5-1.2,0.7c-0.2-0.1-0.4-0.1-0.6-0.2c-0.2-0.1-0.4-0.1-0.7,0c0-0.3-0.2-0.5-0.4-0.8
		c-0.3-0.2-0.5-0.5-0.8-0.7c-0.3-0.2-0.5-0.5-0.6-0.8c-0.1-0.3-0.1-0.5,0.2-0.9c-0.2-0.1-0.4-0.4-0.5-0.7c0.1-0.4,0.2-0.9,0.2-1.5
		c0-0.6,0-1.2-0.1-1.8c-0.1-0.6-0.2-1.1-0.3-1.6c-0.2-0.4-0.5-0.7-1.1-0.8c0-0.1,0.1-0.1,0.1-0.1c0.1,0,0.2-0.1,0.2-0.1
		c-0.3-0.1-0.5-0.3-0.6-0.6c-0.1-0.3-0.3-0.5-0.5-0.7c0-0.2,0-0.3,0-0.4c0-0.1,0.1-0.2,0.3-0.2c-0.2-0.5-0.3-0.9-0.3-1.4
		c0-0.5,0-0.9,0.1-1.4c0.1-0.4,0.2-0.9,0.4-1.4c0.2-0.5,0.3-0.9,0.5-1.4c0.2-0.1,0.3-0.1,0.4,0c0.1,0.1,0.1,0,0.3-0.1
		c0.3-0.4,0.5-0.7,0.5-1.1c0.1-0.3,0-0.7-0.1-1.1c0-0.6,0.1-1.3,0.2-1.9c0.1-0.7,0.3-1.3,0.5-1.9c0.2-0.6,0.4-1.1,0.7-1.6
		c0.3-0.5,0.6-0.9,1-1.2c0.3-0.4,0.6-0.7,1-1.1c0.4-0.4,0.9-0.7,1.5-1c0.5-0.3,1.1-0.5,1.7-0.7c0.6-0.2,1.1-0.3,1.7-0.2
		c0.2,0,0.2,0,0.2-0.1C399.6,31.5,399.6,31.4,399.7,31.4z M400.6,41.6c0.6-0.5,1.3-0.9,2-1.3c0.7-0.4,1.3-0.9,1.7-1.5
		c-0.4-0.2-1-0.4-1.6-0.4c-0.7-0.1-1.4,0-2.2,0.1c-0.8,0.1-1.5,0.4-2.2,0.8c-0.7,0.4-1.3,0.9-1.7,1.5c0,0.5-0.1,1-0.1,1.3
		c0,0.3-0.1,0.7-0.2,1.2c0.1,0.1,0.2,0.2,0.3,0.2c0.1,0,0.3,0.1,0.3,0.2c0.5-0.5,1.1-0.8,1.8-1.1C399.4,42.5,400,42.1,400.6,41.6z"
		/>
	<path class="st0" d="M43,202.7c0.4,0.8,0.5,1.4,0.4,2c-0.1,0.5-0.3,1-0.7,1.3c-0.4,0.3-0.8,0.6-1.4,0.8c-0.5,0.2-1.1,0.3-1.6,0.3
		c-0.4-0.3-0.7-0.7-1.1-1.2c-0.4-0.5-0.7-1.1-1.1-1.6c-0.4-0.6-0.7-1.1-1-1.7c-0.3-0.6-0.6-1.1-0.8-1.5c0-0.4,0-0.8,0-1.2
		c-0.1-0.4-0.2-0.9-0.3-1.3c-0.1-0.4-0.2-0.9-0.3-1.3c-0.1-0.5-0.2-0.9-0.2-1.3c-0.1-1.2-0.1-2.4,0-3.5c0.1-1.1,0.1-2.3,0-3.5
		c0-0.3-0.1-0.5-0.2-0.7c-0.2-0.2-0.2-0.4-0.2-0.6c0-0.1,0.1-0.2,0.2-0.3c0.1-0.1,0.2-0.2,0.2-0.3c0-0.3,0-0.6-0.1-0.8
		c-0.1-0.2-0.1-0.4,0-0.7c0.1-0.3,0.2-0.6,0.3-1.1c0.1-0.5,0-0.9-0.1-1.4c0.2-0.2,0.4-0.5,0.5-0.8c0.2-0.3,0.3-0.5,0.5-0.8
		c0.2-0.2,0.4-0.5,0.7-0.7c0.2-0.2,0.6-0.4,1-0.5c0.3,0.2,0.5,0.5,0.7,0.8c0.2,0.3,0.3,0.6,0.5,0.9c0.2,0.3,0.3,0.6,0.6,0.8
		c0.2,0.3,0.5,0.4,0.9,0.5c0.1,0.2,0.1,0.5,0.2,0.8c0.1,0.3,0.2,0.6,0.3,1c0.1,0.3,0.2,0.6,0.4,0.8c0.2,0.2,0.4,0.4,0.6,0.4
		c-0.1,1.4-0.3,2.9-0.3,4.3c-0.1,1.4-0.1,2.8,0,4.1c0.1,1.4,0.2,2.7,0.5,4C41.9,200.1,42.4,201.4,43,202.7z"/>
	<path class="st0" d="M66.6,178.4c-0.7,0.2-1.4,0.4-2.2,0.7c-0.8,0.3-1.5,0.6-2.3,0.9c-0.5,0.2-1,0.4-1.5,0.6
		c-0.5,0.2-0.9,0.4-1.3,0.5c0,0.7-0.1,1.2-0.1,1.8c-0.1,0.5-0.2,1-0.3,1.5c-0.1,0.5-0.2,1-0.2,1.6c-0.1,0.5-0.1,1.1-0.1,1.7
		c-0.2,0.5-0.3,1-0.4,1.4c-0.1,0.4-0.1,0.9-0.1,1.4c-0.2,0.5-0.4,1-0.4,1.5c0,0.5-0.1,0.9-0.1,1.3l0,0.5c-0.1,0.2-0.2,0.4-0.2,0.5
		c0,0.1,0,0.2-0.1,0.3c0.1,0.3,0,0.6,0,1c0,0.2,0,0.3,0,0.4c0,0.1,0,0.2,0,0.3c0.1,0.3,0.1,0.5-0.1,0.6c0.1,0.1,0.1,0.3,0.1,0.4
		c0,0.2,0,0.3,0,0.5c0,0.3,0,0.6,0.1,0.8c0.1,0.1,0.2,0.2,0.3,0.2c0.1,0.1,0.2,0.2,0.2,0.3c0.2,0.1,0.3,0.1,0.4,0.1
		c0.1,0.1,0.3,0.1,0.6,0.2l0.5,0.3c0.3,0.8,0.4,1.4,0.1,2c-0.3,0.6-0.9,1.1-1.9,1.3l-0.5,0.1c-0.2-0.1-0.3-0.2-0.3-0.3
		c-0.2,0-0.4,0-0.6-0.1c-0.2,0-0.3-0.1-0.5-0.2c-0.4-0.1-0.7-0.1-1-0.2l-0.4-0.1c-0.1-0.3-0.1-0.5-0.1-0.5c-0.3-0.2-0.5-0.4-0.6-0.7
		c-0.2-0.3-0.3-0.6-0.5-0.8c-0.1-0.2-0.2-0.4-0.4-0.6c-0.1-0.2-0.3-0.4-0.4-0.5c-0.5-1.6-0.7-2.9-0.6-4.1c0.1-1.2,0.2-2.3,0.3-3.4
		c0.1-0.6,0.1-1.2,0.2-1.8c0.1-0.6,0.1-1.2,0.1-1.9l0.3-0.5c0.1-0.5,0.1-0.9,0.2-1.2c0-0.3,0.1-0.6,0.2-1c0-0.2,0.1-0.4,0.1-0.6
		c0-0.2,0-0.4,0.1-0.5c-0.2,0-0.3,0.1-0.4,0.1c-0.1,0.1-0.3,0.1-0.4,0.2c-0.2,0.1-0.3,0.1-0.4,0.2s-0.3,0.1-0.4,0.1
		c-0.2,0.1-0.3,0.1-0.4,0.1c-0.3,0.2-0.6,0.4-0.9,0.5l-0.4,0.1c-0.1,0-0.2,0-0.2,0c-0.1,0-0.1,0-0.2,0c-0.3,0.1-0.5,0.2-0.6,0.3
		c-0.3,0.1-0.6,0.2-0.9,0.3l-0.4,0.1c-0.1,0-0.1,0-0.2,0.1c-0.1,0-0.1,0.1-0.2,0.1c-0.2,0.1-0.4,0.1-0.6,0.1c-0.2,0-0.5,0-0.8-0.1
		c-0.4-0.3-0.7-0.5-0.8-0.5l-0.5-0.4c-0.1-0.2-0.2-0.3-0.2-0.4c-0.1-0.1-0.2-0.3-0.3-0.5c-0.2-0.2-0.4-0.5-0.5-0.8
		c-0.2-0.3-0.3-0.7-0.4-1.1c0-0.2,0-0.4,0-0.5c0.1-0.1,0.1-0.2,0.1-0.3l0-0.6l0.5-0.1l1.1-0.3c0.9-0.2,1.8-0.5,2.6-0.8
		c0.9-0.3,1.8-0.6,2.7-1c0.5-0.2,1.1-0.4,1.6-0.6c0.5-0.2,1.1-0.4,1.7-0.6c0-0.3,0.1-0.5,0.1-0.8l0.4-0.3c0.5-0.2,0.8-0.2,1.1-0.1
		c0.2,0.1,0.5,0.2,0.6,0.3c0.6-0.2,1.2-0.4,1.8-0.7c0.6-0.2,1.2-0.5,1.8-0.8c0.9-0.4,1.8-0.8,2.7-1.1c0.9-0.4,1.8-0.7,2.7-0.9
		c0.4-0.1,0.8-0.2,1.1-0.3s0.7-0.1,1-0.1l0.5,0.2c0.1,0.1,0.3,0.3,0.5,0.4c0.2,0.1,0.4,0.2,0.6,0.3c0.4,0.2,0.8,0.5,1.3,0.8
		c0.4,0.3,0.7,0.9,0.8,1.7c-0.1,0.4-0.2,0.6-0.3,0.7l-0.2,0.6l-0.4,0.1c-0.2,0-0.3,0.1-0.4,0.2s-0.2,0.2-0.4,0.3
		c-0.1,0.1-0.2,0.2-0.3,0.2c-0.1,0.1-0.2,0.1-0.3,0.2c-0.2,0.1-0.4,0.1-0.6,0.1C66.9,178.3,66.7,178.3,66.6,178.4z"/>
	<path class="st0" d="M64.4,180.3c0-0.6,0.2-1.2,0.5-1.7c0.3-0.5,0.7-1,1.1-1.4c0.4-0.4,0.9-0.8,1.4-1.1c0.5-0.3,1-0.6,1.4-0.9
		c1-0.8,2-1.5,3.1-2.3c1.1-0.8,2.3-1.5,3.5-2.1c1.2-0.7,2.5-1.2,3.8-1.7c1.3-0.5,2.8-0.7,4.4-0.6c0.2,0.3,0.3,0.5,0.6,0.7
		c0.2,0.2,0.5,0.4,0.7,0.6c0.2,0.2,0.5,0.4,0.7,0.6c0.2,0.2,0.3,0.4,0.4,0.7c0.3,0.2,0.6,0.4,0.9,0.6c0.2,0.2,0.4,0.6,0.4,1.1
		c-0.2,0.3-0.4,0.6-0.6,0.8c-0.2,0.2-0.5,0.5-0.7,0.7c-1.1,0-2.1,0.2-3.1,0.6c-1,0.4-1.9,0.7-2.7,0.9c-0.3-0.2-0.6-0.2-1-0.1
		c-0.3,0.1-0.7,0.2-1,0.4c-0.3,0.2-0.7,0.4-1,0.6c-0.3,0.2-0.7,0.3-1,0.4c-0.2,0.3-0.5,0.5-0.9,0.7c-0.4,0.2-0.8,0.3-1.2,0.5
		c0,0.1,0.1,0.2,0.2,0.2c0.1,0,0.1,0.1,0.1,0.3c0.2,0.1,0.5,0.2,0.7,0.2c0.3,0,0.6,0,0.9,0c0.3,0,0.6,0,0.8,0.1
		c0.3,0.1,0.5,0.2,0.6,0.5c0.4-0.1,0.8-0.1,1.1,0c0.4,0.1,0.7,0.3,0.9,0.5c0.3,0.2,0.5,0.5,0.7,0.8c0.2,0.3,0.3,0.6,0.4,0.8
		c0.1,0.2,0.3,0.3,0.4,0.2c0.1-0.1,0.2,0,0.4,0.1c0.2,0.3,0.5,0.6,0.9,0.9c0.4,0.3,0.8,0.6,1.1,1c0.2,0.7,0.4,1.3,0.6,1.8
		c0.2,0.5,0.2,1.1,0.1,1.7c-0.1,1.1-0.5,2.2-1,3.2c-0.5,1-1.1,1.9-1.9,2.8c-0.8,0.9-1.6,1.6-2.5,2.4c-0.9,0.7-1.8,1.4-2.7,1.9
		c-0.1,0-0.2,0-0.3,0.1c-0.1,0.1-0.1,0-0.1-0.2c-0.2,0.3-0.4,0.4-0.6,0.6c-0.2,0.1-0.5,0.2-0.8,0.3c-0.3,0.1-0.6,0.1-0.9,0.2
		s-0.6,0.1-0.9,0.3c-0.2-0.1-0.5-0.3-0.7-0.4c-0.2-0.1-0.4-0.3-0.5-0.6c-0.1,0-0.2,0-0.2-0.2c0-0.1-0.1-0.2-0.2-0.2
		c0.1-0.3,0.1-0.5,0.1-0.5c0,0-0.1-0.1-0.1-0.1c-0.1,0-0.1,0-0.2-0.1c-0.1,0-0.1-0.1-0.1-0.2c0.1-0.2,0-0.5-0.1-0.8
		c-0.1-0.3-0.2-0.6-0.3-0.9s-0.2-0.6-0.2-0.9c0-0.3,0.1-0.6,0.4-0.8c1-0.1,1.8-0.4,2.6-0.8c0.8-0.4,1.5-0.9,2.2-1.4
		c0.7-0.5,1.3-1.1,1.8-1.6c0.6-0.6,1.1-1.1,1.7-1.6c0-0.3,0.1-0.5,0.2-0.7c0.1-0.2,0.2-0.4,0.4-0.6c0.1-0.2,0.2-0.4,0.3-0.6
		c0.1-0.2,0.1-0.4,0.1-0.7c0-0.2-0.1-0.3-0.2-0.3c-0.1,0-0.2-0.1-0.3-0.3l-0.5,0c-0.6-0.2-1.3-0.3-2-0.3c-0.7,0-1.3-0.1-1.9-0.2
		c-0.3,0.2-0.5,0.4-0.8,0.3c-0.3,0-0.6,0-1.1,0c-0.9,0.2-1.9,0.3-2.8,0.4c-0.9,0.1-1.8,0.1-2.7-0.1c-0.1-0.1-0.2-0.2-0.3-0.3
		c-0.1-0.1-0.3-0.1-0.5,0c-0.2-0.2-0.4-0.3-0.7-0.5c-0.2-0.2-0.4-0.3-0.6-0.6c0-0.3-0.1-0.6-0.1-0.9c0-0.2-0.2-0.4-0.4-0.6
		c0-0.4,0-0.7,0-0.9C64.6,181,64.5,180.7,64.4,180.3z"/>
	<path class="st0" d="M120.6,185.2c-0.4,0.1-1,0.3-1.6,0.4c-0.7,0.1-1.2,0.4-1.7,0.8c-1.5,0.3-3,0.5-4.6,0.6c-1.6,0.1-3.1,0.1-4.4,0
		c-0.4-0.2-0.7-0.4-1-0.6c-0.3-0.2-0.8-0.3-1.3-0.3c-0.8-0.3-1.5-0.8-2.1-1.5c-0.6-0.6-1.1-1.4-1.6-2.1c-0.5-0.8-0.9-1.6-1.2-2.5
		c-0.3-0.9-0.6-1.7-0.8-2.5c0.1-1.3,0.4-2.5,0.9-3.6c0.5-1.1,1.1-2.2,1.6-3.3c0.3-0.3,0.5-0.5,0.7-0.7c0.1-0.2,0.3-0.4,0.4-0.6
		c0.2-0.2,0.3-0.4,0.5-0.6c0.2-0.2,0.3-0.4,0.4-0.7c0.5-0.3,1-0.6,1.3-1c0.4-0.4,0.7-0.8,1-1.2c0.3-0.4,0.7-0.8,1.1-1.1
		c0.4-0.4,0.8-0.7,1.4-1c0.2-0.3,0.4-0.6,0.6-0.8c0.3-0.2,0.5-0.5,0.8-0.7s0.5-0.5,0.8-0.7c0.2-0.2,0.4-0.5,0.5-0.8
		c0.2,0.2,0.4,0.2,0.6,0.1c0.2-0.1,0.4-0.3,0.6-0.4c0.1-0.1,0.3-0.1,0.4,0c0.1,0.1,0.2,0.1,0.3,0.2c0.1,0.1,0.2,0.1,0.3,0.1
		c0.1,0,0.1-0.1,0.1-0.2c0.1,0,0.2,0,0.2,0.2c0,0.2,0,0.3,0,0.3c0.2-0.1,0.4-0.1,0.6,0c0.2,0.1,0.4,0.1,0.8,0
		c0.1,0.1,0.2,0.2,0.2,0.3c0,0.1,0,0.2,0,0.4c0.9,0,1.5,0.3,1.9,0.8c0.4,0.5,0.5,1,0.5,1.6c0,0.6-0.2,1.2-0.6,1.9
		c-0.4,0.6-0.8,1.1-1.3,1.4c-1.2,0.7-2.3,1.4-3.4,2.2c-1,0.7-1.8,1.6-2.4,2.6c-0.6,0.4-1.1,0.8-1.5,1.2c-0.4,0.4-0.8,0.9-1.2,1.4
		c-0.3,0.5-0.7,1-0.9,1.6c-0.3,0.5-0.6,1.1-0.9,1.6c0.1,0.4,0.1,0.7,0,0.9c-0.1,0.2-0.2,0.5-0.3,0.8c0.2,0.4,0.4,0.7,0.6,1
		c0.2,0.3,0.5,0.5,0.7,0.8c1.9,0.1,4-0.1,6-0.5c2.1-0.4,4.1-0.9,6.2-1.4c0.3,0.2,0.6,0.4,0.9,0.6c0.3,0.2,0.6,0.3,0.9,0.5
		c0.3,0.2,0.5,0.4,0.8,0.7c0.2,0.3,0.4,0.7,0.4,1.1c-0.3,0.5-0.6,1-1,1.5C121.4,184.2,121,184.7,120.6,185.2z"/>
	<path class="st0" d="M145.8,165.3c0.1,0.3,0.2,0.6,0.3,0.9c0.2,0.3,0.3,0.5,0.5,0.8s0.4,0.5,0.6,0.8c0.2,0.3,0.3,0.5,0.5,0.8
		c0.2,0.4,0.3,0.8,0.3,1.2c0.1,0.5,0.1,0.9,0.1,1.4c0,0.5-0.1,0.9-0.2,1.3c-0.1,0.4-0.3,0.7-0.6,1c-0.3,0.6-0.6,1.1-1.1,1.5
		c-0.5,0.4-0.9,0.9-1.3,1.4c-0.2,0.3-0.5,0.5-0.9,0.7c-0.3,0.2-0.7,0.4-1.1,0.5c-0.3,0.2-0.6,0.5-0.9,0.8c-0.4,0.3-0.7,0.6-1.1,0.8
		c-0.4,0.3-0.8,0.5-1.2,0.7c-0.4,0.2-0.8,0.3-1.1,0.4c-0.7,0.5-1.5,0.9-2.2,1.2c-0.8,0.3-1.7,0.5-2.8,0.5c-0.9,0.4-1.9,0.6-2.8,0.6
		c-0.9,0-1.7-0.1-2.5-0.5c-0.8-0.3-1.5-0.7-2.1-1.3c-0.7-0.5-1.2-1.1-1.7-1.8c-0.6-1.5-1-2.9-1-4.3c0-1.4,0.1-2.7,0.5-3.9
		c0.3-1.2,0.8-2.4,1.3-3.6c0.5-1.1,1.1-2.2,1.6-3.3c0.2,0,0.3,0,0.4-0.1c0.1-0.1,0.1-0.2,0.2-0.4c0-0.1,0.1-0.3,0.2-0.4
		c0.1-0.1,0.2-0.2,0.3-0.3c0.1-0.5,0.3-0.8,0.6-1.1c0.3-0.3,0.5-0.7,0.6-1.1c0.2-0.1,0.4-0.3,0.6-0.4c0.1-0.2,0.3-0.3,0.4-0.5
		c0.1-0.2,0.2-0.3,0.4-0.5c0.1-0.2,0.3-0.3,0.5-0.4l-0.1-0.5c0.4-0.3,0.7-0.7,0.9-1c0.2-0.3,0.3-0.8,0.6-1.3
		c0.2-0.1,0.4-0.2,0.6-0.2c0.2,0,0.4-0.1,0.7-0.3c0.1-0.4,0.2-0.8,0.4-1c0.1-0.2,0.3-0.5,0.6-0.8c0.4,0.1,0.8,0.1,1.2,0
		c0.4,0,0.8,0,1.2,0.3c0.1,0.3,0.2,0.5,0.4,0.6c0.2,0.1,0.4,0.2,0.6,0.3c0.2,0.1,0.4,0.2,0.6,0.3c0.2,0.1,0.3,0.3,0.5,0.5
		c0.1,0,0.2,0,0.2-0.1c0-0.1,0.1-0.1,0.2-0.1c0.2,0.4,0.3,0.6,0.5,0.7c0.1,0.1,0.3,0.3,0.5,0.6c-0.1,0.3-0.1,0.6-0.1,0.9
		s-0.1,0.6-0.3,0.8c0,0.2,0.1,0.3,0.2,0.3c0.1,0,0.2,0,0.3,0.2c0.1,0.2,0.1,0.4,0,0.6c0.9,0.9,1.8,1.9,2.7,2.9
		C143.9,163.4,144.8,164.4,145.8,165.3z M141.7,170.5c0-0.3,0.1-0.6,0.2-0.9c0.1-0.2,0.2-0.6,0.1-0.9c-0.2-0.2-0.3-0.3-0.4-0.4
		c-0.1-0.1-0.1-0.3-0.2-0.6c-0.8-0.7-1.6-1.5-2.3-2.3c-0.7-0.9-1.4-1.6-2.2-2.3c0,0.1-0.1,0.3-0.2,0.4c-0.1,0.1-0.3,0.2-0.5,0
		c0,0.2-0.1,0.4-0.2,0.5c-0.1,0.1-0.3,0.2-0.4,0.2c-0.2,0-0.3,0-0.5,0c-0.2,0-0.4-0.1-0.5-0.1c-0.6,0.8-1.3,1.7-1.9,2.5
		c-0.6,0.8-1.2,1.7-1.6,2.7c-0.1,0.1-0.2,0.1-0.2,0.1c0,0-0.1,0-0.2,0.1c-0.1,0.6-0.2,1.1-0.4,1.6c-0.2,0.5-0.4,1-0.6,1.5
		c-0.2,0.5-0.3,1.1-0.4,1.6c-0.1,0.6-0.1,1.2,0.1,1.8c0.6,0.3,1.2,0.3,1.8,0.3c0.6-0.1,1.3-0.2,2-0.5c0.7-0.2,1.3-0.5,1.9-0.8
		c0.6-0.3,1.2-0.5,1.7-0.7c1.1-0.6,2-1.2,2.7-1.9C140.2,171.9,140.9,171.2,141.7,170.5z"/>
	<path class="st0" d="M162.2,173.6c-0.7,0.4-1.5,0.9-2.3,1.4c-0.8,0.5-1.7,0.8-2.6,1.1c-1.4,0.4-2.5,0.3-3.5-0.2
		c-0.2-0.3-0.4-0.4-0.5-0.5c-0.1-0.1-0.2-0.2-0.3-0.3c-0.1-0.1-0.2-0.3-0.3-0.5c-0.4-0.3-0.8-0.7-1.1-1.1c-0.3-0.5-0.6-0.9-0.8-1.5
		s-0.4-1-0.5-1.6c-0.1-0.6-0.2-1.1-0.1-1.6c0-0.1,0-0.2,0-0.4c0-0.1,0-0.2,0-0.4c0-0.5,0-0.9,0-1.4c0-0.4,0.1-0.8,0.2-1.2
		c-0.2-0.2-0.2-0.5-0.2-0.8c0-0.3,0.1-0.6,0.2-0.9c0.1-1.1,0.2-2.1,0.3-2.9c0.1-0.8,0.1-1.6,0.2-2.4c0.1-1.4,0.3-2.7,0.3-4
		s0.1-2.7,0.1-4.2c0.2-0.2,0.3-0.3,0.4-0.4c0.1-0.1,0.3-0.2,0.4-0.2c0.6,0.1,1.2,0.2,1.9,0.3c0.7,0.1,1.3,0,1.7-0.1
		c0.3,0.1,0.4,0.1,0.5,0.2c0.1,0.1,0.1,0.1,0.2,0.1c0.4,0.3,0.8,0.6,1.1,0.9c0.3,0.3,0.5,0.8,0.6,1.4c-0.1,0.3-0.2,0.4-0.3,0.5
		c0,0.6,0,1.1-0.1,1.5c0,0.4-0.1,0.8-0.2,1.3c-0.1,0.5-0.2,0.9-0.2,1.4c-0.1,0.5-0.1,1,0,1.6c-0.1,0.2-0.1,0.3-0.1,0.4
		c0,0.1,0,0.3,0,0.4c0,0.2,0,0.3-0.1,0.5c0,0.2-0.1,0.3-0.2,0.5c0.1,0.7,0.1,1.3,0.1,1.8c-0.1,0.5-0.1,1-0.2,1.5
		c-0.1,0.9-0.2,1.8-0.2,2.6c0,0.9,0,1.8,0.2,2.8c0.1-0.1,0.2-0.2,0.4-0.2c0.1,0,0.2-0.1,0.3-0.1c0.2-0.1,0.5-0.1,0.9-0.1
		c0.7-0.7,1.5-1.2,2.5-1.5c0.9-0.3,1.9-0.6,2.8-0.9c0.4-0.1,0.8-0.2,1.1-0.3c0.4-0.1,0.7-0.2,1-0.4c0.3,0.1,0.5,0.1,0.5,0.1
		s0.2,0,0.3-0.1c0.2-0.1,0.4-0.1,0.5-0.1c0.4,0.2,0.8,0.3,1.1,0.4c0.3,0.1,0.7,0.1,1,0.1c0.3,0,0.7,0.1,1,0.1c0.3,0,0.6,0.1,1,0.3
		l0.8,1.7c0.3,0.2,0.4,0.3,0.4,0.4c0.1,0.2,0,0.4,0,0.5l0.2,0.4c-0.4,0.2-0.6,0.4-0.8,0.5c-0.1,0.1-0.2,0.3-0.3,0.5
		c-0.2,0.1-0.4,0.1-0.5,0.2c-0.1,0-0.2,0-0.3,0.1c-0.4,0.1-0.8,0.3-1.3,0.6c-0.8-0.1-1.6,0-2.4,0.2c-0.3,0.1-0.6,0.2-0.9,0.3
		c-0.3,0.1-0.6,0.2-1,0.3c-0.3,0.1-0.6,0.3-1,0.4c-0.3,0.1-0.7,0.2-1,0.3L162.2,173.6z"/>
	<path class="st0" d="M184.6,167.6c-0.7,0.4-1.5,0.9-2.3,1.4c-0.8,0.5-1.7,0.8-2.6,1.1c-1.4,0.4-2.5,0.3-3.5-0.2
		c-0.2-0.3-0.4-0.4-0.5-0.5c-0.1-0.1-0.2-0.2-0.3-0.3c-0.1-0.1-0.2-0.3-0.3-0.5c-0.4-0.3-0.8-0.7-1.1-1.1c-0.3-0.5-0.6-0.9-0.8-1.5
		s-0.4-1-0.5-1.6c-0.1-0.6-0.2-1.1-0.1-1.6c0-0.1,0-0.2,0-0.4c0-0.1,0-0.2,0-0.4c0-0.5,0-0.9,0-1.4c0-0.4,0.1-0.8,0.2-1.2
		c-0.2-0.2-0.2-0.5-0.2-0.8c0-0.3,0.1-0.6,0.2-0.9c0.1-1.1,0.2-2.1,0.3-2.9c0.1-0.8,0.1-1.6,0.2-2.4c0.1-1.4,0.3-2.7,0.3-4
		c0.1-1.3,0.1-2.7,0.1-4.2c0.2-0.2,0.3-0.3,0.4-0.4c0.1-0.1,0.3-0.2,0.4-0.2c0.6,0.1,1.2,0.2,1.9,0.3c0.7,0.1,1.3,0,1.7-0.1
		c0.3,0.1,0.4,0.1,0.5,0.2c0.1,0.1,0.1,0.1,0.2,0.1c0.4,0.3,0.8,0.6,1.1,0.9c0.3,0.3,0.5,0.8,0.6,1.4c-0.1,0.3-0.2,0.4-0.3,0.5
		c0,0.6,0,1.1-0.1,1.5c0,0.4-0.1,0.8-0.2,1.3c-0.1,0.5-0.2,0.9-0.2,1.4c-0.1,0.5-0.1,1,0,1.6c-0.1,0.2-0.1,0.3-0.1,0.4
		c0,0.1,0,0.3,0,0.4c0,0.2,0,0.3-0.1,0.5c0,0.2-0.1,0.3-0.2,0.5c0.1,0.7,0.1,1.3,0.1,1.8c-0.1,0.5-0.1,1-0.2,1.5
		c-0.1,0.9-0.2,1.8-0.2,2.6c0,0.9,0,1.8,0.2,2.8c0.1-0.1,0.2-0.2,0.4-0.2c0.1,0,0.2-0.1,0.3-0.1c0.2-0.1,0.5-0.1,0.9-0.1
		c0.7-0.7,1.5-1.2,2.5-1.5c0.9-0.3,1.9-0.6,2.8-0.9c0.4-0.1,0.8-0.2,1.1-0.3c0.4-0.1,0.7-0.2,1-0.4c0.3,0.1,0.5,0.1,0.5,0.1
		s0.2,0,0.3-0.1c0.2-0.1,0.4-0.1,0.5-0.1c0.4,0.2,0.8,0.3,1.1,0.4c0.3,0.1,0.7,0.1,1,0.1c0.3,0,0.7,0.1,1,0.1c0.3,0,0.6,0.1,1,0.3
		l0.8,1.7c0.3,0.2,0.4,0.3,0.4,0.4c0.1,0.2,0,0.4,0,0.5l0.2,0.4c-0.4,0.2-0.6,0.4-0.8,0.5c-0.1,0.1-0.2,0.3-0.3,0.5
		c-0.2,0.1-0.4,0.1-0.5,0.2c-0.1,0-0.2,0-0.3,0.1c-0.4,0.1-0.8,0.3-1.3,0.6c-0.8-0.1-1.6,0-2.4,0.2c-0.3,0.1-0.6,0.2-0.9,0.3
		s-0.6,0.2-1,0.3c-0.3,0.1-0.6,0.3-1,0.4c-0.3,0.1-0.7,0.2-1,0.3L184.6,167.6z"/>
	<path class="st0" d="M213,135.9c0.1,0.2,0.1,0.3,0.1,0.4c0,0.1,0,0.2,0,0.3c0,0.1,0,0.2,0.1,0.3c0,0.1,0.1,0.2,0.2,0.4
		c-0.3,1.1-0.8,1.9-1.5,2.4c-0.7,0.5-1.4,1-2.2,1.4c-0.8,0.4-1.7,0.8-2.6,1.2c-0.9,0.4-1.7,1-2.4,1.8c-0.4,0-0.7,0-1,0.3
		s-0.7,0.4-1.2,0.5c-0.1,0.2-0.3,0.4-0.5,0.5c-0.2,0.1-0.5,0.3-0.7,0.4c0.2,0.2,0.3,0.5,0.3,0.7c0.1,0.3,0.1,0.5,0.3,0.6
		c1-0.2,2-0.5,3.2-0.9c1.1-0.4,2.3-0.8,3.4-1.1c0.1,0.1,0.1,0.2,0,0.3c0,0.1,0,0.1,0,0.2c0.2,0.1,0.5,0.2,0.7,0.4
		c0.2,0.2,0.5,0.3,0.7,0.4c0.2,0.1,0.5,0.2,0.7,0.3c0.2,0.1,0.5,0.1,0.8,0c0.2,0.2,0.3,0.4,0.4,0.7c0.1,0.2,0.1,0.5,0.1,0.8
		c-0.4,0.4-0.7,0.8-1.1,1.3c-0.4,0.4-0.7,0.8-1.1,1.2c-0.4,0.4-0.9,0.7-1.4,1c-0.5,0.3-1.1,0.5-1.7,0.7c-0.1,0-0.2,0.1-0.3,0.1
		c-0.1,0-0.2,0-0.3-0.1c-0.2,0.2-0.5,0.3-0.9,0.4c-0.4,0.1-0.7,0.2-0.9,0.4c-0.3-0.1-0.7,0-1.1,0.1c-0.4,0.1-0.8,0.2-1.2,0.2
		c-0.3,0.7-0.5,1.4-0.7,2.2c-0.2,0.8-0.3,1.5-0.4,2.3c1-0.1,1.8-0.3,2.4-0.5c0.6-0.2,1.2-0.4,1.7-0.6c0.5-0.2,1.1-0.4,1.6-0.7
		c0.6-0.2,1.3-0.4,2.2-0.6c0.5-0.4,1.1-0.8,1.8-1.1c0.7-0.3,1.4-0.6,1.9-1c0.2,0,0.5,0.1,0.7,0.3c0.2,0.2,0.4,0.3,0.6,0.4
		c0.2,0.1,0.4,0.3,0.6,0.3c0.2,0.1,0.4,0.1,0.7,0c0.1,0.1,0.2,0.2,0.3,0.3c0.1,0.1,0.2,0.3,0.2,0.4c0.1,0.1,0.1,0.2,0.2,0.3
		c0.1,0.1,0.2,0.1,0.4,0c-0.2,1-0.5,1.8-0.9,2.4c-0.4,0.6-0.9,1.1-1.5,1.6c-0.6,0.4-1.3,0.8-2.1,1.2c-0.8,0.4-1.7,0.8-2.6,1.2
		c-0.2,0.1-0.4,0.2-0.6,0.1s-0.4,0-0.6,0c-0.6,0.3-1.3,0.6-2.2,1c-0.8,0.3-1.7,0.6-2.6,0.8c-0.9,0.2-1.8,0.3-2.7,0.3
		c-0.9,0-1.6-0.2-2.3-0.6c-0.3-0.1-0.5-0.3-0.6-0.6c-0.1-0.2-0.4-0.4-0.7-0.4c-0.1-0.3-0.3-0.7-0.5-1.1c-0.2-0.4-0.4-0.9-0.6-1.3
		c-0.2-0.5-0.4-0.9-0.6-1.4c-0.2-0.5-0.3-0.9-0.3-1.3c0-0.4,0-0.8,0.2-1.2c0.2-0.4,0.2-0.8,0-1.1c0.1-0.1,0.2-0.2,0.2-0.3
		c0-0.1,0.1-0.2,0.3-0.2c0-0.5,0.1-1,0.2-1.5c0.1-0.5,0.2-1,0.3-1.4c0.1-0.5,0.2-0.9,0.3-1.4c0.1-0.5,0.2-1,0.2-1.6
		c-0.5-0.3-0.9-0.6-1.2-0.9c-0.3-0.4-0.5-0.8-0.7-1.2c-0.2-0.4-0.4-0.8-0.6-1.3c-0.2-0.4-0.4-0.9-0.7-1.3c0.2-0.5,0.4-0.9,0.7-1.3
		c0.3-0.4,0.7-0.7,1.1-1c0.4-0.3,0.9-0.6,1.4-0.8c0.5-0.3,1.1-0.5,1.6-0.8c1-0.6,1.9-1.2,2.7-1.6c0.8-0.4,1.6-0.8,2.4-1.1
		c0.8-0.3,1.6-0.7,2.5-1c0.9-0.3,1.9-0.8,2.9-1.3c0.3,0.2,0.6,0.2,0.8,0.2c0-0.3,0.2-0.4,0.3-0.3c0.2,0.1,0.2,0,0.1-0.3
		c0.4,0.4,0.8,0.7,1.4,0.9C211.9,135.7,212.4,135.8,213,135.9z"/>
	<path class="st0" d="M234.8,154.9c-0.4,0.1-1,0.3-1.6,0.4c-0.7,0.1-1.2,0.4-1.7,0.8c-1.5,0.3-3,0.5-4.6,0.6c-1.6,0.1-3.1,0.1-4.4,0
		c-0.4-0.2-0.7-0.4-1-0.6c-0.3-0.2-0.8-0.3-1.3-0.3c-0.8-0.3-1.5-0.8-2.1-1.5c-0.6-0.6-1.1-1.4-1.6-2.1c-0.5-0.8-0.9-1.6-1.2-2.5
		c-0.3-0.9-0.6-1.7-0.8-2.5c0.1-1.3,0.4-2.5,0.9-3.6s1.1-2.2,1.6-3.3c0.3-0.3,0.5-0.5,0.7-0.7c0.1-0.2,0.3-0.4,0.4-0.6
		c0.2-0.2,0.3-0.4,0.5-0.6c0.2-0.2,0.3-0.4,0.4-0.7c0.5-0.3,1-0.6,1.3-1c0.4-0.4,0.7-0.8,1-1.2c0.3-0.4,0.7-0.8,1.1-1.1
		c0.4-0.4,0.8-0.7,1.4-1c0.2-0.3,0.4-0.6,0.6-0.8c0.3-0.2,0.5-0.5,0.8-0.7c0.3-0.2,0.5-0.5,0.8-0.7c0.2-0.2,0.4-0.5,0.5-0.8
		c0.2,0.2,0.4,0.2,0.6,0.1c0.2-0.1,0.4-0.3,0.6-0.4c0.1-0.1,0.3-0.1,0.4,0c0.1,0.1,0.2,0.1,0.3,0.2c0.1,0.1,0.2,0.1,0.3,0.1
		c0.1,0,0.1-0.1,0.1-0.2c0.1,0,0.2,0,0.2,0.2c0,0.2,0,0.3,0,0.3c0.2-0.1,0.4-0.1,0.6,0c0.2,0.1,0.4,0.1,0.8,0
		c0.1,0.1,0.2,0.2,0.2,0.3c0,0.1,0,0.2,0,0.4c0.9,0,1.5,0.3,1.9,0.8c0.4,0.5,0.5,1,0.5,1.6c0,0.6-0.2,1.2-0.6,1.9
		c-0.4,0.6-0.8,1.1-1.3,1.4c-1.2,0.7-2.3,1.4-3.4,2.2c-1,0.7-1.8,1.6-2.4,2.6c-0.6,0.4-1.1,0.8-1.5,1.2c-0.4,0.4-0.8,0.9-1.2,1.4
		c-0.3,0.5-0.7,1-0.9,1.6c-0.3,0.5-0.6,1.1-0.9,1.6c0.1,0.4,0.1,0.7,0,0.9c-0.1,0.2-0.2,0.5-0.3,0.7c0.2,0.4,0.4,0.7,0.6,1
		c0.2,0.3,0.5,0.5,0.7,0.8c1.9,0.1,4-0.1,6-0.5c2.1-0.4,4.1-0.9,6.2-1.4c0.3,0.2,0.6,0.4,0.9,0.6c0.3,0.2,0.6,0.3,0.9,0.5
		c0.3,0.2,0.5,0.4,0.8,0.7c0.2,0.3,0.4,0.7,0.4,1.1c-0.3,0.5-0.6,1-1,1.5C235.5,153.9,235.2,154.4,234.8,154.9z"/>
	<path class="st0" d="M257.4,127.7c-0.7,0.2-1.4,0.4-2.2,0.7c-0.8,0.3-1.5,0.6-2.3,0.9c-0.5,0.2-1,0.4-1.5,0.6
		c-0.5,0.2-0.9,0.4-1.3,0.5c0,0.7-0.1,1.2-0.1,1.8c-0.1,0.5-0.2,1-0.3,1.5c-0.1,0.5-0.2,1-0.2,1.6c-0.1,0.5-0.1,1.1-0.1,1.7
		c-0.2,0.5-0.3,1-0.4,1.4c-0.1,0.4-0.1,0.9-0.1,1.4c-0.2,0.5-0.4,1-0.4,1.5c0,0.5-0.1,0.9-0.1,1.3l0,0.5c-0.1,0.2-0.2,0.4-0.2,0.5
		c0,0.1,0,0.2-0.1,0.3c0.1,0.3,0,0.6,0,1c0,0.2,0,0.3,0,0.4c0,0.1,0,0.2,0,0.3c0.1,0.3,0.1,0.5-0.1,0.6c0.1,0.1,0.1,0.3,0.1,0.4
		s0,0.3,0,0.5c0,0.3,0,0.6,0.1,0.8c0.1,0.1,0.2,0.2,0.3,0.2c0.1,0.1,0.2,0.2,0.2,0.3c0.2,0.1,0.3,0.1,0.4,0.1
		c0.1,0.1,0.3,0.1,0.6,0.2l0.5,0.3c0.3,0.8,0.4,1.4,0.1,2c-0.3,0.6-0.9,1.1-1.9,1.3l-0.5,0.1c-0.2-0.1-0.3-0.2-0.3-0.3
		c-0.2,0-0.4,0-0.6-0.1s-0.3-0.1-0.5-0.2c-0.4-0.1-0.7-0.1-1-0.2l-0.4-0.1c-0.1-0.3-0.1-0.5-0.1-0.5c-0.3-0.2-0.5-0.4-0.6-0.7
		c-0.2-0.3-0.3-0.6-0.5-0.8c-0.1-0.2-0.2-0.4-0.4-0.6c-0.1-0.2-0.3-0.4-0.4-0.5c-0.5-1.6-0.7-2.9-0.6-4.1c0.1-1.2,0.2-2.3,0.3-3.4
		c0.1-0.6,0.1-1.2,0.2-1.8c0.1-0.6,0.1-1.2,0.1-1.9l0.3-0.5c0.1-0.5,0.1-0.9,0.2-1.2c0-0.3,0.1-0.6,0.2-1c0-0.2,0.1-0.4,0.1-0.6
		c0-0.2,0-0.4,0.1-0.5c-0.2,0-0.3,0.1-0.4,0.1c-0.1,0.1-0.3,0.1-0.4,0.2c-0.2,0.1-0.3,0.1-0.4,0.2s-0.3,0.1-0.4,0.1
		c-0.2,0.1-0.3,0.1-0.4,0.1c-0.3,0.2-0.6,0.4-0.9,0.5l-0.4,0.1c-0.1,0-0.2,0-0.2,0c-0.1,0-0.1,0-0.2,0c-0.3,0.1-0.5,0.2-0.6,0.3
		c-0.3,0.1-0.6,0.2-0.9,0.3l-0.4,0.1c-0.1,0-0.1,0-0.2,0.1c-0.1,0-0.1,0.1-0.2,0.1c-0.2,0.1-0.4,0.1-0.6,0.1c-0.2,0-0.5,0-0.8-0.1
		c-0.4-0.3-0.7-0.5-0.8-0.5l-0.5-0.4c-0.1-0.2-0.2-0.3-0.2-0.4c-0.1-0.1-0.2-0.3-0.3-0.5c-0.2-0.2-0.4-0.5-0.5-0.8
		c-0.2-0.3-0.3-0.7-0.4-1.1c0-0.2,0-0.4,0-0.5c0.1-0.1,0.1-0.2,0.1-0.3l0-0.6l0.5-0.1l1.1-0.3c0.9-0.2,1.8-0.5,2.6-0.8
		c0.9-0.3,1.8-0.6,2.7-1c0.5-0.2,1.1-0.4,1.6-0.6c0.5-0.2,1.1-0.4,1.7-0.6c0-0.3,0.1-0.5,0.1-0.8l0.4-0.3c0.5-0.2,0.8-0.2,1.1-0.1
		c0.2,0.1,0.5,0.2,0.6,0.3c0.6-0.2,1.2-0.4,1.8-0.7c0.6-0.2,1.2-0.5,1.8-0.8c0.9-0.4,1.8-0.8,2.7-1.1c0.9-0.4,1.8-0.7,2.7-0.9
		c0.4-0.1,0.8-0.2,1.1-0.3c0.4-0.1,0.7-0.1,1-0.1l0.5,0.2c0.1,0.1,0.3,0.3,0.5,0.4c0.2,0.1,0.4,0.2,0.6,0.3c0.4,0.2,0.8,0.5,1.3,0.8
		c0.4,0.3,0.7,0.9,0.8,1.7c-0.1,0.4-0.2,0.6-0.3,0.7l-0.2,0.6l-0.4,0.1c-0.2,0-0.3,0.1-0.4,0.2s-0.2,0.2-0.4,0.3
		c-0.1,0.1-0.2,0.2-0.3,0.2c-0.1,0.1-0.2,0.1-0.3,0.2c-0.2,0.1-0.4,0.1-0.6,0.1C257.7,127.6,257.5,127.7,257.4,127.7z"/>
	<path class="st0" d="M267.3,143.1c0.4,0.8,0.5,1.4,0.4,2c-0.1,0.5-0.3,1-0.7,1.3c-0.4,0.3-0.8,0.6-1.4,0.8
		c-0.5,0.2-1.1,0.3-1.6,0.3c-0.4-0.3-0.7-0.7-1.1-1.2c-0.4-0.5-0.7-1.1-1.1-1.6c-0.4-0.6-0.7-1.1-1-1.7c-0.3-0.6-0.6-1.1-0.8-1.5
		c0-0.4,0-0.8,0-1.2c-0.1-0.4-0.2-0.9-0.3-1.3c-0.1-0.4-0.2-0.9-0.3-1.3c-0.1-0.5-0.2-0.9-0.2-1.3c-0.1-1.2-0.1-2.4,0-3.5
		c0.1-1.1,0.1-2.3,0-3.5c0-0.3-0.1-0.5-0.2-0.7c-0.2-0.2-0.2-0.4-0.2-0.6c0-0.1,0.1-0.2,0.2-0.3c0.1-0.1,0.2-0.2,0.2-0.3
		c0-0.3,0-0.6-0.1-0.8c-0.1-0.2-0.1-0.4,0-0.7c0.1-0.3,0.2-0.6,0.3-1.1c0.1-0.5,0-0.9-0.1-1.4c0.2-0.2,0.4-0.5,0.5-0.8
		c0.2-0.3,0.3-0.5,0.5-0.8c0.2-0.2,0.4-0.5,0.7-0.7c0.2-0.2,0.6-0.4,1-0.5c0.3,0.2,0.5,0.5,0.7,0.8c0.2,0.3,0.3,0.6,0.5,0.9
		c0.2,0.3,0.3,0.6,0.6,0.8c0.2,0.3,0.5,0.4,0.9,0.5c0.1,0.2,0.1,0.5,0.2,0.8c0.1,0.3,0.2,0.6,0.3,1c0.1,0.3,0.2,0.6,0.4,0.8
		c0.2,0.2,0.4,0.4,0.6,0.4c-0.1,1.4-0.3,2.9-0.3,4.3c-0.1,1.4-0.1,2.8,0,4.1c0.1,1.4,0.2,2.7,0.5,4
		C266.3,140.5,266.7,141.8,267.3,143.1z"/>
	<path class="st0" d="M292.6,126.3c0.1,0.3,0.2,0.6,0.3,0.9c0.2,0.3,0.3,0.5,0.5,0.8c0.2,0.3,0.4,0.5,0.6,0.8
		c0.2,0.3,0.4,0.5,0.5,0.8c0.2,0.4,0.3,0.8,0.3,1.2c0.1,0.5,0.1,0.9,0.1,1.4c0,0.5-0.1,0.9-0.2,1.3c-0.1,0.4-0.3,0.7-0.6,1
		c-0.3,0.6-0.6,1.1-1.1,1.5c-0.5,0.4-0.9,0.9-1.3,1.4c-0.2,0.3-0.5,0.5-0.9,0.7c-0.3,0.2-0.7,0.4-1.1,0.5c-0.3,0.2-0.6,0.5-0.9,0.8
		c-0.4,0.3-0.7,0.6-1.1,0.8c-0.4,0.3-0.8,0.5-1.2,0.7c-0.4,0.2-0.8,0.3-1.1,0.4c-0.7,0.5-1.5,0.9-2.2,1.2c-0.8,0.3-1.7,0.5-2.8,0.5
		c-0.9,0.4-1.9,0.6-2.8,0.6c-0.9,0-1.7-0.1-2.5-0.5c-0.8-0.3-1.5-0.7-2.1-1.3c-0.7-0.5-1.2-1.1-1.7-1.8c-0.6-1.5-1-2.9-1-4.3
		c0-1.4,0.1-2.7,0.5-3.9c0.3-1.2,0.8-2.4,1.3-3.6c0.5-1.1,1.1-2.2,1.6-3.3c0.2,0,0.3,0,0.4-0.1c0.1-0.1,0.1-0.2,0.2-0.4
		c0-0.1,0.1-0.3,0.2-0.4c0.1-0.1,0.2-0.2,0.3-0.3c0.1-0.5,0.3-0.8,0.6-1.1c0.3-0.3,0.5-0.7,0.6-1.1c0.2-0.1,0.4-0.3,0.5-0.4
		c0.1-0.2,0.3-0.3,0.4-0.5c0.1-0.2,0.2-0.3,0.4-0.5c0.1-0.2,0.3-0.3,0.5-0.4l-0.1-0.5c0.4-0.3,0.7-0.7,0.9-1
		c0.2-0.3,0.3-0.8,0.6-1.3c0.2-0.1,0.4-0.2,0.6-0.2c0.1,0,0.4-0.1,0.7-0.3c0.1-0.4,0.2-0.8,0.4-1c0.1-0.2,0.3-0.5,0.6-0.8
		c0.4,0.1,0.8,0.1,1.2,0c0.4,0,0.8,0,1.2,0.3c0.1,0.3,0.2,0.5,0.4,0.6c0.2,0.1,0.4,0.2,0.6,0.3c0.2,0.1,0.4,0.2,0.6,0.3
		c0.2,0.1,0.3,0.3,0.5,0.5c0.1,0,0.2,0,0.2-0.1c0-0.1,0.1-0.1,0.2-0.1c0.2,0.4,0.3,0.6,0.5,0.7c0.1,0.1,0.3,0.3,0.5,0.6
		c-0.1,0.3-0.1,0.6-0.1,0.9c0,0.3-0.1,0.6-0.3,0.8c0,0.2,0.1,0.3,0.2,0.3c0.1,0,0.2,0,0.3,0.2c0.1,0.2,0.1,0.4,0,0.6
		c0.9,0.9,1.8,1.9,2.7,2.9C290.8,124.4,291.7,125.4,292.6,126.3z M288.6,131.5c0-0.3,0.1-0.6,0.2-0.9c0.1-0.2,0.2-0.6,0.1-0.9
		c-0.2-0.2-0.3-0.3-0.4-0.4c-0.1-0.1-0.1-0.3-0.2-0.6c-0.8-0.7-1.6-1.5-2.3-2.3c-0.7-0.9-1.4-1.6-2.2-2.3c0,0.1-0.1,0.3-0.2,0.4
		s-0.3,0.2-0.5,0c0,0.2-0.1,0.4-0.2,0.5c-0.1,0.1-0.3,0.2-0.4,0.2c-0.2,0-0.3,0-0.5,0c-0.2,0-0.4-0.1-0.5-0.1
		c-0.6,0.8-1.3,1.7-1.9,2.5c-0.6,0.8-1.2,1.7-1.6,2.7c-0.1,0.1-0.2,0.1-0.2,0.1c0,0-0.1,0-0.2,0.1c-0.1,0.6-0.2,1.1-0.4,1.6
		c-0.2,0.5-0.4,1-0.6,1.5c-0.2,0.5-0.3,1-0.4,1.6c-0.1,0.6-0.1,1.2,0.1,1.8c0.6,0.3,1.2,0.3,1.8,0.3c0.6-0.1,1.3-0.2,2-0.5
		c0.7-0.2,1.3-0.5,1.9-0.8c0.6-0.3,1.2-0.5,1.7-0.7c1.1-0.6,2-1.2,2.7-1.9C287,132.9,287.8,132.2,288.6,131.5z"/>
	<path class="st0" d="M304.8,128.2c-0.2,0.1-0.4,0.3-0.4,0.6c0,0.3-0.1,0.5-0.1,0.8c0,0.3-0.1,0.5-0.1,0.8c0,0.2-0.2,0.4-0.3,0.4
		c0,0.2,0,0.4-0.1,0.6c-0.1,0.2-0.2,0.4-0.2,0.6c-0.1,0.2-0.1,0.4-0.1,0.6c0,0.2,0.1,0.5,0.3,0.7c-0.2,0.2-0.3,0.5-0.2,0.8
		c0,0.3,0,0.6,0,0.9c0,0.3,0,0.6-0.2,0.8c-0.1,0.2-0.4,0.4-0.8,0.5c-0.1,0.1,0,0.2,0,0.2c0.1,0,0.1,0.1,0.2,0.3
		c-0.3,0-0.5,0.1-0.7,0.2c-0.1,0.1-0.3,0.2-0.5,0.3c-0.6,0-1.1-0.2-1.5-0.5c-0.5-0.3-0.9-0.7-1.3-1.1c-0.4-0.4-0.8-0.9-1.1-1.4
		c-0.3-0.5-0.7-0.9-1-1.2c0-0.3-0.1-0.6-0.2-0.9c-0.1-0.3-0.3-0.5-0.5-0.6c0.6-3.2,1.2-6.6,2-10.3c0.7-3.6,1.4-7.2,2-10.7
		c0.7,0.1,1.4,0.2,2.1,0.3c0.7,0.2,1.4,0.4,2,0.6c0.6,0.3,1.2,0.6,1.7,1.1c0.5,0.4,0.9,1,1.2,1.6c0,0.2-0.1,0.3-0.1,0.2
		s-0.1,0-0.2,0.1c0.1,0.1,0.2,0.2,0.3,0.2c0,0.1,0,0.1,0,0.2c0,0.1,0,0.1,0,0.2s0.1,0.2,0.2,0.4c-0.1,0-0.2,0-0.2,0.1
		c0,0.1-0.1,0.1-0.3,0.1c0.2,0.3,0.3,0.5,0.3,0.7c0,0.2,0,0.4,0,0.6c0,0.2-0.1,0.4-0.1,0.5c0,0.2,0.1,0.4,0.2,0.7
		c-0.1,0-0.1,0.1-0.2,0.1c0,0.1-0.1,0.1-0.1,0.1c0,0,0,0.1-0.1,0.2c0,0.1-0.1,0.1-0.2,0.1c0.2,0.6,0.4,1.2,0.6,1.8
		c0.1,0.6,0.3,1.2,0.4,1.8c0.1,0.6,0.3,1.3,0.5,1.9c0.2,0.7,0.5,1.3,0.8,2c0.8-0.8,1.4-1.8,1.8-2.8c0.3-1.1,0.6-2.2,0.6-3.4
		c0.1-1.2,0-2.5-0.1-3.8c-0.2-1.3-0.3-2.7-0.4-4.1c0.2-0.3,0.3-0.7,0.3-1.1c0-0.4,0.1-0.8,0.1-1.2c0-0.4,0-0.8,0-1.3
		c0-0.4,0-0.8,0.1-1.2c0.4-0.1,0.8,0,1.1,0.1c0.3,0.1,0.7,0.3,1,0.4c0.3,0.2,0.6,0.3,1,0.4c0.3,0.1,0.7,0.2,1.1,0.1
		c0.5,0.4,0.9,0.7,1.3,1.1c0.4,0.4,0.7,0.8,0.9,1.3c-0.1,0.3-0.1,0.5-0.1,0.8c0,0.3,0,0.6,0,0.9c0,0.3-0.1,0.6-0.1,0.8
		c-0.1,0.3-0.2,0.5-0.4,0.7c0.1,0.7,0.2,1.4,0.2,2c0,0.6,0.1,1.2,0.1,1.8c0,0.6,0.1,1.2,0.2,1.9s0.2,1.3,0.5,2.1
		c-0.1,0.7-0.1,1.4-0.2,2.2c-0.1,0.8-0.1,1.5-0.1,2.1c-0.3,0.5-0.6,1-0.7,1.5c-0.1,0.6-0.2,1.1-0.4,1.7c-0.1,0.1-0.1,0.2-0.2,0.1
		c0,0-0.1-0.1-0.3,0c0.1,0.1,0.1,0.2,0.1,0.2c0,0.1,0,0.1-0.1,0.2c0,0.1,0,0.1,0,0.2c0,0.1,0.1,0.2,0.1,0.3c-0.3,0.3-0.6,0.6-0.8,1
		c-0.2,0.4-0.5,0.7-0.7,1.1c-0.3,0.3-0.6,0.6-1.1,0.8s-1.1,0.3-1.9,0.2c-1.3-0.5-2.6-1.2-3.7-2C306.8,130.6,305.8,129.5,304.8,128.2
		z"/>
	<path class="st0" d="M325.9,100.4c0.1,0.2,0.1,0.6,0.1,0.9s0.1,0.7,0.1,1.1c0,0.4,0.1,0.7,0.2,1c0.1,0.3,0.3,0.4,0.5,0.5
		c-0.1,1.6-0.1,2.9,0,3.9c0.1,1,0.2,2,0.3,2.9c0.1,0.9,0.2,1.9,0.3,2.9c0.1,1,0,2.3-0.1,3.9c-0.1,1-0.3,1.7-0.6,2.1
		c-0.3,0.5-0.8,0.8-1.3,0.9c-0.5,0.1-1,0.1-1.6,0c-0.6-0.1-1.2-0.3-1.7-0.5c-0.2-0.5-0.4-1.1-0.5-1.9c-0.1-0.8-0.3-1.6-0.4-2.4
		c-0.1-0.8-0.2-1.7-0.3-2.4c-0.1-0.8-0.2-1.4-0.3-2c0.2-0.4,0.3-0.7,0.4-0.9c0.1-0.2,0.1-0.4,0.1-0.7c0-0.2-0.1-0.5-0.1-0.8
		c-0.1-0.3-0.1-0.8-0.2-1.4c0-0.3-0.1-0.6-0.3-0.8s-0.2-0.4-0.2-0.7c0-0.1,0.1-0.2,0.2-0.3c0.1-0.1,0.2-0.2,0.1-0.3
		c0-0.4,0-0.7-0.1-0.9c-0.1-0.2-0.1-0.5-0.1-0.8c0.1-0.3,0.2-0.6,0.2-1.2c0.1-0.5,0-1.1-0.2-1.6c0.2-0.3,0.4-0.5,0.5-0.8
		c0.2-0.3,0.3-0.6,0.5-0.9c0.2-0.3,0.4-0.5,0.6-0.7s0.6-0.4,1-0.5c0.3,0.2,0.5,0.5,0.7,0.7c0.2,0.2,0.4,0.5,0.5,0.7
		c0.2,0.2,0.4,0.4,0.6,0.6C325.2,100.2,325.5,100.3,325.9,100.4z M328,124.8c0.1,0.2,0.2,0.4,0.3,0.6c0.1,0.2,0.2,0.4,0.2,0.6
		c0,0.6-0.1,1.2-0.1,1.7c0,0.2-0.1,0.4-0.1,0.4c0,0.1,0,0.1,0,0.1c0,0,0,0.1,0.1,0.1c0,0,0.1,0.1,0.1,0.3l-0.1,0.5
		c-0.1,0.2-0.2,0.4-0.4,0.6c-0.1,0.2-0.3,0.3-0.5,0.4c-0.1,0.1-0.1,0.1-0.2,0.2c-0.1,0.1-0.1,0.1-0.2,0.2l0,0.5l-0.6,0.2
		c-0.4,0.2-0.8,0.4-1.1,0.5l-0.5,0.1c-0.4-0.2-0.7-0.4-1-0.5c-0.2-0.1-0.5-0.2-0.8-0.3c-0.4-0.4-0.7-0.8-0.9-1.2
		c-0.1-0.3-0.3-0.6-0.4-0.6l-0.7-0.4l0.4-0.5l-0.7-0.6c0.3-0.3,0.5-0.6,0.6-0.7c0.1-0.2,0.2-0.3,0.3-0.5c0.1-0.2,0.2-0.3,0.3-0.6
		c0.1-0.2,0.2-0.6,0.4-1.1l0.2-0.6l0.6,0.2c0.2,0,0.4,0.1,0.8,0c0.4,0,0.7-0.1,1-0.1c0.5,0,0.9,0,1.4,0c0.4,0,0.8,0,1.1,0.2
		L328,124.8z"/>
</g>
</svg>
